<svg version="1.2" xmlns="http://www.w3.org/2000/svg" viewBox="0 0 159 94" width="159" height="94">
	<title>Artwork 7-svg</title>
	<style>
		.s0 { fill: #1e5299 } 
		.s1 { fill: #4b1344 } 
	</style>
	<g id="Artwork_7">
		<g id="Group_34">
			<g id="Group_32">
				<path id="Path_165" class="s0" d="m17.8 17.2q0.3 0 0.5 0 0.3 0 0.5-0.1 0.2 0 0.5 0 0.2-0.1 0.4-0.1c-0.1 1.3-0.3 3.9-0.3 7 0 2.4 0.1 4.4 0.1 4.8q0.6-0.5 1.2-1 0.5-0.4 1.1-0.9 0.6-0.5 1.1-1 0.6-0.6 1.1-1.1c2.2-2.1 6.4-6.6 7.1-7.8q0.3 0 0.5 0.1 0.2 0 0.5 0 0.2 0.1 0.5 0.1 0.2 0 0.4 0 0.3 0 0.5 0 0.2 0 0.4-0.1 0.2 0 0.4 0 0.2-0.1 0.4-0.1l0.1 0.2c-0.8 0.6-2.9 2.6-6.5 6-3.5 3.3-5.3 5.1-5.3 5.1 3.1 3.6 11.1 12.6 11.8 13.2v0.8q-0.3 0-0.6-0.1-0.3 0-0.6 0-0.3-0.1-0.6-0.1-0.3 0-0.5 0-0.4 0-0.7 0-0.3 0.1-0.6 0.1-0.4 0-0.7 0-0.3 0.1-0.6 0.1c-1.8-3.1-6.3-8.1-10.3-12.4l-0.1 0.1v4.7c0 2.2 0 5.1 0.2 7.6q-0.2 0-0.5-0.1-0.2 0-0.5 0-0.2-0.1-0.5-0.1-0.2 0-0.5 0-0.3 0-0.5 0-0.3 0-0.6 0.1-0.3 0-0.5 0-0.3 0.1-0.6 0.1c0.4-6.4 0.5-7.5 0.5-12.6 0-6.5 0-7.3-0.4-12.7q0.3 0 0.6 0.1 0.3 0 0.5 0 0.3 0.1 0.6 0.1 0.3 0 0.5 0z"/>
				<path id="Path_166" fill-rule="evenodd" class="s0" d="m51.6 33v0.4h-13.1v0.2c0 3 0.6 4.2 1.6 5.4q0.4 0.6 0.9 1 0.5 0.4 1.1 0.6 0.6 0.3 1.2 0.4 0.7 0.1 1.3 0.1 0.9 0 1.7-0.2 0.8-0.2 1.6-0.5 0.8-0.4 1.4-1 0.7-0.6 1.1-1.3l0.5 0.1q-0.1 0.3-0.1 0.6-0.1 0.3-0.1 0.5 0 0.3 0 0.6-0.1 0.3-0.1 0.5-0.7 0.7-1.5 1.1-0.8 0.5-1.6 0.8-0.9 0.3-1.8 0.4-1 0.2-1.9 0.1c-5.6 0-9-3.5-9-9.1 0-5.7 3.3-9.4 8.8-9.4 5.1 0 8 2.8 8 8.7zm-3.6-1.1c0-4-1.5-6.1-4.4-6.1-2.8 0-4.6 1.9-5.1 6.1z"/>
				<path id="Path_167" class="s0" d="m54.5 24.7q0.2 0 0.5 0 0.2 0 0.5-0.1 0.2 0 0.5 0 0.2-0.1 0.4-0.1c2.8 7.7 4.7 12.3 4.8 12.6 0.3 0.6 0.4 0.8 0.6 0.8q0.1-0.1 0.2-0.2 0.1-0.1 0.1-0.2 0.1-0.1 0.1-0.2 0.1-0.1 0.1-0.2 0.7-1.6 1.4-3.1 0.6-1.6 1.2-3.2 0.6-1.5 1.1-3.1 0.5-1.6 1-3.2 0.2 0 0.4 0.1 0.2 0 0.4 0 0.2 0.1 0.4 0.1 0.2 0 0.4 0 0.2 0 0.4 0 0.2 0 0.4-0.1 0.2 0 0.3-0.1 0.2 0 0.4-0.1-0.3 0.6-0.7 1.2-0.3 0.6-0.6 1.3-0.3 0.6-0.6 1.2-0.3 0.7-0.6 1.3c-3.1 6.9-7.6 16.1-9.4 22.4q-0.1-0.1-0.3-0.1-0.2-0.1-0.3-0.1-0.2 0-0.3-0.1-0.2 0-0.4 0-0.2 0.1-0.4 0.1-0.2 0-0.4 0-0.2 0-0.4 0.1-0.2 0-0.4 0.1c1.9-3.7 3.3-6.2 4.6-9-4.1-10-5.8-14.2-7.7-18.3q0.2 0 0.5 0.1 0.3 0 0.6 0 0.3 0.1 0.6 0.1 0.3 0 0.6 0z"/>
				<path id="Path_168" fill-rule="evenodd" class="s0" d="m83.3 17.1c1.2 0 2.5 0 3.8 0q0.7-0.1 1.4 0 0.7 0 1.4 0.1 0.7 0 1.4 0.2 0.6 0.1 1.3 0.3 0.8 0.3 1.5 0.8 0.7 0.6 1.1 1.3 0.5 0.7 0.7 1.5 0.2 0.9 0.2 1.7c0 3.6-2.2 5.8-7.2 6.6 0.4 0.7 9.4 12.3 9.4 12.3v0.4q-0.2 0-0.5 0-0.3-0.1-0.6-0.1-0.2 0-0.5-0.1-0.3 0-0.5 0-0.4 0-0.7 0-0.3 0.1-0.7 0.1-0.3 0-0.6 0.1-0.3 0-0.7 0-1-1.6-2-3.2-1.1-1.5-2.2-3.1-1.2-1.5-2.3-3-1.2-1.5-2.5-2.9h-0.9c0 0 0.1 10 0.2 12.2q-0.2 0-0.5-0.1-0.2 0-0.5 0-0.3 0-0.5-0.1-0.3 0-0.6 0-0.2 0-0.5 0-0.2 0-0.5 0.1-0.2 0-0.4 0-0.3 0.1-0.5 0.1c0.2-4.3 0.2-8.6 0.2-13.9 0-3.3 0-6.4-0.2-11.4q0.4 0 0.9 0 0.4 0.1 0.8 0.1 0.5 0 0.9 0 0.4 0 0.9 0zm0.3 4.5c0 5.3 0 6.2 0 7.2 0.3 0 1 0.1 1.1 0.1 3.1 0 4.9-0.7 5.9-1.6q0.4-0.4 0.8-0.8 0.3-0.5 0.5-1 0.2-0.5 0.3-1 0.1-0.5 0-1.1c0-3.2-1.9-4.8-6.3-4.8q-0.3 0-0.6 0-0.3 0-0.5 0-0.3 0.1-0.6 0.1-0.3 0-0.6 0.1 0 1.6 0 2.8z"/>
				<path id="Path_169" class="s0" d="m104.6 18.6q0 0.4-0.2 0.8-0.1 0.3-0.4 0.6-0.3 0.3-0.7 0.4-0.3 0.2-0.7 0.2-0.4 0-0.8-0.2-0.4-0.1-0.6-0.4-0.3-0.3-0.5-0.7-0.1-0.3-0.1-0.7c0-0.5 0.2-1 0.6-1.4 0.3-0.4 0.9-0.6 1.4-0.6 0.5 0 1 0.2 1.4 0.6 0.4 0.4 0.6 0.9 0.6 1.4zm-2.2 6.2q0.3 0 0.5 0 0.2 0 0.5 0 0.2-0.1 0.5-0.1 0.2 0 0.4-0.1c-0.2 4-0.2 6.1-0.2 9.6 0 2.2 0.1 4.7 0.3 8.1q-0.3 0-0.5-0.1-0.2 0-0.4 0-0.2-0.1-0.5-0.1-0.2 0-0.4 0-0.3 0-0.5 0-0.3 0-0.5 0.1-0.2 0-0.5 0-0.2 0.1-0.4 0.1c0.1-3.1 0.2-6.6 0.2-9.3 0-3.5-0.1-5.8-0.3-8.4q0.2 0.1 0.5 0.1 0.2 0 0.4 0.1 0.2 0 0.5 0 0.2 0 0.4 0z"/>
				<path id="Path_170" class="s0" d="m125.5 30.6c0 0.8-0.2 7.8-0.2 7.9 0 3.1 0.1 3.7 0.1 3.8q-0.2 0-0.4-0.1-0.3 0-0.5 0-0.2-0.1-0.5-0.1-0.2 0-0.4 0-0.3 0-0.5 0-0.3 0-0.5 0.1-0.3 0-0.5 0-0.2 0.1-0.5 0.1c0.3-3.1 0.4-7.2 0.4-9.5 0-4.3-1.3-6.2-4.3-6.2q-0.7 0-1.4 0.1-0.6 0.2-1.2 0.6-0.6 0.3-1.1 0.8-0.4 0.6-0.7 1.2c-0.4 0.8-0.6 3.1-0.6 7 0 2.2 0.1 4.2 0.3 6q-0.3 0-0.5-0.1-0.2 0-0.5 0-0.2 0-0.5-0.1-0.2 0-0.5 0-0.2 0-0.5 0-0.2 0-0.4 0.1-0.3 0-0.5 0-0.3 0.1-0.5 0.1c0.2-3.3 0.4-5.3 0.4-9.9 0-2.2-0.1-4.9-0.2-7.9q0.2 0 0.4 0 0.3 0.1 0.5 0.1 0.2 0 0.4 0.1 0.3 0 0.5 0 0.2 0 0.5 0 0.2-0.1 0.4-0.1 0.2 0 0.5-0.1 0.2 0 0.4 0l-0.2 3.4q0.5-0.8 1.2-1.5 0.7-0.7 1.5-1.2 0.9-0.4 1.8-0.7 1-0.2 2-0.2c4 0 6.3 1.9 6.3 6.3z"/>
				<path id="Path_171" fill-rule="evenodd" class="s0" d="m142.8 24.8c1.3 0 2.9-0.1 3.4-0.1q-0.1 0.1-0.1 0.2 0 0.1 0 0.2 0 0.1 0 0.3 0 0.1 0 0.2 0 0.1 0 0.2 0 0.1 0 0.3 0 0.1 0 0.2 0 0.1 0.1 0.2c-0.5 0-1.8 0-2.2 0h-1.2q0.4 0.3 0.7 0.7 0.3 0.4 0.5 0.9 0.2 0.4 0.3 0.9 0 0.5 0 1c0 3.8-3 6-7.3 6-0.5 0-2.3-0.1-2.6-0.1q-0.4 0-0.7 0.1-0.3 0.1-0.5 0.4-0.2 0.2-0.3 0.6-0.1 0.3-0.1 0.6c0 1.3 0.7 2 4.1 2 0.9 0 2-0.1 2.7-0.1q0.7 0 1.3 0 0.7 0.1 1.3 0.3 0.7 0.1 1.3 0.4 0.6 0.3 1.1 0.7 0.4 0.3 0.7 0.7 0.3 0.4 0.5 0.9 0.2 0.5 0.3 1 0.1 0.5 0 1 0 0.9-0.3 1.8-0.2 0.9-0.7 1.8-0.5 0.8-1.1 1.5-0.7 0.6-1.5 1.1-0.6 0.4-1.4 0.8-0.7 0.3-1.5 0.5-0.8 0.2-1.6 0.2-0.7 0.1-1.5 0.1c-5.1 0-7.8-2.4-7.8-5.5 0-2.1 1.3-3.8 4-4.8-1.7-0.5-2.7-1.4-2.7-3q0-0.7 0.3-1.3 0.2-0.5 0.6-1 0.4-0.5 0.9-0.8 0.6-0.4 1.2-0.5-0.8-0.3-1.5-0.8-0.7-0.5-1.2-1.2-0.5-0.7-0.7-1.5-0.2-0.8-0.2-1.7c0-3.6 2.9-5.9 7.2-5.9 2.7 0 3 0.5 6.2 0.5zm-5.6 26c3.7 0 5.9-2 5.9-4.6 0-2.6-2.2-4-6-4-3.6 0-5.7 1.5-5.7 4.2 0 2.6 2.3 4.4 5.8 4.4zm3.7-20.7c0-2.5-1.8-4.6-4-4.6-2.2 0-4 2.1-4 4.6 0 2.6 1.8 4.7 4 4.7 2.2 0 4-2.1 4-4.7z"/>
				<path id="Path_172" class="s0" d="m19.3 74.4q-0.6-0.4-1.2-0.9-0.5-0.5-1-1-0.5-0.5-0.9-1.1-0.4-0.7-0.7-1.3-0.7-1.6-1-3.2-0.3-1.7-0.3-3.4 0-1.7 0.3-3.4 0.3-1.6 1-3.2 0.3-0.7 0.7-1.3 0.4-0.6 0.9-1.1 0.5-0.6 1-1 0.6-0.5 1.2-0.9 0.7-0.3 1.4-0.6 0.7-0.3 1.4-0.5 0.7-0.2 1.5-0.3 0.7 0 1.5 0 0.6 0 1.2 0 0.6 0.1 1.1 0.2 0.6 0.1 1.2 0.2 0.5 0.2 1.1 0.4 0.5 0.2 1 0.4 0.5 0.2 0.9 0.5 0.5 0.3 0.9 0.7 0.4 0.3 0.8 0.7l-0.9 1.7q-0.4-0.4-0.8-0.7-0.4-0.3-0.8-0.6-0.4-0.3-0.9-0.5-0.4-0.3-0.9-0.5-0.5-0.1-1-0.3-0.4-0.1-0.9-0.2-0.5-0.1-1-0.1-0.5 0-1 0-0.9-0.1-1.8 0.1-0.9 0.1-1.7 0.5-0.9 0.3-1.6 0.9-0.7 0.5-1.3 1.2-2.4 2.7-2.4 7.7 0 5 2.3 7.7 0.6 0.7 1.4 1.3 0.7 0.5 1.6 0.9 0.8 0.3 1.7 0.5 0.9 0.1 1.8 0.1 0.5 0 1-0.1 0.5 0 1-0.1 0.5-0.1 0.9-0.2 0.5-0.1 1-0.3 0.5-0.2 0.9-0.5 0.5-0.2 0.9-0.5 0.4-0.3 0.8-0.6 0.4-0.3 0.8-0.7l0.9 1.7q-0.4 0.4-0.8 0.7-0.4 0.4-0.9 0.7-0.4 0.3-0.9 0.5-0.5 0.3-1 0.5-0.6 0.2-1.1 0.3-0.6 0.2-1.2 0.3-0.5 0.1-1.1 0.1-0.6 0.1-1.2 0-0.8 0.1-1.5 0-0.8-0.1-1.5-0.3-0.7-0.2-1.4-0.5-0.8-0.3-1.4-0.6z"/>
				<path id="Path_173" fill-rule="evenodd" class="s0" d="m39.1 75q-0.4-0.3-0.8-0.6-0.4-0.4-0.7-0.8-0.4-0.3-0.6-0.8-0.3-0.4-0.5-0.9-0.5-1-0.8-2.2-0.2-1.1-0.2-2.3 0-1.2 0.2-2.3 0.3-1.2 0.8-2.3 0.2-0.4 0.5-0.8 0.2-0.5 0.6-0.9 0.3-0.3 0.7-0.7 0.4-0.3 0.8-0.6 1-0.5 2-0.8 1-0.2 2.1-0.2 1 0 2 0.2 1.1 0.3 2 0.8 0.4 0.3 0.8 0.6 0.4 0.4 0.7 0.7 0.4 0.4 0.7 0.9 0.2 0.4 0.5 0.8 0.4 1.1 0.7 2.3 0.2 1.1 0.2 2.3 0 1.2-0.2 2.3-0.3 1.2-0.7 2.2-0.3 0.5-0.5 0.9-0.3 0.5-0.7 0.9-0.3 0.3-0.7 0.7-0.4 0.3-0.8 0.6-0.9 0.5-2 0.8-1 0.2-2 0.2-1.1 0-2.1-0.2-1-0.3-2-0.8zm8.1-2.8q0.7-1.1 1.1-2.4 0.3-1.3 0.3-2.6 0-1.3-0.3-2.6-0.4-1.3-1.1-2.4-0.8-0.9-1.8-1.4-1.1-0.4-2.2-0.4-1.2 0-2.2 0.4-1.1 0.5-1.9 1.4-0.7 1.1-1 2.4-0.4 1.3-0.4 2.6 0 1.3 0.3 2.6 0.4 1.3 1.1 2.4 0.4 0.5 0.8 0.8 0.5 0.3 1 0.6 0.5 0.2 1.1 0.3 0.6 0.1 1.1 0.1 0.6 0 1.2-0.1 0.5-0.1 1.1-0.3 0.5-0.3 1-0.6 0.4-0.3 0.8-0.8z"/>
				<path id="Path_174" class="s0" d="m67 65.2v10.6h-2.1v-10.5q0-0.4 0-0.9-0.1-0.5-0.2-0.9-0.1-0.5-0.3-0.9-0.2-0.5-0.5-0.8-0.3-0.3-0.7-0.6-0.4-0.2-0.8-0.4-0.4-0.1-0.8-0.2-0.4 0-0.9 0-0.5 0-1 0.1-0.6 0.1-1.1 0.3-0.5 0.2-1 0.5-0.4 0.3-0.8 0.6-0.4 0.4-0.7 0.9-0.3 0.5-0.5 1-0.2 0.5-0.2 1.1-0.1 0.5-0.1 1.1v9.6h-2.1v-16.6h2.1v2.8q0.1-0.4 0.4-0.7 0.2-0.3 0.5-0.7 0.3-0.3 0.6-0.5 0.4-0.3 0.7-0.5 0.4-0.2 0.8-0.4 0.5-0.1 0.9-0.2 0.4-0.1 0.9-0.2 0.4 0 0.9 0 6 0 6 6.4z"/>
				<path id="Path_175" class="s0" d="m69.6 73.8l0.8-1.6q0.3 0.2 0.6 0.5 0.3 0.2 0.6 0.4 0.4 0.2 0.7 0.3 0.4 0.2 0.7 0.3 0.4 0.2 0.8 0.3 0.4 0 0.8 0.1 0.3 0.1 0.7 0.1 0.4 0 0.8 0 0.4 0 0.8 0 0.4 0 0.8-0.1 0.4-0.1 0.8-0.3 0.4-0.1 0.7-0.3 0.5-0.3 0.7-0.8 0.3-0.5 0.4-1 0-0.6-0.2-1.1-0.1-0.5-0.5-0.9-0.3-0.2-0.5-0.4-0.3-0.1-0.6-0.3-0.3-0.1-0.6-0.2-0.3-0.1-0.6-0.1l-2.8-0.7q-0.5 0-0.9-0.2-0.4-0.1-0.8-0.4-0.4-0.2-0.8-0.4-0.4-0.3-0.7-0.6-0.3-0.3-0.5-0.6-0.2-0.3-0.3-0.7-0.2-0.4-0.3-0.7 0-0.4 0-0.8 0-0.5 0.1-1 0.1-0.5 0.3-1 0.2-0.4 0.5-0.8 0.3-0.4 0.7-0.7 0.5-0.3 1.1-0.6 0.5-0.3 1.1-0.5 0.5-0.1 1.1-0.2 0.6-0.1 1.2 0 0.4 0 0.9 0 0.4 0 0.8 0.1 0.4 0.1 0.8 0.2 0.4 0.1 0.8 0.2 0.3 0.2 0.7 0.3 0.3 0.2 0.6 0.4 0.4 0.2 0.7 0.4 0.2 0.3 0.5 0.6l-0.8 1.6q-0.2-0.3-0.5-0.5-0.3-0.2-0.6-0.4-0.3-0.2-0.6-0.3-0.3-0.2-0.7-0.3-0.3-0.2-0.6-0.3-0.3 0-0.6-0.1-0.4-0.1-0.7-0.1-0.3 0-0.7 0-0.4 0-0.7 0-0.4 0-0.8 0.1-0.4 0.1-0.7 0.3-0.4 0.1-0.7 0.3-0.5 0.4-0.7 0.8-0.3 0.5-0.4 1.1 0 0.5 0.2 1.1 0.1 0.5 0.5 0.9 0.2 0.2 0.5 0.4 0.2 0.1 0.5 0.3 0.2 0.1 0.5 0.2 0.3 0.1 0.6 0.1l2.8 0.7q4.5 1 4.5 4.5 0 0.5-0.1 0.9-0.1 0.5-0.3 1-0.3 0.4-0.6 0.8-0.3 0.4-0.7 0.7-0.5 0.3-1.1 0.5-0.6 0.3-1.2 0.5-0.5 0.1-1.2 0.2-0.6 0-1.2 0-0.9 0.1-1.7-0.1-0.9-0.1-1.7-0.4-0.8-0.3-1.6-0.7-0.8-0.4-1.4-1z"/>
				<path id="Path_176" class="s0" d="m98.6 59.2v16.6h-2v-3q-0.2 0.4-0.5 0.7-0.2 0.4-0.5 0.7-0.3 0.3-0.6 0.5-0.3 0.3-0.7 0.5-0.4 0.2-0.8 0.4-0.4 0.1-0.8 0.2-0.4 0.1-0.8 0.2-0.5 0-0.9 0-0.6 0.1-1.2 0-0.6-0.1-1.2-0.3-0.5-0.2-1.1-0.5-0.5-0.4-0.9-0.8-0.4-0.5-0.7-1.1-0.3-0.5-0.5-1.2-0.2-0.6-0.3-1.2 0-0.7 0-1.3v-10.4h2.1v10.2q-0.1 0.5 0 1 0 0.5 0.2 0.9 0.1 0.5 0.3 0.9 0.2 0.4 0.5 0.8 0.3 0.3 0.6 0.6 0.4 0.2 0.8 0.3 0.4 0.2 0.8 0.2 0.4 0.1 0.8 0.1 0.6 0 1.1-0.1 0.5-0.1 1-0.3 0.5-0.2 1-0.5 0.4-0.3 0.8-0.7 0.3-0.4 0.6-0.8 0.3-0.5 0.5-1 0.2-0.6 0.3-1.1 0.1-0.6 0-1.1v-9.4z"/>
				<path id="Path_177" class="s0" d="m102.5 51.7h2.1v24.1h-2.1z"/>
				<path id="Path_178" class="s0" d="m117.4 74.1l-0.1 1.8q-0.2 0-0.4 0-0.3 0-0.5 0.1-0.2 0-0.4 0-0.2 0-0.4 0-0.5 0-1.1 0-0.6-0.1-1.1-0.3-0.6-0.2-1.1-0.5-0.5-0.3-0.9-0.7-0.4-0.5-0.7-0.9-0.2-0.5-0.4-1.1-0.2-0.5-0.3-1.1-0.1-0.5 0-1.1v-9.4h-3.3v-1.7h3.3v-5.1h2.1v5.1h4.8v1.7h-4.8v9.1q-0.1 0.5 0 0.9 0 0.4 0.1 0.8 0.2 0.4 0.4 0.8 0.2 0.4 0.4 0.7 0.3 0.3 0.6 0.5 0.4 0.2 0.7 0.3 0.4 0.2 0.8 0.2 0.4 0.1 0.8 0 0.2 0 0.3 0 0.2 0 0.4 0 0.2 0 0.4 0 0.2 0 0.4-0.1z"/>
				<path id="Path_179" class="s0" d="m119.8 52.2h2.9v2.8h-2.9zm0.4 7h2.1v16.6h-2.1z"/>
				<path id="Path_180" class="s0" d="m140.2 65.2v10.6h-2.1v-10.5q0-0.4 0-0.9-0.1-0.5-0.2-0.9-0.1-0.5-0.3-0.9-0.2-0.5-0.5-0.8-0.3-0.3-0.7-0.6-0.3-0.2-0.7-0.4-0.5-0.1-0.9-0.2-0.4 0-0.8 0-0.6 0-1.1 0.1-0.6 0.1-1.1 0.3-0.5 0.2-0.9 0.5-0.5 0.3-0.9 0.6-0.4 0.4-0.7 0.9-0.3 0.5-0.4 1-0.2 0.5-0.3 1.1-0.1 0.5-0.1 1.1v9.6h-2.1v-16.6h2.1v2.8q0.2-0.4 0.4-0.7 0.2-0.3 0.5-0.7 0.3-0.3 0.7-0.5 0.3-0.3 0.7-0.5 0.3-0.2 0.8-0.4 0.4-0.1 0.8-0.2 0.5-0.1 0.9-0.2 0.4 0 0.9 0 6 0 6 6.4z"/>
				<path id="Path_181" fill-rule="evenodd" class="s0" d="m158.5 59.2v15.6q0.1 0.8 0 1.5-0.1 0.7-0.3 1.4-0.3 0.8-0.6 1.4-0.4 0.6-0.9 1.2-0.5 0.5-1.1 0.9-0.7 0.4-1.4 0.6-0.6 0.2-1.4 0.3-0.7 0.1-1.4 0.1-1 0-1.9-0.1-1-0.2-1.9-0.5-0.9-0.3-1.8-0.7-0.8-0.4-1.6-1l0.8-1.7q0.4 0.3 0.8 0.5 0.3 0.3 0.7 0.5 0.4 0.2 0.8 0.3 0.4 0.2 0.8 0.4 0.4 0.1 0.8 0.2 0.5 0.1 0.9 0.1 0.4 0.1 0.8 0.1 0.4 0 0.8 0 0.6 0.1 1.1 0 0.5-0.1 1-0.2 0.4-0.2 0.9-0.5 0.4-0.2 0.8-0.6 0.3-0.4 0.6-0.9 0.3-0.5 0.4-1 0.2-0.5 0.2-1 0.1-0.5 0.1-1.1v-3.2q-0.2 0.4-0.4 0.7-0.2 0.4-0.5 0.7-0.3 0.4-0.6 0.7-0.4 0.2-0.7 0.5-0.4 0.2-0.9 0.4-0.4 0.1-0.9 0.3-0.4 0.1-0.9 0.1-0.5 0.1-1 0.1-0.5 0-1-0.1-0.5 0-1-0.2-0.5-0.1-0.9-0.3-0.5-0.2-0.9-0.5-0.5-0.2-0.8-0.5-0.4-0.4-0.8-0.7-0.3-0.4-0.6-0.8-0.2-0.4-0.5-0.9-0.4-1-0.7-2.1-0.2-1.1-0.2-2.2 0-1.1 0.2-2.2 0.3-1.1 0.7-2.1 0.3-0.4 0.5-0.9 0.3-0.4 0.6-0.7 0.4-0.4 0.8-0.7 0.3-0.3 0.8-0.6 0.4-0.3 0.9-0.5 0.4-0.2 0.9-0.3 0.5-0.1 1-0.2 0.5 0 1 0 0.5 0 1 0 0.4 0.1 0.9 0.2 0.4 0.1 0.9 0.2 0.4 0.2 0.8 0.4 0.4 0.3 0.7 0.5 0.3 0.3 0.6 0.6 0.3 0.4 0.5 0.7 0.3 0.4 0.4 0.8v-3zm-3.5 12.5q0.7-1 1.1-2.2 0.3-1.2 0.3-2.5 0-1.3-0.3-2.5-0.4-1.2-1.1-2.2-0.4-0.4-0.9-0.8-0.4-0.3-0.9-0.5-0.6-0.2-1.1-0.3-0.6-0.1-1.2-0.1-0.5 0-1.1 0.1-0.6 0.1-1.1 0.3-0.5 0.2-1 0.5-0.5 0.4-0.8 0.8-0.8 1-1.1 2.2-0.4 1.2-0.4 2.5 0 1.3 0.4 2.5 0.3 1.2 1.1 2.2 0.3 0.5 0.8 0.8 0.5 0.3 1 0.5 0.5 0.3 1.1 0.4 0.6 0 1.1 0 0.6 0 1.2 0 0.5-0.1 1.1-0.4 0.5-0.2 0.9-0.5 0.5-0.4 0.9-0.8z"/>
			</g>
			<g id="Group_33">
				<path id="Path_182" fill-rule="evenodd" class="s1" d="m-0.5 40.9c0.8 6.1 0.4 12.3-1.2 18.2-1.6 6-4.3 11.6-8.1 16.5-3.7 4.9-8.4 9-13.8 12-16.4 9.5-36.9 8.1-52-3.4-15-11.6-21.6-31.1-16.7-49.4 4.9-18.4 20.4-31.9 39.2-34.4 18.9-2.5 37.3 6.7 46.8 23.1 3 5.4 5 11.3 5.8 17.4zm-59-17.8q0.7-0.9 0.9-1.9 0.3-1 0.2-2.1-0.2-1-0.7-2c-1.1-1.8-3.2-2.9-5.3-2.6-2.1 0.3-3.9 1.8-4.5 3.9-0.5 2.1 0.2 4.3 1.9 5.6 1.8 1.3 4.1 1.5 5.9 0.4q1-0.5 1.6-1.3zm49.3 33.1q0-0.4 0-0.8-0.1-0.3-0.1-0.7-0.1-0.4-0.2-0.7 0-0.3-0.1-0.6-0.1-0.3-0.3-0.6-0.1-0.3-0.2-0.6-0.2-0.3-0.4-0.5l-2.8 0.9q0.2 0.5 0.4 1 0.2 0.4 0.4 0.9 0.1 0.5 0.1 1 0.1 0.5 0.1 1 0 0.4-0.1 0.8-0.1 0.4-0.3 0.8-0.2 0.3-0.4 0.6-0.3 0.3-0.6 0.5-0.4 0.3-0.8 0.4-0.5 0.2-0.9 0.3-0.5 0.1-0.9 0.1-0.5 0-0.9-0.1-0.5 0-0.9 0-0.5-0.1-0.9-0.3-0.4-0.1-0.8-0.4-0.4-0.2-0.8-0.5-0.2-0.3-0.4-0.6-0.3-0.4-0.4-0.7-0.1-0.4-0.1-0.8-0.1-0.4 0-0.8 0-0.5 0.2-1 0.1-0.5 0.3-1 0.2-0.4 0.5-0.9 0.3-0.4 0.6-0.8l-2.7-1.4q-0.2 0.2-0.4 0.5-0.2 0.2-0.4 0.5-0.1 0.3-0.3 0.6-0.1 0.2-0.2 0.5-0.2 0.4-0.3 0.7-0.1 0.4-0.2 0.7-0.1 0.4-0.1 0.7-0.1 0.4-0.1 0.7-0.1 0.6-0.1 1.1 0.1 0.5 0.1 1 0.1 0.5 0.2 1 0.2 0.5 0.4 0.9-0.1-0.1-0.3-0.2-0.3-0.3-0.7-0.6-0.4-0.3-0.8-0.4-0.5-0.2-0.9-0.3-0.5 0-1 0-0.5 0.1-1 0.3-0.6 0.2-1 0.4-0.5 0.3-0.9 0.7-0.4 0.3-0.8 0.8l-5.1 4.7-0.6 0.8-2.8 7.4-2.4-6-3.7 1.4 5.6 14 3.6-1.5-2-5.9 8.2 4 4.2-1.8-9.7-5 1.8-4.7 9.4 8.3 2.8-2.7-4.7-4.2 0.8-0.8q0.2-0.2 0.4-0.4 0.2-0.1 0.4-0.2 0.2 0 0.4-0.1 0.3 0 0.5 0.1l6.2 1.6 2.5-3.5-5.2-1q-0.3-0.1-0.7-0.2-0.3 0-0.7 0-0.3 0.1-0.6 0.2-0.4 0.1-0.7 0.3 0.3-0.3 0.4-0.7 0.2-0.4 0.2-0.7 0.1-0.4 0.1-0.8 0.1-0.4 0-0.8 0-0.1 0-0.2 0-0.1-0.1-0.1 0-0.1 0-0.2 0-0.1-0.1-0.2 0.2 0.2 0.4 0.4 0.1 0.1 0.3 0.3 0.2 0.2 0.4 0.3 0.2 0.1 0.4 0.3 0.9 0.5 1.9 0.8 1 0.3 2.1 0.4 1 0.1 2 0 1.1-0.2 2.1-0.6 0.4-0.2 0.8-0.4 0.4-0.3 0.8-0.6 0.4-0.3 0.7-0.7 0.3-0.3 0.6-0.7 0.3-0.5 0.5-1 0.2-0.4 0.4-0.9 0.1-0.5 0.2-1.1 0.1-0.5 0.2-1 0-0.4 0-0.7z"/>
				<path id="Path_183" class="s1" d="m-29.1 61.7q-0.2 0.1-0.4 0.2-0.2 0.1-0.4 0.2-0.2 0.1-0.4 0.3-0.2 0.2-0.3 0.4l-1.9 1.9 2.5 2.4 1.9-2q0.2-0.1 0.3-0.3 0.2-0.2 0.3-0.4 0.2-0.2 0.2-0.4 0.1-0.3 0.2-0.5 0-0.2 0-0.4 0-0.1-0.1-0.3-0.1-0.2-0.2-0.3-0.1-0.2-0.3-0.3-0.1-0.1-0.3-0.3-0.1-0.1-0.3-0.1-0.2-0.1-0.4-0.1-0.2 0-0.4 0z"/>
			</g>
		</g>
	</g>
</svg>