<svg version="1.2" xmlns="http://www.w3.org/2000/svg" viewBox="0 0 93 91" width="93" height="91">
	<title>Artwork 7-svg</title>
	<style>
		.s0 { fill: #4b1344 } 
	</style>
	<g id="Artwork_7">
		<g id="Group_34">
			<g id="Group_33">
				<path id="Path_182" fill-rule="evenodd" class="s0" d="m90.5 39.6c0.8 5.9 0.4 11.9-1.2 17.7-1.5 5.7-4.2 11.1-7.8 15.9-3.7 4.7-8.2 8.7-13.4 11.6-15.9 9.2-35.8 7.9-50.3-3.3-14.6-11.2-21-30.1-16.2-47.8 4.7-17.8 19.7-30.9 38-33.3 18.2-2.4 36.1 6.4 45.2 22.4 3 5.1 4.9 10.8 5.7 16.8zm-57.2-17.3q0.7-0.8 0.9-1.8 0.3-1 0.2-2-0.2-1-0.7-1.9c-1-1.8-3.1-2.8-5.1-2.5-2.1 0.2-3.8 1.7-4.3 3.7-0.6 2.1 0.2 4.2 1.8 5.5 1.7 1.2 3.9 1.4 5.7 0.3q0.9-0.5 1.5-1.3zm47.8 32.1q0-0.4 0-0.7-0.1-0.4-0.1-0.7-0.1-0.4-0.2-0.7 0-0.3-0.1-0.6-0.1-0.3-0.2-0.6-0.2-0.3-0.3-0.6-0.2-0.2-0.3-0.5l-2.8 1q0.2 0.4 0.4 0.8 0.2 0.5 0.4 1 0.1 0.5 0.1 0.9 0.1 0.5 0 1 0 0.4-0.1 0.8 0 0.4-0.2 0.7-0.2 0.3-0.4 0.6-0.3 0.3-0.6 0.6-0.4 0.2-0.8 0.3-0.4 0.2-0.8 0.3-0.5 0.1-0.9 0.1-0.5 0-0.9-0.1-0.4 0-0.9-0.1-0.4 0-0.8-0.2-0.4-0.1-0.8-0.4-0.4-0.2-0.7-0.5-0.3-0.2-0.5-0.6-0.2-0.3-0.3-0.7-0.1-0.3-0.2-0.7 0-0.4 0.1-0.8 0-0.5 0.1-0.9 0.2-0.5 0.4-1 0.2-0.4 0.4-0.8 0.3-0.5 0.6-0.8l-2.6-1.4q-0.2 0.2-0.4 0.4-0.2 0.3-0.3 0.5-0.2 0.3-0.3 0.6-0.2 0.3-0.3 0.6-0.1 0.3-0.2 0.6-0.1 0.3-0.2 0.7-0.1 0.3-0.2 0.7 0 0.3 0 0.7-0.1 0.5-0.1 1 0 0.4 0.1 0.9 0.1 0.5 0.2 1 0.1 0.5 0.3 0.9-0.1-0.1-0.2-0.2-0.3-0.3-0.7-0.6-0.4-0.2-0.8-0.4-0.4-0.2-0.9-0.2-0.5-0.1-0.9-0.1-0.5 0.1-1 0.3-0.5 0.2-1 0.5-0.4 0.2-0.8 0.6-0.4 0.3-0.8 0.7l-4.9 4.6-0.6 0.8-2.8 7.1-2.3-5.8-3.5 1.4 5.4 13.6 3.5-1.5-1.9-5.7 7.8 3.9 4.1-1.8-9.4-4.8 1.7-4.6 9.2 8.1 2.6-2.6-4.4-4.1 0.7-0.8q0.2-0.2 0.4-0.3 0.2-0.2 0.4-0.2 0.2-0.1 0.4-0.1 0.2 0 0.5 0l6 1.6 2.3-3.4-5-1q-0.3-0.1-0.6-0.1-0.3-0.1-0.7 0-0.3 0-0.6 0.1-0.3 0.2-0.6 0.3 0.2-0.3 0.3-0.6 0.2-0.4 0.2-0.8 0.1-0.3 0.1-0.7 0.1-0.4 0-0.8 0-0.1 0-0.1 0-0.1-0.1-0.2 0-0.1 0-0.2 0-0.1 0-0.1 0.1 0.1 0.3 0.3 0.1 0.2 0.3 0.3 0.2 0.2 0.4 0.3 0.2 0.2 0.4 0.3 0.8 0.5 1.8 0.8 1 0.3 2 0.4 1 0.1 2-0.1 1-0.1 2-0.5 0.4-0.2 0.8-0.4 0.4-0.3 0.8-0.6 0.3-0.3 0.6-0.6 0.3-0.4 0.6-0.8 0.3-0.4 0.5-0.9 0.2-0.4 0.4-0.9 0.1-0.5 0.2-1 0.1-0.5 0.1-1 0.1-0.4 0.1-0.7z"/>
				<path id="Path_183" class="s0" d="m62.8 59.7q-0.2 0.1-0.4 0.2-0.2 0.1-0.4 0.2-0.2 0.1-0.4 0.3-0.2 0.2-0.3 0.4l-1.8 1.9 2.5 2.3 1.8-1.9q0.1-0.2 0.3-0.4 0.1-0.2 0.3-0.4 0.1-0.2 0.2-0.4 0.1-0.2 0.1-0.4 0-0.2 0-0.4 0-0.2-0.1-0.3-0.1-0.2-0.2-0.3-0.1-0.2-0.2-0.3-0.2-0.1-0.3-0.2-0.2-0.1-0.3-0.2-0.2-0.1-0.4-0.1-0.2 0-0.4 0z"/>
			</g>
		</g>
	</g>
</svg>