<svg version="1.2" xmlns="http://www.w3.org/2000/svg" viewBox="0 0 172 105" width="172" height="105">
	<title>footerLogo-svg</title>
	<style>
		.s0 { fill: #ffffff } 
	</style>
	<g id="Artwork_1">
		<g id="Group_62">
			<g id="Group_60">
				<path id="Path_336" class="s0" d="m15.4 19.1q0.3 0 0.6 0 0.2-0.1 0.5-0.1 0.3 0 0.5-0.1 0.3 0 0.6-0.1c-0.2 1.4-0.4 4.3-0.4 7.8 0 2.7 0.1 4.9 0.1 5.3q0.6-0.5 1.3-1 0.6-0.6 1.2-1.1 0.7-0.6 1.3-1.1 0.6-0.6 1.2-1.2c2.4-2.4 7.1-7.3 7.9-8.7q0.3 0.1 0.6 0.1 0.2 0.1 0.5 0.1 0.3 0 0.5 0 0.3 0.1 0.6 0.1 0.2 0 0.4-0.1 0.2 0 0.5 0 0.2 0 0.4-0.1 0.3 0 0.5-0.1l0.1 0.3c-0.9 0.6-3.2 2.8-7.2 6.6-4 3.7-5.9 5.6-6 5.6 3.6 4.1 12.4 14 13.2 14.7v0.9q-0.3 0-0.7-0.1-0.3 0-0.6-0.1-0.3 0-0.6 0-0.4 0-0.7 0-0.4 0-0.7 0-0.4 0-0.7 0.1-0.4 0-0.8 0-0.3 0.1-0.7 0.1c-2-3.4-7-8.9-11.4-13.8l-0.2 0.2v5.1c0 2.6 0.1 5.7 0.4 8.5q-0.3 0-0.6-0.1-0.3 0-0.6-0.1-0.3 0-0.5 0-0.3 0-0.6 0-0.3 0-0.6 0-0.3 0-0.6 0.1-0.3 0-0.6 0-0.3 0.1-0.6 0.1c0.4-7.2 0.5-8.3 0.5-13.9 0-7.3 0-8.1-0.4-14.2q0.3 0.1 0.6 0.1 0.3 0.1 0.6 0.1 0.3 0 0.6 0 0.3 0.1 0.6 0.1z"/>
				<path id="Path_337" fill-rule="evenodd" class="s0" d="m53.1 36.5v0.6h-14.7v0.1c0 3.3 0.7 4.7 1.8 6.1q0.4 0.5 1 1 0.6 0.4 1.2 0.7 0.7 0.3 1.4 0.5 0.7 0.1 1.4 0.1 1 0 1.9-0.2 0.9-0.2 1.8-0.7 0.8-0.4 1.6-1 0.7-0.7 1.2-1.4l0.5 0.1q-0.1 0.3-0.1 0.6 0 0.3-0.1 0.6 0 0.3 0 0.6-0.1 0.3-0.1 0.6c-1.8 1.8-4.3 2.7-7.6 2.7-6.2 0-9.9-3.9-9.9-10.2 0-6.2 3.6-10.3 9.7-10.3 5.7 0 9 3 9 9.5zm-4.1-1.1c0-4.5-1.7-6.8-5-6.8-3.1 0-5 2.1-5.5 6.8z"/>
				<path id="Path_338" class="s0" d="m56.2 27.3q0.3 0.1 0.6 0 0.2 0 0.5 0 0.3 0 0.6-0.1 0.2 0 0.5-0.1c3 8.6 5.1 13.7 5.3 14.1 0.4 0.5 0.4 0.8 0.7 0.8q0.1-0.1 0.2-0.2 0-0.1 0.1-0.2 0.1-0.2 0.1-0.3 0.1-0.1 0.1-0.2 0.8-1.7 1.5-3.4 0.7-1.8 1.4-3.5 0.6-1.8 1.2-3.5 0.6-1.8 1.1-3.6 0.3 0.1 0.5 0.1 0.2 0.1 0.4 0.1 0.3 0 0.5 0 0.2 0.1 0.4 0 0.3 0.1 0.5 0 0.2 0 0.4 0 0.2 0 0.4-0.1 0.2-0.1 0.4-0.1-0.4 0.6-0.8 1.3-0.3 0.7-0.7 1.4-0.3 0.7-0.6 1.4-0.4 0.7-0.7 1.4c-3.5 7.6-8.5 17.9-10.4 24.8q-0.2-0.1-0.4-0.1-0.2-0.1-0.3-0.1-0.2-0.1-0.4-0.1-0.2 0-0.4 0-0.2 0-0.4 0-0.3 0.1-0.5 0.1-0.2 0-0.4 0.1-0.3 0-0.5 0.1c2.2-4 3.7-6.9 5.2-9.9-4.6-11.1-6.5-15.8-8.7-20.4q0.4 0.1 0.7 0.1 0.3 0.1 0.6 0.1 0.3 0 0.7 0 0.3 0.1 0.6 0z"/>
				<path id="Path_339" fill-rule="evenodd" class="s0" d="m88.2 19c1.5 0 2.9-0.1 4.3-0.1 3.3 0 5 0.3 6.1 0.7q0.9 0.4 1.7 0.9 0.7 0.6 1.2 1.4 0.6 0.8 0.8 1.7 0.2 1 0.2 1.9c0 4-2.5 6.4-8 7.3 0.5 0.8 10.5 13.6 10.5 13.6v0.5q-0.3 0-0.6-0.1-0.3 0-0.6 0-0.3-0.1-0.6-0.1-0.3 0-0.6 0-0.4 0-0.7 0-0.4 0-0.8 0.1-0.3 0-0.7 0-0.4 0.1-0.7 0.1-1.2-1.8-2.3-3.5-1.2-1.8-2.5-3.5-1.2-1.7-2.5-3.3-1.4-1.7-2.7-3.3h-1.1c0 0 0.1 11.1 0.3 13.6q-0.3 0-0.6-0.1-0.3 0-0.6 0-0.3-0.1-0.6-0.1-0.3 0-0.6 0-0.2 0-0.5 0-0.3 0-0.6 0-0.2 0.1-0.5 0.1-0.3 0.1-0.5 0.1c0.2-4.8 0.3-9.6 0.3-15.4 0-3.7-0.1-7.2-0.3-12.7q0.5 0.1 1 0.1 0.4 0 0.9 0 0.5 0.1 1 0.1 0.5 0 0.9 0zm0.4 4.9c0 5.9 0 6.9 0 8 0.4 0 1.1 0.1 1.2 0.1 3.5 0 5.5-0.7 6.6-1.8q0.5-0.4 0.8-0.8 0.4-0.5 0.6-1.1 0.3-0.5 0.4-1.1 0.1-0.6 0-1.2c0-3.6-2.1-5.4-7-5.4q-0.3 0-0.7 0-0.3 0-0.6 0.1-0.3 0-0.6 0-0.3 0.1-0.7 0.1 0 1.8 0 3.1z"/>
				<path id="Path_340" class="s0" d="m112 20.6q0 0.4-0.2 0.8-0.2 0.5-0.5 0.8-0.3 0.3-0.7 0.4-0.4 0.2-0.9 0.2-0.4 0-0.8-0.2-0.4-0.1-0.7-0.4-0.3-0.4-0.5-0.8-0.2-0.4-0.2-0.8c0-0.6 0.3-1.1 0.7-1.6 0.4-0.4 1-0.6 1.5-0.6 0.6 0 1.2 0.2 1.6 0.6 0.4 0.5 0.7 1 0.7 1.6zm-2.4 6.9q0.2 0 0.5 0 0.3 0 0.5 0 0.3-0.1 0.6-0.1 0.2-0.1 0.5-0.1c-0.3 4.4-0.3 6.8-0.3 10.7 0 2.4 0.2 5.2 0.3 8.9q-0.2 0-0.5-0.1-0.2 0-0.5-0.1-0.2 0-0.5 0-0.2 0-0.5 0-0.2 0-0.5 0-0.3 0-0.5 0-0.3 0.1-0.6 0.1-0.2 0.1-0.5 0.1c0.2-3.5 0.3-7.3 0.3-10.3 0-3.9-0.1-6.4-0.3-9.3q0.2 0 0.5 0.1 0.2 0 0.5 0.1 0.2 0 0.5 0 0.2 0 0.5 0z"/>
				<path id="Path_341" class="s0" d="m135.2 33.9c0 0.9-0.2 8.7-0.2 8.8 0 3.4 0.2 4 0.2 4.2q-0.3 0-0.6-0.1-0.2 0-0.5-0.1-0.2 0-0.5 0-0.3 0-0.5 0-0.3 0-0.6 0-0.2 0-0.5 0-0.3 0.1-0.5 0.1-0.3 0.1-0.6 0.1c0.3-3.4 0.4-8 0.4-10.5 0-4.8-1.4-6.9-4.7-6.9q-0.8-0.1-1.6 0.1-0.7 0.2-1.4 0.6-0.6 0.4-1.1 1-0.5 0.6-0.9 1.3c-0.4 0.9-0.6 3.4-0.6 7.7 0 2.5 0.1 4.7 0.3 6.7q-0.3 0-0.5-0.1-0.3 0-0.6 0-0.2-0.1-0.5-0.1-0.3 0-0.6 0-0.2 0-0.5 0-0.3 0-0.6 0-0.2 0.1-0.5 0.1-0.3 0.1-0.5 0.1c0.3-3.6 0.4-5.9 0.4-11 0-2.4-0.1-5.4-0.2-8.8q0.2 0.1 0.5 0.1 0.2 0.1 0.5 0.1 0.2 0 0.5 0 0.3 0 0.5 0.1 0.3-0.1 0.5-0.1 0.3 0 0.5 0 0.3 0 0.5-0.1 0.3 0 0.5-0.1l-0.2 3.9q0.5-1 1.3-1.7 0.8-0.8 1.7-1.3 1-0.6 2-0.8 1.1-0.3 2.2-0.2c4.4 0 7 2.1 7 6.9z"/>
				<path id="Path_342" fill-rule="evenodd" class="s0" d="m154.5 27.5c1.5 0 3.2-0.1 3.7-0.2q0 0.2 0 0.3 0 0.1 0 0.3-0.1 0.1-0.1 0.2 0 0.1 0 0.3 0 0.1 0 0.2 0 0.2 0.1 0.3 0 0.1 0 0.3 0 0.1 0 0.2c-0.5 0-1.9-0.1-2.4-0.1h-1.3q0.4 0.4 0.7 0.8 0.4 0.5 0.6 1 0.2 0.5 0.3 1 0.1 0.6 0.1 1.1c0 4.2-3.4 6.7-8.2 6.7-0.5 0-2.5-0.2-2.9-0.2q-0.4 0.1-0.7 0.2-0.3 0.2-0.6 0.4-0.2 0.3-0.4 0.7-0.1 0.3-0.1 0.7c0 1.4 0.8 2.1 4.7 2.1 0.9 0 2.1 0 3 0 2.3 0 4.2 0.5 5.5 1.5q0.4 0.4 0.7 0.8 0.4 0.5 0.6 1 0.2 0.5 0.3 1.1 0.1 0.6 0.1 1.1-0.1 1.1-0.4 2.1-0.2 1-0.8 1.9-0.5 0.9-1.2 1.6-0.7 0.8-1.6 1.3-0.8 0.5-1.6 0.8-0.8 0.4-1.7 0.6-0.8 0.2-1.7 0.3-0.9 0.1-1.8 0c-5.6 0-8.6-2.6-8.6-6.1 0-2.3 1.4-4.1 4.5-5.2-2-0.6-3.1-1.6-3.1-3.4q0.1-0.7 0.3-1.4 0.3-0.6 0.7-1.2 0.5-0.5 1.1-0.9 0.6-0.3 1.2-0.5-0.8-0.3-1.6-0.8-0.8-0.6-1.3-1.4-0.5-0.7-0.8-1.6-0.3-0.9-0.2-1.9c0-4 3.3-6.6 8-6.6 3 0 3.3 0.6 6.9 0.6zm-6.2 28.8c4 0 6.5-2.2 6.5-5.1 0-2.9-2.4-4.4-6.6-4.4-4.1 0-6.4 1.7-6.4 4.6 0 2.9 2.5 4.9 6.5 4.9zm-0.5-17.8c2.9 0 4.5-2.1 4.5-5.3 0-3.1-1.8-4.9-4.4-4.9-2.8 0-4.4 1.9-4.4 5.4 0 3 1.6 4.8 4.3 4.8z"/>
				<path id="Path_343" class="s0" d="m17.1 82.4q-0.7-0.4-1.4-0.9-0.6-0.5-1.1-1.1-0.5-0.6-1-1.3-0.4-0.7-0.8-1.4-0.7-1.8-1.1-3.6-0.3-1.8-0.4-3.7 0.1-1.9 0.4-3.7 0.4-1.9 1.1-3.6 0.4-0.8 0.8-1.4 0.5-0.7 1-1.3 0.5-0.6 1.1-1.1 0.7-0.5 1.4-0.9 0.7-0.5 1.5-0.8 0.8-0.3 1.6-0.5 0.8-0.2 1.6-0.3 0.9-0.1 1.7-0.1 0.7 0 1.3 0.1 0.7 0 1.3 0.1 0.7 0.1 1.3 0.3 0.6 0.2 1.2 0.4 0.6 0.2 1.1 0.5 0.6 0.3 1.1 0.6 0.5 0.3 1 0.7 0.4 0.4 0.9 0.8l-1 1.9q-0.4-0.4-0.9-0.8-0.4-0.3-0.9-0.7-0.5-0.3-1-0.5-0.5-0.3-1.1-0.5-0.5-0.2-1-0.4-0.5-0.1-1.1-0.2-0.5-0.1-1-0.2-0.6 0-1.1 0-1.1 0-2.1 0.1-1 0.2-1.9 0.6-0.9 0.4-1.8 1-0.8 0.6-1.4 1.3-2.6 3.1-2.6 8.6 0 5.5 2.5 8.6 0.7 0.7 1.5 1.3 0.9 0.6 1.8 1 0.9 0.4 1.9 0.6 1 0.1 2.1 0.1 0.5 0 1.1 0 0.5-0.1 1-0.2 0.6-0.1 1.1-0.2 0.5-0.2 1-0.4 0.6-0.2 1.1-0.5 0.5-0.2 1-0.5 0.5-0.4 0.9-0.7 0.5-0.4 0.9-0.8l1 1.9q-0.5 0.4-0.9 0.8-0.5 0.4-1 0.7-0.5 0.3-1.1 0.6-0.5 0.3-1.1 0.5-0.6 0.2-1.2 0.4-0.6 0.2-1.3 0.3-0.6 0.1-1.3 0.1-0.6 0.1-1.3 0.1-0.8 0-1.7-0.1-0.8-0.1-1.6-0.3-0.8-0.2-1.6-0.5-0.8-0.4-1.5-0.8z"/>
				<path id="Path_344" fill-rule="evenodd" class="s0" d="m39.2 83.1q-0.5-0.3-1-0.7-0.4-0.3-0.8-0.8-0.4-0.4-0.7-0.9-0.3-0.4-0.5-1-0.6-1.1-0.8-2.4-0.3-1.3-0.3-2.6 0-1.3 0.3-2.6 0.2-1.2 0.8-2.4 0.2-0.6 0.5-1 0.3-0.5 0.7-0.9 0.4-0.4 0.8-0.8 0.5-0.4 1-0.7 1-0.6 2.1-0.9 1.1-0.3 2.3-0.3 1.2 0 2.3 0.3 1.2 0.3 2.2 0.9 0.5 0.3 0.9 0.7 0.4 0.3 0.8 0.8 0.4 0.4 0.7 0.9 0.3 0.4 0.6 1 0.5 1.2 0.7 2.4 0.3 1.3 0.3 2.6 0 1.3-0.3 2.6-0.2 1.3-0.7 2.4-0.3 0.6-0.6 1-0.3 0.5-0.7 0.9-0.4 0.5-0.8 0.8-0.4 0.4-0.9 0.7-1 0.6-2.2 0.9-1.1 0.3-2.3 0.3-1.2 0-2.3-0.3-1.1-0.3-2.1-0.9zm8.9-3.1q0.8-1.2 1.2-2.6 0.4-1.4 0.4-2.9 0-1.5-0.4-2.9-0.4-1.4-1.2-2.7-0.9-0.9-2-1.5-1.2-0.5-2.5-0.5-1.3 0-2.4 0.5-1.2 0.6-2.1 1.5-0.7 1.3-1.2 2.7-0.4 1.4-0.4 2.9 0 1.5 0.4 2.9 0.4 1.4 1.2 2.6 0.4 0.5 0.9 0.9 0.5 0.4 1.1 0.6 0.6 0.3 1.2 0.4 0.6 0.1 1.3 0.1 0.6 0 1.3-0.1 0.6-0.1 1.2-0.4 0.6-0.2 1.1-0.6 0.5-0.4 0.9-0.9z"/>
				<path id="Path_345" class="s0" d="m70.1 72.3v11.7h-2.3v-11.6q0-0.5 0-1-0.1-0.5-0.2-1.1-0.2-0.5-0.4-0.9-0.2-0.5-0.5-0.9-0.4-0.4-0.8-0.6-0.4-0.3-0.8-0.5-0.5-0.1-1-0.2-0.4 0-0.9 0-0.6 0-1.2 0.1-0.6 0.1-1.2 0.3-0.6 0.2-1.1 0.5-0.5 0.3-0.9 0.8-0.4 0.4-0.8 0.9-0.3 0.6-0.5 1.1-0.2 0.6-0.3 1.2-0.1 0.6-0.1 1.2v10.7h-2.3v-18.4h2.3v3.1q0.2-0.4 0.5-0.8 0.2-0.3 0.5-0.7 0.4-0.3 0.7-0.6 0.4-0.3 0.8-0.5 0.4-0.3 0.9-0.4 0.5-0.2 1-0.3 0.4-0.2 0.9-0.2 0.5-0.1 1-0.1 6.7 0 6.7 7.2z"/>
				<path id="Path_346" class="s0" d="m73 81.8l0.9-1.8q0.3 0.3 0.7 0.5 0.3 0.3 0.7 0.5 0.4 0.2 0.8 0.4 0.4 0.2 0.8 0.3 0.4 0.2 0.8 0.3 0.4 0.1 0.9 0.1 0.4 0.1 0.8 0.1 0.5 0.1 0.9 0.1 0.4 0 0.9-0.1 0.4 0 0.9-0.1 0.4-0.1 0.8-0.3 0.4-0.1 0.8-0.3 0.5-0.4 0.8-0.9 0.4-0.5 0.4-1.1 0.1-0.7-0.1-1.2-0.2-0.6-0.7-1-0.2-0.3-0.5-0.4-0.3-0.2-0.7-0.4-0.3-0.1-0.6-0.2-0.4-0.1-0.7-0.2l-3.1-0.7q-0.5-0.1-1-0.2-0.5-0.2-0.9-0.4-0.5-0.3-0.9-0.6-0.4-0.3-0.8-0.6-0.3-0.3-0.5-0.7-0.2-0.3-0.4-0.7-0.2-0.4-0.3-0.9 0-0.4 0-0.8 0-0.6 0.1-1.1 0.1-0.6 0.3-1.1 0.3-0.5 0.6-0.9 0.4-0.4 0.8-0.8 0.6-0.4 1.2-0.7 0.6-0.3 1.2-0.4 0.6-0.2 1.3-0.3 0.7-0.1 1.3-0.1 0.5 0 0.9 0.1 0.5 0 1 0.1 0.4 0.1 0.9 0.2 0.4 0.1 0.8 0.3 0.4 0.1 0.8 0.3 0.4 0.2 0.8 0.4 0.3 0.2 0.6 0.5 0.4 0.3 0.6 0.6l-0.8 1.8q-0.3-0.3-0.6-0.5-0.3-0.3-0.7-0.5-0.3-0.2-0.7-0.4-0.3-0.2-0.7-0.3-0.3-0.2-0.7-0.3-0.3-0.1-0.7-0.1-0.4-0.1-0.7-0.1-0.4-0.1-0.8 0-0.4-0.1-0.8 0-0.5 0-0.9 0.1-0.4 0.1-0.8 0.3-0.4 0.2-0.8 0.4-0.5 0.4-0.8 0.9-0.3 0.5-0.3 1.1-0.1 0.7 0.1 1.2 0.2 0.6 0.6 1.1 0.2 0.2 0.5 0.4 0.3 0.2 0.6 0.3 0.3 0.2 0.6 0.3 0.3 0.1 0.6 0.1l3.2 0.8q5 1.1 5 4.9 0 0.6-0.1 1.1-0.1 0.5-0.4 1-0.2 0.5-0.6 0.9-0.4 0.4-0.8 0.8-0.6 0.3-1.2 0.6-0.7 0.3-1.3 0.5-0.7 0.2-1.4 0.2-0.6 0.1-1.3 0.1-1 0-2-0.1-0.9-0.2-1.8-0.5-1-0.3-1.8-0.8-0.8-0.5-1.6-1.1z"/>
				<path id="Path_347" class="s0" d="m105.3 65.6v18.4h-2.3v-3.3q-0.2 0.4-0.4 0.8-0.3 0.4-0.6 0.7-0.3 0.4-0.7 0.6-0.4 0.3-0.8 0.6-0.4 0.2-0.8 0.4-0.5 0.1-0.9 0.2-0.5 0.2-1 0.2-0.5 0.1-0.9 0.1-0.7 0-1.4-0.1-0.7-0.1-1.3-0.3-0.6-0.2-1.2-0.6-0.6-0.4-1.1-0.8-0.4-0.6-0.7-1.2-0.4-0.7-0.6-1.3-0.2-0.7-0.3-1.4-0.1-0.7 0-1.5v-11.5h2.3v11.4q0 0.5 0 1 0.1 0.5 0.2 1.1 0.1 0.5 0.4 0.9 0.2 0.5 0.5 0.9 0.3 0.4 0.7 0.6 0.4 0.3 0.9 0.5 0.4 0.1 0.9 0.2 0.4 0.1 0.9 0 0.6 0 1.2-0.1 0.6-0.1 1.1-0.3 0.6-0.2 1.1-0.5 0.5-0.4 0.9-0.8 0.4-0.4 0.7-1 0.3-0.5 0.5-1.1 0.2-0.5 0.3-1.1 0.1-0.7 0.1-1.3v-10.4z"/>
				<path id="Path_348" class="s0" d="m109.7 57.3h2.3v26.7h-2.3z"/>
				<path id="Path_349" class="s0" d="m126.2 82.2l-0.1 1.9q-0.3 0-0.5 0.1-0.2 0-0.4 0-0.3 0-0.5 0-0.2 0-0.4 0-0.7 0.1-1.3 0-0.7-0.1-1.3-0.3-0.6-0.2-1.1-0.6-0.6-0.3-1-0.8-0.5-0.4-0.8-1-0.3-0.5-0.5-1.1-0.2-0.6-0.3-1.2-0.1-0.6 0-1.3v-10.4h-3.7v-1.9h3.7v-5.7h2.3v5.7h5.4v1.9h-5.4v10.1q-0.1 0.5 0 1 0.1 0.4 0.2 0.9 0.1 0.4 0.3 0.8 0.3 0.4 0.6 0.8 0.3 0.3 0.6 0.6 0.4 0.2 0.8 0.3 0.4 0.2 0.9 0.3 0.4 0 0.8 0 0.2 0 0.4 0 0.3 0 0.5 0 0.2-0.1 0.4-0.1 0.2 0 0.4 0z"/>
				<path id="Path_350" class="s0" d="m128.9 57.9h3.3v3.1h-3.3zm0.5 26.1v-18.4h2.3v18.4z"/>
				<path id="Path_351" class="s0" d="m151.6 72.3v11.7h-2.3v-11.6q0-0.5-0.1-1 0-0.5-0.1-1.1-0.2-0.5-0.4-0.9-0.2-0.5-0.6-0.9-0.3-0.4-0.7-0.6-0.4-0.3-0.9-0.5-0.4-0.1-0.9-0.2-0.5 0-1 0-0.6 0-1.2 0.1-0.6 0.1-1.1 0.3-0.6 0.2-1.1 0.5-0.5 0.3-0.9 0.8-0.5 0.4-0.8 0.9-0.3 0.6-0.5 1.1-0.2 0.6-0.3 1.2-0.1 0.6-0.1 1.2v10.7h-2.3v-18.4h2.3v3.1q0.2-0.4 0.4-0.8 0.3-0.3 0.6-0.7 0.3-0.3 0.7-0.6 0.4-0.3 0.8-0.5 0.4-0.3 0.9-0.4 0.5-0.2 0.9-0.3 0.5-0.2 1-0.2 0.5-0.1 1-0.1 6.7 0 6.7 7.2z"/>
				<path id="Path_352" fill-rule="evenodd" class="s0" d="m172 65.6v17.3q0 4.1-2 6.1-2 2.1-5.9 2.1-1.1 0-2.2-0.1-1-0.2-2.1-0.5-1-0.3-1.9-0.8-1-0.5-1.8-1.2l0.9-1.8q0.4 0.3 0.8 0.6 0.4 0.2 0.8 0.5 0.5 0.2 0.9 0.4 0.5 0.2 0.9 0.3 0.5 0.2 0.9 0.3 0.5 0.1 0.9 0.1 0.5 0.1 1 0.1 0.4 0 0.9 0 0.6 0.1 1.1 0 0.6-0.1 1.1-0.3 0.6-0.2 1.1-0.5 0.5-0.2 0.9-0.6 0.4-0.5 0.6-1 0.3-0.5 0.5-1.1 0.2-0.6 0.3-1.2 0-0.5 0-1.1v-3.6q-0.2 0.4-0.4 0.8-0.3 0.4-0.6 0.8-0.3 0.3-0.7 0.7-0.4 0.3-0.8 0.5-0.4 0.3-0.9 0.5-0.5 0.2-1 0.3-0.5 0.1-1 0.2-0.6 0-1.1 0-0.6 0-1.1 0-0.6-0.1-1.1-0.2-0.6-0.2-1.1-0.4-0.5-0.2-1-0.5-0.5-0.3-0.9-0.7-0.4-0.3-0.8-0.7-0.4-0.4-0.7-0.9-0.3-0.4-0.5-0.9-0.5-1.2-0.8-2.4-0.3-1.2-0.3-2.4 0-1.2 0.3-2.5 0.3-1.2 0.8-2.3 0.2-0.5 0.5-0.9 0.3-0.5 0.7-0.9 0.4-0.4 0.8-0.8 0.4-0.3 0.9-0.6 0.5-0.3 1-0.5 0.5-0.2 1.1-0.4 0.5-0.1 1.1-0.2 0.5-0.1 1.1 0 0.5-0.1 1 0 0.6 0 1.1 0.2 0.5 0.1 0.9 0.3 0.5 0.2 1 0.4 0.4 0.3 0.8 0.6 0.3 0.3 0.6 0.6 0.4 0.4 0.6 0.8 0.3 0.4 0.4 0.8v-3.3zm-3.9 13.9q0.8-1.2 1.2-2.5 0.4-1.3 0.4-2.7 0-1.4-0.4-2.7-0.4-1.4-1.2-2.5-0.4-0.5-0.9-0.9-0.6-0.3-1.1-0.6-0.6-0.2-1.2-0.4-0.7-0.1-1.3 0-0.6-0.1-1.3 0-0.6 0.1-1.2 0.4-0.6 0.2-1.1 0.6-0.5 0.4-0.9 0.9-0.8 1.1-1.2 2.4-0.5 1.4-0.5 2.8 0 1.4 0.5 2.7 0.4 1.4 1.2 2.5 0.4 0.5 0.9 0.8 0.5 0.4 1.1 0.7 0.6 0.2 1.2 0.3 0.7 0.1 1.3 0.1 0.6 0 1.3-0.1 0.6-0.1 1.2-0.3 0.6-0.3 1.1-0.7 0.5-0.3 0.9-0.8z"/>
			</g>
			<g id="Group_61">
				<path id="Path_353" fill-rule="evenodd" class="s0" d="m-4.9 45.3c0.9 6.8 0.4 13.7-1.4 20.3-1.8 6.6-4.8 12.7-9 18.2-4.2 5.4-9.4 9.9-15.3 13.3-18.3 10.5-41.2 9-57.9-3.8-16.7-12.8-24.1-34.4-18.6-54.8 5.5-20.3 22.7-35.3 43.6-38.1 21-2.7 41.5 7.4 52 25.7 3.5 5.9 5.7 12.4 6.6 19.2zm-65.7-19.7q0.7-1 1-2.1 0.3-1.1 0.2-2.3-0.2-1.2-0.8-2.2c-1.2-2.1-3.5-3.2-5.9-2.9-2.3 0.3-4.3 2-4.9 4.3-0.6 2.3 0.2 4.8 2.1 6.2 1.9 1.5 4.5 1.7 6.6 0.5q1-0.6 1.7-1.5zm54.8 36.6q0-0.4 0-0.8 0-0.4-0.1-0.8-0.1-0.4-0.1-0.7-0.1-0.4-0.2-0.7-0.1-0.4-0.3-0.7-0.1-0.3-0.3-0.6-0.2-0.3-0.4-0.6l-3.2 1.1q0.3 0.4 0.6 1 0.2 0.5 0.3 1 0.2 0.6 0.2 1.1 0.1 0.6 0 1.2 0 0.4-0.1 0.8-0.1 0.5-0.3 0.9-0.2 0.3-0.5 0.7-0.2 0.3-0.6 0.6-0.4 0.2-0.9 0.4-0.5 0.2-1 0.3-0.5 0.1-1 0.1-0.5 0-1-0.1-0.5 0-1-0.1-0.5 0-1-0.2-0.5-0.2-0.9-0.4-0.4-0.3-0.8-0.6-0.3-0.3-0.5-0.7-0.3-0.4-0.4-0.8-0.1-0.4-0.2-0.9 0-0.4 0.1-0.8 0-0.6 0.1-1.1 0.2-0.6 0.4-1.1 0.2-0.5 0.5-1 0.4-0.5 0.7-0.9l-2.9-1.6q-0.3 0.2-0.5 0.5-0.2 0.3-0.4 0.6-0.2 0.3-0.4 0.6-0.1 0.3-0.3 0.7-0.1 0.3-0.2 0.7-0.2 0.4-0.3 0.8-0.1 0.4-0.1 0.8-0.1 0.4-0.1 0.8-0.1 0.5-0.1 1.1 0.1 0.6 0.1 1.1 0.1 0.6 0.3 1.1 0.1 0.6 0.3 1.1-0.1-0.1-0.2-0.2-0.4-0.4-0.8-0.7-0.5-0.3-1-0.5-0.5-0.2-1-0.3-0.5 0-1 0-0.6 0.1-1.2 0.3-0.6 0.2-1.1 0.5-0.5 0.3-1 0.7-0.4 0.4-0.8 0.9l-5.7 5.2-0.7 1-3.2 8.1-2.6-6.6-4.1 1.6 6.2 15.4 4.1-1.6-2.3-6.6 9.1 4.5 4.7-2.1-10.8-5.5 2-5.2 10.5 9.3 3-3.1-5.1-4.6 0.9-0.9q0.2-0.2 0.4-0.4 0.2-0.1 0.4-0.2 0.3-0.1 0.5-0.1 0.3 0 0.5 0l7 1.8 2.7-3.8-5.8-1.2q-0.3-0.1-0.7-0.2-0.4 0-0.8 0-0.4 0.1-0.7 0.2-0.4 0.2-0.7 0.4 0.2-0.4 0.4-0.8 0.1-0.4 0.2-0.8 0.1-0.5 0.2-0.9 0-0.4-0.1-0.9 0-0.1 0-0.2 0-0.1-0.1-0.1 0-0.1 0-0.2 0-0.1-0.1-0.2 0.2 0.2 0.4 0.4 0.2 0.2 0.4 0.3 0.2 0.2 0.4 0.4 0.2 0.1 0.5 0.3 1 0.6 2.1 0.9 1.1 0.4 2.3 0.5 1.1 0 2.3-0.1 1.1-0.2 2.2-0.6 0.5-0.2 1-0.5 0.4-0.3 0.9-0.6 0.4-0.4 0.7-0.8 0.4-0.4 0.7-0.8 0.3-0.5 0.5-1.1 0.3-0.5 0.5-1.1 0.2-0.5 0.3-1.1 0.1-0.6 0.1-1.2 0-0.4 0-0.8z"/>
				<path id="Path_354" class="s0" d="m-36.7 68.4q-0.3 0-0.5 0.2-0.3 0.1-0.5 0.2-0.2 0.2-0.4 0.4-0.2 0.1-0.4 0.4l-2.1 2.2 2.9 2.6 2-2.2q0.2-0.2 0.4-0.4 0.2-0.2 0.3-0.4 0.2-0.2 0.3-0.5 0.1-0.2 0.1-0.5 0.1-0.2 0-0.4 0-0.2-0.1-0.4-0.1-0.2-0.2-0.4-0.1-0.1-0.3-0.3-0.1-0.1-0.3-0.2-0.2-0.2-0.4-0.2-0.2-0.1-0.4-0.1-0.2-0.1-0.4 0z"/>
			</g>
		</g>
	</g>
</svg>