<svg xmlns="http://www.w3.org/2000/svg" width="295.967" height="110.035" viewBox="0 0 295.967 110.035">
  <g id="Artwork_1" data-name="Artwork 1" transform="translate(147.984 55.018)">
    <g id="Group_62" data-name="Group 62" transform="translate(-147.984 -55.018)">
      <g id="Group_60" data-name="Group 60" transform="translate(126.713 19.418)">
        <path id="Path_336" data-name="Path 336" d="M494.688,76.522a8.508,8.508,0,0,0,2.234-.258c-.129,1.5-.344,4.554-.344,8.248,0,2.836.043,5.2.043,5.585a63.131,63.131,0,0,0,5.285-4.64c2.534-2.535,7.517-7.732,8.376-9.193a10.811,10.811,0,0,0,2.234.258,8.888,8.888,0,0,0,1.933-.258l.086.258c-.945.687-3.393,3.05-7.6,7-4.124,3.909-6.186,5.971-6.229,5.971,3.694,4.3,13.016,14.778,13.832,15.508v.988a12.959,12.959,0,0,0-2.706-.258,21.851,21.851,0,0,0-3.05.258c-2.105-3.651-7.389-9.494-12.071-14.606l-.129.172v5.456c0,2.663.086,5.971.344,8.978a10.068,10.068,0,0,0-2.406-.258,12.8,12.8,0,0,0-2.534.258c.473-7.6.515-8.806.515-14.778,0-7.689,0-8.548-.387-14.949A12.192,12.192,0,0,0,494.688,76.522Z" transform="translate(-490.381 -75.792)" fill="#fff"/>
        <path id="Path_337" data-name="Path 337" d="M598.495,119.466v.558H583.073v.172c0,3.479.687,4.94,1.847,6.4A6.378,6.378,0,0,0,590.247,129a7.987,7.987,0,0,0,6.83-3.479l.516.129a16.861,16.861,0,0,0-.3,2.578c-1.89,1.847-4.6,2.792-7.99,2.792-6.53,0-10.525-4.081-10.525-10.739,0-6.573,3.823-10.912,10.31-10.912C595.058,109.371,598.495,112.593,598.495,119.466Zm-4.3-1.246c0-4.682-1.761-7.131-5.2-7.131-3.265,0-5.369,2.19-5.885,7.131Z" transform="translate(-554.539 -100.264)" fill="#fff"/>
        <path id="Path_338" data-name="Path 338" d="M659.384,110a7.837,7.837,0,0,0,2.32-.257c3.179,9.064,5.412,14.477,5.627,14.863.344.6.387.859.688.859a2.821,2.821,0,0,0,.558-.945,108.436,108.436,0,0,0,5.5-14.777,6.089,6.089,0,0,0,1.89.257,4.181,4.181,0,0,0,1.761-.3,46.9,46.9,0,0,0-2.921,5.842c-3.694,8.033-8.978,18.9-11.04,26.2a3.5,3.5,0,0,0-1.5-.258,8.269,8.269,0,0,0-1.933.258c2.277-4.253,3.866-7.217,5.455-10.482-4.854-11.727-6.787-16.668-9.107-21.522A11.038,11.038,0,0,0,659.384,110Z" transform="translate(-612.122 -100.508)" fill="#fff"/>
        <path id="Path_339" data-name="Path 339" d="M784.942,76.436c1.5,0,3.007-.043,4.511-.043,3.437,0,5.241.257,6.444.73a6.136,6.136,0,0,1,4.038,6.229c0,4.167-2.578,6.788-8.42,7.69.558.816,11.083,14.434,11.083,14.434v.515a15.822,15.822,0,0,0-2.535-.258,27.781,27.781,0,0,0-3.093.258A119.732,119.732,0,0,0,786.446,91.6h-1.117s.129,11.727.3,14.391a12.922,12.922,0,0,0-2.492-.258,8.746,8.746,0,0,0-2.277.258c.215-5.112.3-10.138.3-16.281,0-3.952-.086-7.6-.258-13.446A39.741,39.741,0,0,0,784.942,76.436Zm.344,5.2c0,6.272.043,7.346.043,8.463.386.043,1.16.086,1.289.086,3.608,0,5.714-.773,6.959-1.847a5.485,5.485,0,0,0,1.89-4.51c0-3.737-2.277-5.67-7.432-5.67a17.907,17.907,0,0,0-2.664.215C785.329,79.658,785.286,80.732,785.286,81.634Z" transform="translate(-703.917 -75.792)" fill="#fff"/>
        <path id="Path_340" data-name="Path 340" d="M879.09,76.817a2.347,2.347,0,0,1-2.363,2.32,2.31,2.31,0,0,1-2.32-2.32,2.341,2.341,0,1,1,4.682,0Zm-2.534,7.3a8.2,8.2,0,0,0,2.234-.257c-.258,4.725-.258,7.174-.258,11.3,0,2.535.129,5.5.3,9.494a6.819,6.819,0,0,0-2.105-.258,7.251,7.251,0,0,0-2.233.258c.172-3.737.3-7.733.3-10.954,0-4.081-.129-6.788-.344-9.837A7.856,7.856,0,0,0,876.556,84.119Z" transform="translate(-773.066 -74.454)" fill="#fff"/>
        <path id="Path_341" data-name="Path 341" d="M931.82,116.717c0,.9-.172,9.15-.172,9.236,0,3.609.129,4.3.129,4.511a7.438,7.438,0,0,0-2.191-.258,8.308,8.308,0,0,0-2.277.258c.3-3.651.387-8.463.387-11.169,0-5.069-1.418-7.3-4.983-7.3a5.5,5.5,0,0,0-5.2,3.179c-.43.988-.687,3.608-.687,8.162,0,2.664.172,4.94.344,7.131a10,10,0,0,0-2.277-.258,9.218,9.218,0,0,0-2.277.258c.3-3.866.43-6.315.43-11.642,0-2.578-.086-5.714-.215-9.322a10.368,10.368,0,0,0,2.148.257,9.613,9.613,0,0,0,2.1-.257l-.215,4.081a8.278,8.278,0,0,1,7.561-4.21C929.114,109.371,931.82,111.562,931.82,116.717Z" transform="translate(-801.31 -100.264)" fill="#fff"/>
        <path id="Path_342" data-name="Path 342" d="M1017.311,109.686c1.547,0,3.351-.129,3.91-.172a7.527,7.527,0,0,0-.129,1.074,11.135,11.135,0,0,0,.129,1.117c-.516-.043-2.019-.086-2.578-.086h-1.374a5.189,5.189,0,0,1,1.8,4.124c0,4.424-3.522,7.045-8.592,7.045-.6,0-2.663-.172-3.093-.172a1.917,1.917,0,0,0-1.848,2.062c0,1.461.816,2.277,4.855,2.277,1.03,0,2.277-.043,3.178-.043,2.492,0,4.468.472,5.8,1.589a5.259,5.259,0,0,1,1.8,4.253,9.1,9.1,0,0,1-4.21,7.3,12.723,12.723,0,0,1-7.131,1.8c-5.928,0-9.107-2.749-9.107-6.444,0-2.448,1.5-4.381,4.725-5.584-2.019-.558-3.179-1.675-3.179-3.566a4.521,4.521,0,0,1,3.479-4.21,6.008,6.008,0,0,1-4.166-6.014c0-4.253,3.436-7,8.42-7C1013.186,109.042,1013.488,109.686,1017.311,109.686Zm-6.572,30.415c4.253,0,6.873-2.32,6.873-5.413,0-3.05-2.535-4.639-7-4.639-4.253,0-6.659,1.8-6.659,4.94C1003.951,138.038,1006.571,140.1,1010.738,140.1Zm-.558-18.773c3.093,0,4.811-2.276,4.811-5.67,0-3.265-1.933-5.155-4.682-5.155-2.921,0-4.639,2.062-4.639,5.714C1005.669,119.438,1007.387,121.328,1010.18,121.328Z" transform="translate(-866.441 -100.021)" fill="#fff"/>
        <path id="Path_343" data-name="Path 343" d="M491.857,257.08a11.473,11.473,0,0,1-4.451-5.012,19.834,19.834,0,0,1,0-15.437,11.35,11.35,0,0,1,4.451-4.992,13.054,13.054,0,0,1,6.817-1.724,15.114,15.114,0,0,1,5.373.923,11.6,11.6,0,0,1,4.25,2.766l-1.042,1.965a13.256,13.256,0,0,0-4.03-2.646,12.156,12.156,0,0,0-4.511-.8,9.4,9.4,0,0,0-7.6,3.208q-2.706,3.209-2.706,9.022,0,5.855,2.687,9.062a9.379,9.379,0,0,0,7.618,3.208,12.151,12.151,0,0,0,4.511-.8,13.238,13.238,0,0,0,4.03-2.646l1.042,1.965a11.586,11.586,0,0,1-4.25,2.766,15.12,15.12,0,0,1-5.373.922A12.933,12.933,0,0,1,491.857,257.08Z" transform="translate(-485.843 -189.368)" fill="#fff"/>
        <path id="Path_344" data-name="Path 344" d="M586.072,283.023a8.337,8.337,0,0,1-3.147-3.528,13.223,13.223,0,0,1,0-10.666,8.343,8.343,0,0,1,3.147-3.529,9.513,9.513,0,0,1,9.4,0,8.177,8.177,0,0,1,3.147,3.529,13.446,13.446,0,0,1,0,10.666,8.171,8.171,0,0,1-3.147,3.528,9.513,9.513,0,0,1-9.4,0Zm9.443-3.211a11.068,11.068,0,0,0-.02-11.768,6.346,6.346,0,0,0-9.443,0,11.234,11.234,0,0,0-.04,11.768,5.717,5.717,0,0,0,4.731,2.045A5.835,5.835,0,0,0,595.516,279.812Z" transform="translate(-556.775 -214.606)" fill="#fff"/>
        <path id="Path_345" data-name="Path 345" d="M677.517,271.6v12.39h-2.446v-12.23a6.287,6.287,0,0,0-1.163-4.21,4.667,4.667,0,0,0-3.689-1.324,6.221,6.221,0,0,0-4.631,1.764,6.436,6.436,0,0,0-1.744,4.732v11.267H661.4V264.538H663.8v3.328a6.494,6.494,0,0,1,2.666-2.827,8.074,8.074,0,0,1,4.03-.983Q677.517,264.057,677.517,271.6Z" transform="translate(-615.611 -214.606)" fill="#fff"/>
        <path id="Path_346" data-name="Path 346" d="M735.012,281.66l.922-1.884a10.275,10.275,0,0,0,3.128,1.824,11.015,11.015,0,0,0,3.609.541,6.531,6.531,0,0,0,3.628-.842,2.893,2.893,0,0,0,.421-4.431,5.732,5.732,0,0,0-2.687-1.183l-3.288-.762a7.409,7.409,0,0,1-3.709-1.945,4.531,4.531,0,0,1-1.343-3.267,4.977,4.977,0,0,1,1.965-4.09,8.191,8.191,0,0,1,5.252-1.564,10.921,10.921,0,0,1,3.829.662,7.564,7.564,0,0,1,2.947,1.9l-.922,1.884a9.545,9.545,0,0,0-2.787-1.764,8.286,8.286,0,0,0-3.068-.562,5.876,5.876,0,0,0-3.448.883A3.089,3.089,0,0,0,739,271.6a4.962,4.962,0,0,0,2.426,1.2l3.328.8q5.292,1.2,5.293,5.213a4.678,4.678,0,0,1-2.025,3.97,9.074,9.074,0,0,1-5.473,1.483A10.91,10.91,0,0,1,735.012,281.66Z" transform="translate(-670.026 -214.606)" fill="#fff"/>
        <path id="Path_347" data-name="Path 347" d="M820.619,265.9V285.35h-2.406v-3.489a6.442,6.442,0,0,1-2.627,2.807,7.732,7.732,0,0,1-3.869.962,6.693,6.693,0,0,1-5.192-1.9,8.079,8.079,0,0,1-1.744-5.633V265.9h2.446v12.029a6.377,6.377,0,0,0,1.143,4.19,4.457,4.457,0,0,0,3.589,1.344,5.947,5.947,0,0,0,4.51-1.785,6.591,6.591,0,0,0,1.7-4.751V265.9Z" transform="translate(-721.599 -215.971)" fill="#fff"/>
        <path id="Path_348" data-name="Path 348" d="M883.02,260.349V232.08h2.446v28.269Z" transform="translate(-779.432 -190.969)" fill="#fff"/>
        <path id="Path_349" data-name="Path 349" d="M914.311,266.378l-.12,2.044a13.954,13.954,0,0,1-1.885.121,6.516,6.516,0,0,1-4.972-1.784,6.81,6.81,0,0,1-1.684-4.872V250.821H901.8v-1.965h3.849v-6.015H908.1v6.015h5.694v1.965H908.1v10.746a5.279,5.279,0,0,0,1.143,3.689,4.323,4.323,0,0,0,3.348,1.243A12.245,12.245,0,0,0,914.311,266.378Z" transform="translate(-793.315 -198.924)" fill="#fff"/>
        <path id="Path_350" data-name="Path 350" d="M960.862,234.684h3.421v3.292h-3.421Zm.456,27.589V242.826h2.446v19.447Z" transform="translate(-836.972 -192.894)" fill="#fff"/>
        <path id="Path_351" data-name="Path 351" d="M1006.707,271.6v12.39h-2.446v-12.23a6.286,6.286,0,0,0-1.163-4.21,4.668,4.668,0,0,0-3.689-1.324,6.223,6.223,0,0,0-4.632,1.764,6.438,6.438,0,0,0-1.744,4.732v11.267h-2.446V264.538h2.405v3.328a6.5,6.5,0,0,1,2.666-2.827,8.076,8.076,0,0,1,4.03-.983Q1006.707,264.057,1006.707,271.6Z" transform="translate(-858.945 -214.606)" fill="#fff"/>
        <path id="Path_352" data-name="Path 352" d="M1083.884,264.538v18.324q0,4.25-2.106,6.436t-6.234,2.186a13.5,13.5,0,0,1-8.421-2.687l.963-1.924a14.26,14.26,0,0,0,3.628,1.9,12.515,12.515,0,0,0,3.87.541,5.8,5.8,0,0,0,4.41-1.564,6.522,6.522,0,0,0,1.484-4.651v-3.809a6.388,6.388,0,0,1-2.586,3.027,7.986,7.986,0,0,1-4.231,1.063,8.6,8.6,0,0,1-4.551-1.2,8.129,8.129,0,0,1-3.087-3.408,12.125,12.125,0,0,1,0-10.1,8.132,8.132,0,0,1,3.087-3.408,8.6,8.6,0,0,1,4.551-1.2,8.037,8.037,0,0,1,4.171,1.023,6.422,6.422,0,0,1,2.606,2.987v-3.529Zm-4.151,14.676a9.693,9.693,0,0,0-.02-11.007,5.886,5.886,0,0,0-4.732-2.025,5.958,5.958,0,0,0-4.771,2.005,9.707,9.707,0,0,0,0,11.047,5.986,5.986,0,0,0,4.771,1.985A5.9,5.9,0,0,0,1079.733,279.214Z" transform="translate(-914.63 -214.606)" fill="#fff"/>
      </g>
      <g id="Group_61" data-name="Group 61">
        <path id="Path_353" data-name="Path 353" d="M102.682,27.559a55.008,55.008,0,1,0-20.206,75.123A55.008,55.008,0,0,0,102.682,27.559ZM38.52,28.618a6.243,6.243,0,1,1,2.293-8.526A6.243,6.243,0,0,1,38.52,28.618ZM98.1,66.644a9.752,9.752,0,0,1-1.5,4.685,7.648,7.648,0,0,1-3.415,2.863,10.9,10.9,0,0,1-9.462-.753,7.751,7.751,0,0,1-1.7-1.473,4.886,4.886,0,0,1,.186.8,5.4,5.4,0,0,1-.765,3.532,3.6,3.6,0,0,1,3.1-.414L90.6,77.143,87.767,81.2,80.45,79.312a1.962,1.962,0,0,0-1.959.661l-.958,1.019,5.433,4.9-3.246,3.211L68.68,79.325l-2.109,5.483,11.4,5.842-4.935,2.178-9.55-4.759,2.349,6.992L61.569,96.77,55.017,80.422l4.266-1.71L62.1,85.738l3.336-8.573.714-1,6.009-5.541a7.208,7.208,0,0,1,4.3-2.554,5,5,0,0,1,4.025,1.573c.087.082.17.165.25.249a9.844,9.844,0,0,1-.664-4.685,10.7,10.7,0,0,1,.789-3.286A7.7,7.7,0,0,1,82.467,59.4l3.127,1.68A7.681,7.681,0,0,0,83.72,65.4a4.057,4.057,0,0,0,1.085,3.386,6.118,6.118,0,0,0,3.923,1.454,6.17,6.17,0,0,0,4.117-.813,4.039,4.039,0,0,0,1.62-3.17A7.671,7.671,0,0,0,93.3,61.7l3.355-1.162a7.668,7.668,0,0,1,1.186,2.741A10.719,10.719,0,0,1,98.1,66.644Z" transform="translate(0 0)" fill="#fff"/>
        <path id="Path_354" data-name="Path 354" d="M280.112,277.039a3.766,3.766,0,0,0-1.852,1.259l-2.19,2.33,2.985,2.806,2.19-2.33a3.854,3.854,0,0,0,1.152-1.917,1.777,1.777,0,0,0-.675-1.543A1.841,1.841,0,0,0,280.112,277.039Z" transform="translate(-204.068 -204.766)" fill="#fff"/>
      </g>
    </g>
  </g>
</svg>
