<svg version="1.2" xmlns="http://www.w3.org/2000/svg" viewBox="0 0 115 111" width="115" height="111">
	<title>footerLogo-svg</title>
	<style>
		.s0 { fill: #ffffff } 
	</style>
	<g id="Artwork_1">
		<g id="Group_62">
			<g id="Group_60">
				<path id="Path_336" class="s0" d="m131 20.1q0.3 0.1 0.6 0 0.3 0 0.5 0 0.3 0 0.6-0.1 0.3 0 0.6-0.1c-0.2 1.5-0.4 4.5-0.4 8.2 0 2.9 0.1 5.2 0.1 5.6q0.6-0.5 1.3-1.1 0.7-0.5 1.4-1.1 0.6-0.6 1.3-1.2 0.6-0.6 1.2-1.2c2.6-2.6 7.6-7.7 8.4-9.2q0.3 0.1 0.6 0.1 0.2 0 0.5 0.1 0.3 0 0.6 0 0.3 0 0.5 0 0.3 0 0.5 0 0.3 0 0.5 0 0.3-0.1 0.5-0.1 0.2-0.1 0.5-0.1l0.1 0.2c-1 0.7-3.4 3.1-7.6 7-4.2 4-6.2 6-6.3 6 3.7 4.3 13.1 14.8 13.9 15.5v1q-0.4-0.1-0.7-0.1-0.3-0.1-0.7-0.1-0.3 0-0.7 0-0.3 0-0.6 0-0.4 0-0.8 0-0.4 0-0.8 0-0.3 0.1-0.7 0.1-0.4 0.1-0.8 0.1c-2.1-3.6-7.4-9.5-12.1-14.6l-0.1 0.2v5.4c0 2.7 0.1 6 0.4 9q-0.3-0.1-0.6-0.1-0.3-0.1-0.6-0.1-0.3 0-0.6 0-0.3 0-0.6 0-0.4 0-0.7 0-0.3 0-0.6 0-0.3 0.1-0.7 0.1-0.3 0.1-0.6 0.1c0.5-7.6 0.5-8.8 0.5-14.8 0-7.7 0-8.5-0.4-14.9q0.4 0.1 0.7 0.1 0.3 0.1 0.6 0.1 0.3 0 0.7 0 0.3 0 0.6 0z"/>
				<path id="Path_337" fill-rule="evenodd" class="s0" d="m170.7 38.6v0.6h-15.5v0.1c0 3.5 0.7 5 1.9 6.4q0.5 0.6 1.1 1.1 0.6 0.5 1.3 0.8 0.7 0.3 1.4 0.5 0.8 0.1 1.5 0.1 1 0 2-0.2 1-0.3 1.9-0.7 0.9-0.5 1.6-1.1 0.8-0.7 1.4-1.5l0.5 0.1q-0.1 0.3-0.1 0.6-0.1 0.4-0.1 0.7-0.1 0.3-0.1 0.6 0 0.4 0 0.7c-1.9 1.8-4.6 2.8-8 2.8-6.6 0-10.5-4.1-10.5-10.8 0-6.5 3.8-10.9 10.3-10.9 5.9 0 9.4 3.2 9.4 10.1zm-4.3-1.2c0-4.7-1.8-7.2-5.2-7.2-3.3 0-5.4 2.2-5.9 7.2z"/>
				<path id="Path_338" class="s0" d="m174 28.9q0.3 0 0.6 0 0.3 0 0.5 0 0.3-0.1 0.6-0.1 0.3-0.1 0.6-0.1c3.2 9 5.4 14.4 5.6 14.8 0.4 0.6 0.4 0.9 0.7 0.9q0.1-0.1 0.2-0.2 0.1-0.2 0.1-0.3 0.1-0.1 0.2-0.2 0-0.1 0.1-0.3 0.8-1.8 1.5-3.6 0.8-1.8 1.5-3.7 0.7-1.8 1.3-3.7 0.6-1.9 1.2-3.7 0.2 0 0.4 0.1 0.3 0 0.5 0.1 0.2 0 0.5 0 0.2 0 0.5 0 0.2 0 0.4 0 0.2 0 0.5 0 0.2-0.1 0.4-0.1 0.2-0.1 0.4-0.2-0.4 0.7-0.8 1.4-0.4 0.7-0.7 1.5-0.4 0.7-0.7 1.5-0.4 0.7-0.7 1.5c-3.7 8-9 18.9-11 26.2q-0.2-0.1-0.4-0.2-0.2 0-0.4-0.1-0.2 0-0.4 0-0.2 0-0.3 0-0.3 0-0.5 0-0.3 0-0.5 0.1-0.3 0-0.5 0-0.2 0.1-0.5 0.2c2.3-4.3 3.9-7.3 5.5-10.5-4.9-11.8-6.8-16.7-9.1-21.6q0.3 0.1 0.6 0.2 0.4 0 0.7 0.1 0.4 0 0.7 0 0.3 0 0.7 0z"/>
				<path id="Path_339" fill-rule="evenodd" class="s0" d="m207.7 20.1c1.5 0 3-0.1 4.5-0.1 3.5 0 5.3 0.3 6.5 0.7q0.9 0.4 1.7 1 0.8 0.6 1.4 1.5 0.5 0.8 0.8 1.8 0.2 1 0.1 2c0 4.1-2.5 6.8-8.4 7.7 0.6 0.8 11.1 14.4 11.1 14.4v0.5q-0.3 0-0.6-0.1-0.4 0-0.7-0.1-0.3 0-0.6 0-0.3 0-0.6 0-0.4 0-0.8 0-0.4 0-0.8 0-0.4 0.1-0.8 0.1-0.3 0.1-0.7 0.1-1.2-1.9-2.5-3.7-1.2-1.9-2.5-3.7-1.3-1.8-2.7-3.5-1.4-1.8-2.9-3.5h-1.1c0 0 0.2 11.8 0.3 14.4q-0.3 0-0.6-0.1-0.3 0-0.6-0.1-0.3 0-0.6 0-0.4 0-0.7 0-0.3 0-0.5 0-0.3 0-0.6 0-0.3 0-0.6 0.1-0.3 0-0.5 0.1c0.2-5.1 0.3-10.1 0.3-16.3 0-3.9-0.1-7.6-0.3-13.4q0.5 0 1 0.1 0.5 0 1 0 0.5 0 1 0.1 0.5 0 1 0zm0.4 5.2c0 6.2 0 7.3 0 8.4 0.4 0.1 1.2 0.1 1.3 0.1 3.6 0 5.7-0.8 7-1.8q0.5-0.5 0.8-1 0.4-0.5 0.6-1.1 0.3-0.6 0.4-1.2 0.1-0.6 0.1-1.2c0-3.8-2.3-5.7-7.5-5.7q-0.3 0-0.6 0-0.4 0-0.7 0-0.3 0.1-0.7 0.1-0.3 0-0.6 0.1-0.1 1.9-0.1 3.3z"/>
				<path id="Path_340" class="s0" d="m232.7 21.8q0 0.4-0.2 0.9-0.1 0.4-0.5 0.7-0.3 0.4-0.7 0.5-0.5 0.2-0.9 0.2-0.5 0-0.9-0.2-0.4-0.1-0.8-0.5-0.3-0.3-0.5-0.7-0.1-0.5-0.1-0.9c0-0.6 0.2-1.2 0.6-1.7 0.5-0.4 1.1-0.7 1.7-0.7 0.6 0 1.2 0.3 1.7 0.7 0.4 0.5 0.6 1.1 0.6 1.7zm-2.5 7.3q0.3 0 0.6 0 0.2 0 0.5-0.1 0.3 0 0.6-0.1 0.3 0 0.5-0.1c-0.2 4.7-0.2 7.2-0.2 11.3 0 2.6 0.1 5.5 0.3 9.5q-0.3-0.1-0.5-0.1-0.3-0.1-0.6-0.1-0.2 0-0.5 0-0.3 0-0.5 0-0.3-0.1-0.6 0-0.3 0-0.6 0-0.2 0-0.5 0.1-0.3 0-0.6 0.1c0.2-3.7 0.3-7.7 0.3-10.9 0-4.1-0.1-6.8-0.3-9.9q0.3 0.1 0.5 0.1 0.3 0.1 0.5 0.1 0.3 0.1 0.6 0.1 0.2 0 0.5 0z"/>
				<path id="Path_341" class="s0" d="m257.2 35.9c0 0.9-0.1 9.1-0.1 9.2 0 3.6 0.1 4.3 0.1 4.5q-0.3-0.1-0.6-0.1-0.2-0.1-0.5-0.1-0.3 0-0.6 0-0.2 0-0.5 0-0.3 0-0.6 0-0.3 0-0.6 0-0.2 0-0.5 0.1-0.3 0-0.6 0.1c0.3-3.6 0.4-8.4 0.4-11.2 0-5-1.4-7.3-5-7.3q-0.8 0-1.6 0.2-0.8 0.2-1.5 0.7-0.7 0.4-1.2 1-0.5 0.6-0.9 1.3c-0.4 1-0.7 3.6-0.7 8.2 0 2.7 0.2 4.9 0.4 7.1q-0.3 0-0.6-0.1-0.3 0-0.6-0.1-0.2 0-0.5 0-0.3 0-0.6 0-0.3 0-0.6 0-0.3 0-0.6 0-0.2 0.1-0.5 0.1-0.3 0.1-0.6 0.1c0.3-3.8 0.4-6.3 0.4-11.6 0-2.6 0-5.7-0.2-9.3q0.3 0 0.6 0.1 0.2 0 0.5 0 0.3 0.1 0.5 0.1 0.3 0 0.6 0 0.2 0 0.5 0 0.3 0 0.5-0.1 0.3 0 0.6 0 0.2-0.1 0.5-0.1l-0.2 4q0.5-1 1.3-1.8 0.9-0.8 1.9-1.3 1-0.6 2.1-0.9 1.1-0.2 2.2-0.2c4.7 0 7.4 2.2 7.4 7.4z"/>
				<path id="Path_342" fill-rule="evenodd" class="s0" d="m277.6 29.1c1.5 0 3.3-0.1 3.9-0.2q0 0.1-0.1 0.3 0 0.1 0 0.2 0 0.2 0 0.3 0 0.1 0 0.3 0 0.1 0 0.3 0 0.1 0 0.2 0 0.2 0.1 0.3 0 0.2 0 0.3c-0.5 0-2-0.1-2.6-0.1h-1.4q0.5 0.4 0.8 0.9 0.4 0.4 0.6 1 0.2 0.5 0.4 1.1 0.1 0.6 0 1.1c0 4.5-3.5 7.1-8.6 7.1-0.6 0-2.6-0.2-3-0.2q-0.4 0-0.8 0.2-0.3 0.2-0.6 0.4-0.3 0.3-0.4 0.7-0.1 0.4-0.1 0.8c0 1.4 0.8 2.3 4.9 2.3 1 0 2.2-0.1 3.1-0.1 2.5 0 4.5 0.5 5.8 1.6q0.5 0.4 0.8 0.9 0.4 0.5 0.6 1 0.3 0.6 0.4 1.2 0.1 0.6 0 1.2 0 1.1-0.3 2.1-0.3 1.1-0.9 2-0.5 1-1.3 1.8-0.7 0.8-1.7 1.4-0.8 0.4-1.6 0.8-0.9 0.3-1.8 0.6-0.9 0.2-1.8 0.3-1 0.1-1.9 0.1c-5.9 0-9.1-2.8-9.1-6.5 0-2.4 1.5-4.4 4.7-5.6-2-0.5-3.2-1.7-3.2-3.5q0.1-0.8 0.3-1.5 0.3-0.7 0.8-1.2 0.4-0.6 1.1-1 0.6-0.4 1.3-0.6-0.9-0.3-1.7-0.8-0.8-0.6-1.4-1.5-0.5-0.8-0.8-1.7-0.3-1-0.2-2c0-4.2 3.4-7 8.4-7 3.2 0 3.5 0.7 7.3 0.7zm-6.6 30.4c4.3 0 6.9-2.3 6.9-5.4 0-3.1-2.6-4.7-7-4.7-4.3 0-6.7 1.8-6.7 5 0 3 2.6 5.1 6.8 5.1zm-0.5-18.8c3 0 4.8-2.3 4.8-5.6 0-3.3-2-5.2-4.7-5.2-2.9 0-4.7 2.1-4.7 5.7 0 3.2 1.8 5.1 4.6 5.1z"/>
				<path id="Path_343" class="s0" d="m132.7 87.1q-0.7-0.4-1.4-1-0.6-0.5-1.2-1.1-0.5-0.7-1-1.4-0.5-0.7-0.8-1.5-0.8-1.8-1.2-3.8-0.4-1.9-0.4-3.9 0-2 0.4-3.9 0.4-2 1.2-3.8 0.3-0.8 0.8-1.5 0.5-0.7 1-1.4 0.6-0.6 1.2-1.1 0.7-0.6 1.4-1 0.8-0.5 1.6-0.8 0.9-0.3 1.7-0.5 0.9-0.3 1.8-0.4 0.9-0.1 1.7 0 0.7 0 1.4 0 0.7 0.1 1.4 0.2 0.6 0.1 1.3 0.3 0.7 0.2 1.3 0.4 0.6 0.2 1.2 0.5 0.6 0.3 1.1 0.6 0.5 0.4 1 0.8 0.5 0.4 1 0.9l-1.1 1.9q-0.4-0.4-0.9-0.8-0.5-0.4-1-0.7-0.5-0.3-1-0.6-0.5-0.3-1.1-0.5-0.5-0.2-1.1-0.4-0.6-0.1-1.1-0.2-0.6-0.1-1.2-0.2-0.5 0-1.1 0-1.1-0.1-2.1 0.1-1.1 0.2-2.1 0.6-1 0.4-1.8 1-0.9 0.7-1.6 1.5-2.7 3.2-2.7 9 0 5.9 2.7 9.1 0.7 0.8 1.5 1.4 0.9 0.6 1.9 1.1 1 0.4 2.1 0.6 1 0.1 2.1 0.1 0.6 0 1.1-0.1 0.6 0 1.2-0.1 0.5-0.1 1.1-0.3 0.6-0.1 1.1-0.3 0.6-0.3 1.1-0.5 0.5-0.3 1-0.7 0.5-0.3 1-0.7 0.5-0.4 0.9-0.8l1.1 2q-0.5 0.4-1 0.9-0.5 0.4-1 0.7-0.5 0.4-1.1 0.6-0.6 0.3-1.2 0.6-0.6 0.2-1.3 0.4-0.7 0.1-1.3 0.3-0.7 0.1-1.4 0.1-0.7 0.1-1.4 0.1-0.8 0-1.7-0.1-0.9-0.1-1.8-0.3-0.9-0.2-1.7-0.6-0.8-0.3-1.6-0.8z"/>
				<path id="Path_344" fill-rule="evenodd" class="s0" d="m156 87.8q-0.5-0.3-1-0.7-0.4-0.4-0.8-0.8-0.4-0.4-0.7-0.9-0.4-0.6-0.6-1.1-0.6-1.3-0.9-2.6-0.3-1.3-0.3-2.7 0-1.4 0.3-2.8 0.3-1.3 0.9-2.6 0.2-0.5 0.6-1 0.3-0.5 0.7-1 0.4-0.4 0.8-0.8 0.5-0.4 1-0.7 1.1-0.6 2.3-0.9 1.2-0.3 2.4-0.3 1.2 0 2.4 0.3 1.2 0.3 2.3 0.9 0.5 0.3 1 0.7 0.4 0.4 0.8 0.8 0.4 0.5 0.8 1 0.3 0.5 0.6 1 0.5 1.3 0.8 2.7 0.3 1.3 0.3 2.7 0 1.3-0.3 2.7-0.3 1.3-0.8 2.6-0.3 0.6-0.6 1.1-0.4 0.5-0.8 0.9-0.4 0.5-0.8 0.8-0.5 0.4-1 0.7-1.1 0.6-2.3 1-1.2 0.3-2.4 0.3-1.2 0-2.4-0.3-1.2-0.4-2.3-1zm9.5-3.2q0.8-1.3 1.2-2.8 0.4-1.5 0.4-3.1 0-1.5-0.4-3-0.4-1.5-1.3-2.8-0.9-1-2.1-1.6-1.2-0.5-2.6-0.5-1.3 0-2.6 0.5-1.2 0.6-2.1 1.6-0.8 1.3-1.3 2.8-0.4 1.5-0.4 3 0 1.6 0.4 3.1 0.4 1.5 1.3 2.8 0.4 0.5 0.9 0.9 0.6 0.4 1.2 0.7 0.6 0.3 1.2 0.4 0.7 0.1 1.4 0.1 0.7 0 1.3-0.1 0.7-0.1 1.3-0.4 0.6-0.3 1.2-0.7 0.5-0.4 1-0.9z"/>
				<path id="Path_345" class="s0" d="m188.6 76.4v12.4h-2.4v-12.2q0-0.6 0-1.1-0.1-0.6-0.2-1.1-0.2-0.6-0.4-1.1-0.3-0.5-0.6-0.9-0.4-0.4-0.8-0.7-0.4-0.2-0.9-0.4-0.5-0.2-1-0.2-0.5-0.1-1-0.1-0.6 0-1.2 0.1-0.7 0.1-1.3 0.3-0.6 0.3-1.1 0.6-0.6 0.4-1 0.8-0.5 0.5-0.8 1-0.3 0.6-0.6 1.2-0.2 0.6-0.3 1.2-0.1 0.7-0.1 1.3v11.3h-2.4v-19.4h2.4v3.3q0.2-0.5 0.5-0.9 0.3-0.4 0.6-0.7 0.4-0.4 0.7-0.7 0.4-0.3 0.9-0.5 0.4-0.3 0.9-0.5 0.5-0.2 1-0.3 0.5-0.1 1.1-0.2 0.5 0 1 0 7 0 7 7.5z"/>
				<path id="Path_346" class="s0" d="m191.7 86.5l0.9-1.9q0.4 0.3 0.7 0.5 0.4 0.3 0.8 0.5 0.4 0.3 0.8 0.5 0.4 0.2 0.8 0.3 0.5 0.2 0.9 0.3 0.5 0.1 0.9 0.1 0.5 0.1 0.9 0.1 0.5 0.1 1 0.1 0.4 0 0.9-0.1 0.5 0 0.9-0.1 0.5-0.1 0.9-0.3 0.5-0.2 0.9-0.4 0.5-0.4 0.8-0.9 0.4-0.6 0.4-1.2 0.1-0.6-0.1-1.3-0.2-0.6-0.7-1-0.3-0.3-0.6-0.4-0.3-0.2-0.7-0.4-0.3-0.1-0.7-0.2-0.3-0.1-0.7-0.2l-3.3-0.8q-0.5-0.1-1-0.2-0.5-0.2-1-0.5-0.4-0.2-0.9-0.5-0.4-0.3-0.8-0.7-0.3-0.3-0.6-0.7-0.2-0.4-0.4-0.8-0.2-0.4-0.2-0.9-0.1-0.4-0.1-0.9 0-0.6 0.1-1.1 0.1-0.6 0.4-1.2 0.2-0.5 0.6-1 0.4-0.4 0.8-0.8 0.6-0.4 1.2-0.7 0.7-0.3 1.3-0.5 0.7-0.2 1.4-0.3 0.7-0.1 1.4 0 0.5 0 1 0 0.5 0 0.9 0.1 0.5 0.1 1 0.2 0.5 0.2 0.9 0.3 0.4 0.2 0.8 0.4 0.4 0.2 0.8 0.4 0.4 0.2 0.7 0.5 0.4 0.3 0.7 0.6l-0.9 1.9q-0.4-0.3-0.7-0.5-0.3-0.3-0.7-0.5-0.3-0.2-0.7-0.4-0.4-0.2-0.7-0.3-0.4-0.2-0.8-0.3-0.4-0.1-0.7-0.2-0.4 0-0.8-0.1-0.4 0-0.8 0-0.5 0-0.9 0-0.5 0.1-0.9 0.2-0.4 0.1-0.9 0.3-0.4 0.1-0.8 0.4-0.5 0.4-0.8 0.9-0.3 0.6-0.4 1.2 0 0.7 0.2 1.3 0.2 0.6 0.6 1.1 0.2 0.2 0.5 0.4 0.3 0.2 0.6 0.4 0.3 0.1 0.6 0.2 0.4 0.1 0.7 0.2l3.3 0.8q5.3 1.2 5.3 5.2 0 0.6-0.1 1.2-0.1 0.5-0.4 1.1-0.2 0.5-0.6 0.9-0.4 0.5-0.9 0.8-0.6 0.4-1.3 0.7-0.6 0.3-1.3 0.5-0.7 0.2-1.4 0.2-0.7 0.1-1.5 0.1-1 0-2-0.1-1-0.2-2-0.5-0.9-0.3-1.8-0.9-0.9-0.5-1.7-1.1z"/>
				<path id="Path_347" class="s0" d="m225.7 69.3v19.5h-2.4v-3.5q-0.2 0.4-0.5 0.9-0.2 0.4-0.6 0.7-0.3 0.4-0.7 0.7-0.4 0.3-0.8 0.5-0.4 0.3-0.9 0.4-0.5 0.2-1 0.3-0.5 0.2-1 0.2-0.5 0.1-1 0.1-0.7 0-1.4-0.1-0.7-0.1-1.4-0.3-0.6-0.3-1.2-0.6-0.7-0.4-1.2-0.9-0.4-0.6-0.8-1.3-0.3-0.7-0.6-1.4-0.2-0.7-0.3-1.4-0.1-0.8 0-1.6v-12.2h2.4v12.1q0 0.5 0 1.1 0.1 0.5 0.2 1.1 0.2 0.5 0.4 1 0.3 0.5 0.6 1 0.3 0.3 0.7 0.6 0.5 0.3 0.9 0.4 0.5 0.2 1 0.3 0.5 0.1 1 0 0.6 0 1.2-0.1 0.6-0.1 1.2-0.3 0.6-0.2 1.1-0.6 0.5-0.3 1-0.8 0.4-0.5 0.8-1 0.3-0.6 0.5-1.2 0.2-0.6 0.3-1.2 0.1-0.7 0.1-1.3v-11.1z"/>
				<path id="Path_348" class="s0" d="m230.3 88.8v-28.3h2.4v28.3z"/>
				<path id="Path_349" class="s0" d="m247.7 86.9l-0.1 2q-0.2 0-0.5 0.1-0.2 0-0.5 0-0.2 0-0.4 0-0.3 0-0.5 0-0.7 0.1-1.4 0-0.6-0.1-1.3-0.3-0.6-0.3-1.2-0.6-0.6-0.4-1.1-0.8-0.4-0.5-0.7-1.1-0.4-0.6-0.6-1.2-0.2-0.6-0.3-1.3-0.1-0.7-0.1-1.3v-11.1h-3.8v-2h3.8v-6h2.5v6h5.7v2h-5.7v10.8q0 0.5 0 0.9 0.1 0.5 0.2 1 0.2 0.5 0.4 0.9 0.2 0.5 0.5 0.9 0.4 0.3 0.8 0.5 0.3 0.3 0.8 0.4 0.4 0.2 0.9 0.3 0.4 0 0.9 0 0.2 0 0.4 0 0.2 0 0.5 0 0.2-0.1 0.4-0.1 0.2 0 0.4 0z"/>
				<path id="Path_350" class="s0" d="m250.6 61.2h3.4v3.3h-3.4zm0.5 27.6v-19.5h2.4v19.5z"/>
				<path id="Path_351" class="s0" d="m274.5 76.4v12.4h-2.5v-12.2q0.1-0.6 0-1.1 0-0.6-0.2-1.1-0.1-0.6-0.4-1.1-0.2-0.5-0.5-0.9-0.4-0.4-0.8-0.7-0.5-0.2-0.9-0.4-0.5-0.2-1-0.2-0.5-0.1-1-0.1-0.7 0-1.3 0.1-0.6 0.1-1.2 0.3-0.6 0.3-1.2 0.6-0.5 0.4-1 0.8-0.4 0.5-0.7 1-0.4 0.6-0.6 1.2-0.2 0.6-0.3 1.2-0.1 0.7-0.1 1.3v11.3h-2.4v-19.4h2.4v3.3q0.2-0.5 0.5-0.9 0.2-0.4 0.6-0.7 0.3-0.4 0.7-0.7 0.4-0.3 0.8-0.5 0.5-0.3 1-0.5 0.5-0.2 1-0.3 0.5-0.1 1-0.2 0.5 0 1.1 0 7 0 7 7.5z"/>
				<path id="Path_352" fill-rule="evenodd" class="s0" d="m296 69.4v18.3q0 4.2-2.1 6.4-2.1 2.2-6.3 2.2-1.1 0-2.2-0.1-1.1-0.2-2.2-0.5-1.1-0.4-2.1-0.9-1-0.5-1.9-1.2l1-1.9q0.4 0.3 0.8 0.6 0.5 0.2 0.9 0.5 0.5 0.2 0.9 0.4 0.5 0.2 1 0.4 0.5 0.1 0.9 0.2 0.5 0.1 1 0.2 0.5 0.1 1 0.1 0.5 0 1 0 0.6 0.1 1.2 0 0.6-0.1 1.1-0.3 0.6-0.2 1.1-0.5 0.5-0.3 1-0.7 0.4-0.5 0.7-1.1 0.3-0.5 0.5-1.1 0.2-0.6 0.2-1.2 0.1-0.7 0.1-1.3v-3.8q-0.2 0.5-0.5 0.9-0.3 0.4-0.6 0.8-0.3 0.4-0.7 0.7-0.4 0.4-0.8 0.6-0.5 0.3-1 0.5-0.5 0.2-1.1 0.4-0.5 0.1-1.1 0.1-0.5 0.1-1.1 0.1-0.6 0-1.1-0.1-0.6 0-1.2-0.2-0.6-0.1-1.1-0.4-0.6-0.2-1.1-0.5-0.5-0.3-1-0.7-0.4-0.4-0.8-0.8-0.4-0.4-0.7-0.9-0.3-0.5-0.6-1-0.5-1.2-0.8-2.5-0.3-1.3-0.3-2.6 0-1.3 0.3-2.6 0.3-1.2 0.8-2.4 0.3-0.5 0.6-1 0.3-0.5 0.7-0.9 0.4-0.5 0.8-0.8 0.5-0.4 1-0.7 0.5-0.3 1.1-0.6 0.5-0.2 1.1-0.3 0.6-0.2 1.2-0.3 0.5 0 1.1 0 0.6 0 1.1 0 0.6 0.1 1.1 0.2 0.5 0.1 1 0.3 0.5 0.2 1 0.5 0.4 0.3 0.8 0.6 0.4 0.3 0.8 0.7 0.3 0.4 0.6 0.8 0.2 0.4 0.4 0.9v-3.5zm-4.1 14.6q0.8-1.2 1.2-2.6 0.5-1.4 0.5-2.9 0-1.4-0.5-2.9-0.4-1.4-1.3-2.6-0.4-0.5-0.9-0.9-0.6-0.4-1.2-0.6-0.6-0.3-1.3-0.4-0.6-0.1-1.3-0.1-0.7 0-1.3 0.1-0.7 0.1-1.3 0.4-0.6 0.2-1.2 0.6-0.5 0.4-1 0.9-0.8 1.2-1.2 2.6-0.5 1.4-0.5 2.9 0 1.5 0.5 2.9 0.4 1.4 1.2 2.7 0.5 0.5 1 0.8 0.6 0.4 1.2 0.7 0.6 0.2 1.3 0.4 0.6 0.1 1.3 0 0.7 0.1 1.3 0 0.7-0.2 1.3-0.4 0.6-0.3 1.2-0.7 0.5-0.4 1-0.9z"/>
			</g>
			<g id="Group_61">
				<path id="Path_353" fill-rule="evenodd" class="s0" d="m109.6 47.9c0.9 7.2 0.4 14.4-1.5 21.4-1.8 7-5.1 13.5-9.5 19.2-4.4 5.8-9.9 10.6-16.1 14.2-19.3 11.1-43.4 9.5-61-4.1-17.6-13.5-25.4-36.4-19.6-57.9 5.8-21.5 23.9-37.3 46-40.2 22.1-2.9 43.7 7.8 54.8 27.1 3.6 6.2 5.9 13.1 6.9 20.3zm-69.2-20.9q0.7-1 1-2.2 0.4-1.2 0.2-2.4-0.2-1.2-0.8-2.3c-1.2-2.2-3.7-3.4-6.2-3.1-2.5 0.3-4.6 2.1-5.2 4.6-0.7 2.4 0.2 5 2.2 6.6 2 1.5 4.7 1.7 6.9 0.4q1.1-0.6 1.9-1.6zm57.7 38.8q0-0.4 0-0.8 0-0.5-0.1-0.9-0.1-0.4-0.2-0.8 0-0.4-0.2-0.7-0.1-0.4-0.2-0.7-0.2-0.4-0.3-0.7-0.2-0.4-0.4-0.7l-3.4 1.2q0.3 0.5 0.6 1.1 0.2 0.5 0.3 1.1 0.2 0.6 0.2 1.2 0.1 0.6 0.1 1.2 0 0.4-0.2 0.9-0.1 0.4-0.3 0.8-0.2 0.4-0.5 0.8-0.3 0.3-0.7 0.6-0.4 0.3-0.9 0.5-0.5 0.2-1 0.3-0.6 0.1-1.1 0.1-0.5 0-1.1-0.1-0.5 0-1-0.1-0.6-0.1-1.1-0.2-0.5-0.2-0.9-0.5-0.5-0.3-0.9-0.6-0.3-0.3-0.6-0.7-0.2-0.4-0.3-0.9-0.2-0.4-0.2-0.9 0-0.4 0-0.9 0.1-0.6 0.2-1.2 0.2-0.6 0.4-1.1 0.3-0.6 0.6-1.1 0.3-0.5 0.7-0.9l-3.1-1.7q-0.3 0.3-0.5 0.6-0.3 0.3-0.5 0.6-0.2 0.3-0.3 0.6-0.2 0.4-0.3 0.7-0.2 0.4-0.3 0.8-0.2 0.4-0.3 0.8-0.1 0.4-0.1 0.9-0.1 0.4-0.1 0.8-0.1 0.6-0.1 1.2 0 0.6 0.1 1.2 0.1 0.6 0.3 1.2 0.1 0.5 0.3 1.1-0.1-0.1-0.2-0.3-0.4-0.4-0.9-0.7-0.4-0.3-0.9-0.5-0.6-0.2-1.1-0.3-0.6-0.1-1.1 0-0.7 0.1-1.3 0.3-0.6 0.2-1.1 0.6-0.6 0.3-1.1 0.7-0.4 0.4-0.8 0.9l-6 5.6-0.8 1-3.3 8.5-2.8-7-4.3 1.7 6.6 16.4 4.2-1.7-2.3-7 9.5 4.7 5-2.1-11.4-5.9 2.1-5.5 11 9.8 3.3-3.2-5.5-4.9 1-1q0.2-0.2 0.4-0.4 0.2-0.1 0.5-0.2 0.2-0.1 0.5-0.1 0.3-0.1 0.6 0l7.3 1.9 2.8-4.1-6.1-1.2q-0.3-0.1-0.7-0.2-0.5 0-0.9 0-0.4 0.1-0.7 0.2-0.4 0.2-0.8 0.4 0.3-0.4 0.5-0.8 0.1-0.5 0.2-0.9 0.1-0.5 0.1-0.9 0.1-0.5 0-0.9 0-0.1 0-0.2 0-0.1-0.1-0.2 0-0.1 0-0.2 0-0.1-0.1-0.2 0.2 0.2 0.4 0.4 0.2 0.2 0.4 0.4 0.2 0.1 0.5 0.3 0.2 0.2 0.4 0.3 1.1 0.7 2.3 1 1.1 0.4 2.4 0.5 1.2 0.1 2.4-0.1 1.2-0.2 2.4-0.6 0.5-0.2 1-0.5 0.5-0.3 0.9-0.7 0.4-0.3 0.8-0.8 0.4-0.4 0.7-0.9 0.3-0.5 0.6-1.1 0.3-0.5 0.5-1.1 0.1-0.6 0.3-1.2 0.1-0.6 0.1-1.3 0-0.4 0-0.8z"/>
				<path id="Path_354" class="s0" d="m76 72.3q-0.2 0.1-0.5 0.2-0.2 0.1-0.5 0.3-0.2 0.1-0.4 0.3-0.2 0.2-0.4 0.4l-2.2 2.4 3 2.8 2.2-2.4q0.2-0.2 0.4-0.4 0.1-0.2 0.3-0.4 0.1-0.3 0.3-0.5 0.1-0.3 0.1-0.6 0-0.2 0-0.4 0-0.2-0.1-0.4-0.1-0.2-0.2-0.4-0.2-0.2-0.3-0.3-0.2-0.2-0.4-0.3-0.2-0.1-0.4-0.2-0.2-0.1-0.4-0.1-0.2-0.1-0.5 0z"/>
			</g>
		</g>
	</g>
</svg>