<svg xmlns="http://www.w3.org/2000/svg" width="124.762" height="30.369" viewBox="0 0 124.762 30.369">
  <g id="idf-logo-white" transform="translate(62.381 15.185)">
    <g id="Group_368" data-name="Group 368" transform="translate(-62.381 -15.185)">
      <path id="Path_947" data-name="Path 947" d="M8.356,30.369,0,21.625,8.356,0,16.71,21.625ZM1.243,21.377l7.113,7.444,7.111-7.444L8.356,2.968Z" fill="#fff"/>
      <path id="Path_948" data-name="Path 948" d="M44.019,30.369l-8.356-8.744L44.019,0l8.354,21.625Zm-7.113-8.992,7.113,7.444,7.112-7.444L44.019,2.968Z" transform="translate(-28.234)" fill="#fff"/>
      <g id="Group_367" data-name="Group 367" transform="translate(35.936 10.419)">
        <g id="Group_366" data-name="Group 366">
          <path id="Path_949" data-name="Path 949" d="M174.463,53.873h-1.951v-.809h2.914v6.868h-.963Zm1.258-2.555a.809.809,0,1,1-.809-.809A.8.8,0,0,1,175.721,51.318Z" transform="translate(-172.512 -50.407)" fill="#fff"/>
          <path id="Path_950" data-name="Path 950" d="M218.992,59.684l-.205-.77a2.15,2.15,0,0,1-1.682.77c-1.207,0-2.747-.924-2.747-3.62,0-2.619,1.669-3.53,2.786-3.53a2.8,2.8,0,0,1,1.451.4V50.017h.963v7.074a7.614,7.614,0,0,0,.347,2.478Zm-.4-5.777a2.09,2.09,0,0,0-1.3-.565c-1.027,0-1.977.86-1.977,2.76,0,2.234,1.168,2.773,1.81,2.773a1.63,1.63,0,0,0,1.464-1.181Z" transform="translate(-205.64 -50.017)" fill="#fff"/>
          <path id="Path_951" data-name="Path 951" d="M260.556,65.922c.051,1.887.9,2.516,1.951,2.516a4.29,4.29,0,0,0,2.144-.732l.411.86a6.3,6.3,0,0,1-2.632.681c-2.028,0-2.837-1.746-2.837-3.53s.835-3.62,2.888-3.62c2.285,0,2.645,2.555,2.645,3.3v.526Zm3.608-.809c-.039-1.13-.68-2.208-1.759-2.208s-1.6.822-1.862,2.208Z" transform="translate(-241.453 -59.58)" fill="#fff"/>
          <path id="Path_952" data-name="Path 952" d="M305.544,69.106h-.963V65.652a15.042,15.042,0,0,0-.308-3.415h.924l.218,1.258a2.812,2.812,0,0,1,2.337-1.4c1.091,0,1.656,1,1.656,2.17v4.84h-.963V64.548c0-.655,0-1.643-.847-1.643-.911,0-2.054.924-2.054,3.338Z" transform="translate(-276.826 -59.58)" fill="#fff"/>
          <path id="Path_953" data-name="Path 953" d="M353.476,55.581h-2.452V59.5c0,.667.013,1.476.886,1.476a1.705,1.705,0,0,0,1.451-1.207l.924.231a2.7,2.7,0,0,1-2.4,1.784c-1.117,0-1.823-.539-1.823-2.593V55.581h-1.476v-.809h1.476V52.667h.963v2.105h2.452Z" transform="translate(-311.906 -52.115)" fill="#fff"/>
          <path id="Path_954" data-name="Path 954" d="M394.948,62.571a5.256,5.256,0,0,1,1.977-.475,2.123,2.123,0,0,1,2.106,2.221V67.3a5.7,5.7,0,0,0,.3,1.861l-.9.116-.244-.86a2.092,2.092,0,0,1-1.708.834A2.052,2.052,0,0,1,394.435,67a2.267,2.267,0,0,1,2.2-2.478,3.807,3.807,0,0,1,1.438.334V64.2a1.179,1.179,0,0,0-1.181-1.3,4.6,4.6,0,0,0-1.72.513Zm3.12,3.094a3.288,3.288,0,0,0-1.309-.334c-.976,0-1.361.847-1.361,1.72,0,.642.334,1.387,1.078,1.387s1.194-.629,1.592-1.181Z" transform="translate(-348.206 -59.58)" fill="#fff"/>
          <path id="Path_955" data-name="Path 955" d="M444.506,51.96a4.958,4.958,0,0,0-1.746-.642c-.847,0-1.22.526-1.22,1.412v.77h2.208v.809H441.54v5.623h-.963V54.309H438.87V53.5h1.707v-.655a2.123,2.123,0,0,1,2.118-2.337,4.461,4.461,0,0,1,1.81.475Z" transform="translate(-383.385 -50.407)" fill="#fff"/>
          <path id="Path_956" data-name="Path 956" d="M487.227,53.873h-1.951v-.809h2.914v6.868h-.963Zm1.258-2.555a.809.809,0,1,1-.809-.809A.8.8,0,0,1,488.485,51.318Z" transform="translate(-420.124 -50.407)" fill="#fff"/>
          <path id="Path_957" data-name="Path 957" d="M531.928,69.106h-.963V65.164a14.049,14.049,0,0,0-.27-2.927h.937l.218,1.309a2.509,2.509,0,0,1,2.131-1.451c1.284,0,1.592,1.258,1.592,2.3h-.963c-.026-.513.051-1.489-.681-1.489-.706,0-2,1.078-2,3.338Z" transform="translate(-456.082 -59.58)" fill="#fff"/>
          <path id="Path_958" data-name="Path 958" d="M573.32,65.922c.051,1.887.9,2.516,1.951,2.516a4.29,4.29,0,0,0,2.144-.732l.411.86a6.3,6.3,0,0,1-2.632.681c-2.029,0-2.837-1.746-2.837-3.53s.834-3.62,2.888-3.62c2.285,0,2.645,2.555,2.645,3.3v.526Zm3.607-.809c-.038-1.13-.68-2.208-1.759-2.208s-1.6.822-1.862,2.208Z" transform="translate(-489.065 -59.58)" fill="#fff"/>
        </g>
      </g>
      <path id="Path_959" data-name="Path 959" d="M8.356,30.369,0,21.625,8.356,0,16.71,21.625ZM1.243,21.377l7.113,7.444,7.111-7.444L8.356,2.968Z" fill="#fff"/>
      <path id="Path_960" data-name="Path 960" d="M44.019,30.369l-8.356-8.744L44.019,0l8.354,21.625Zm-7.113-8.992,7.113,7.444,7.112-7.444L44.019,2.968Z" transform="translate(-28.234)" fill="#fff"/>
    </g>
  </g>
</svg>
