<svg xmlns="http://www.w3.org/2000/svg" width="244.524" height="90.91" viewBox="0 0 244.524 90.91">
  <g id="Artwork_7" data-name="Artwork 7" transform="translate(122.262 45.455)">
    <g id="Group_34" data-name="Group 34" transform="translate(-122.262 -45.455)">
      <g id="Group_32" data-name="Group 32" transform="translate(104.689 16.043)">
        <path id="Path_165" data-name="Path 165" d="M494.218,76.477a7.029,7.029,0,0,0,1.846-.213c-.106,1.242-.284,3.762-.284,6.814,0,2.343.035,4.295.035,4.614a52.155,52.155,0,0,0,4.366-3.833c2.094-2.094,6.211-6.388,6.921-7.6a8.932,8.932,0,0,0,1.846.213,7.343,7.343,0,0,0,1.6-.213l.071.213c-.781.568-2.8,2.52-6.282,5.785-3.407,3.23-5.111,4.933-5.146,4.933,3.052,3.549,10.754,12.209,11.428,12.812v.816a10.706,10.706,0,0,0-2.236-.213,18.054,18.054,0,0,0-2.52.213c-1.739-3.017-6.1-7.844-9.973-12.067l-.106.142v4.508c0,2.2.071,4.933.284,7.418a8.318,8.318,0,0,0-1.988-.213,10.571,10.571,0,0,0-2.094.213c.39-6.282.426-7.276.426-12.209,0-6.353,0-7.063-.319-12.351A10.073,10.073,0,0,0,494.218,76.477Z" transform="translate(-490.659 -75.874)" fill="#1e5299"/>
        <path id="Path_166" data-name="Path 166" d="M595.067,117.712v.461H582.326v.142c0,2.874.568,4.082,1.526,5.288a5.269,5.269,0,0,0,4.4,1.987,6.6,6.6,0,0,0,5.643-2.875l.426.106a13.918,13.918,0,0,0-.249,2.13,9.113,9.113,0,0,1-6.6,2.307c-5.395,0-8.7-3.372-8.7-8.873,0-5.43,3.158-9.015,8.518-9.015C592.228,109.371,595.067,112.033,595.067,117.712Zm-3.549-1.029c0-3.868-1.455-5.891-4.295-5.891-2.7,0-4.436,1.81-4.862,5.891Z" transform="translate(-558.752 -101.847)" fill="#1e5299"/>
        <path id="Path_167" data-name="Path 167" d="M658.913,109.949a6.475,6.475,0,0,0,1.917-.213c2.626,7.489,4.472,11.961,4.649,12.28.284.5.319.71.568.71a2.33,2.33,0,0,0,.461-.781,89.591,89.591,0,0,0,4.543-12.209,5.031,5.031,0,0,0,1.561.213,3.454,3.454,0,0,0,1.455-.248,38.73,38.73,0,0,0-2.413,4.827c-3.052,6.637-7.417,15.616-9.121,21.65a2.9,2.9,0,0,0-1.242-.213,6.831,6.831,0,0,0-1.6.213c1.881-3.514,3.194-5.963,4.507-8.66-4.01-9.689-5.607-13.771-7.524-17.781A9.12,9.12,0,0,0,658.913,109.949Z" transform="translate(-619.866 -102.106)" fill="#1e5299"/>
        <path id="Path_168" data-name="Path 168" d="M784.233,76.406c1.243,0,2.485-.035,3.727-.035a15.172,15.172,0,0,1,5.324.6,5.07,5.07,0,0,1,3.336,5.146c0,3.443-2.13,5.608-6.956,6.353.461.674,9.156,11.925,9.156,11.925v.426a13.072,13.072,0,0,0-2.094-.213,22.952,22.952,0,0,0-2.555.213,98.922,98.922,0,0,0-8.7-11.89h-.923s.107,9.689.249,11.89a10.675,10.675,0,0,0-2.059-.213,7.227,7.227,0,0,0-1.881.213c.178-4.224.249-8.376.249-13.451,0-3.265-.071-6.282-.213-11.109A32.834,32.834,0,0,0,784.233,76.406Zm.284,4.295c0,5.182.035,6.069.035,6.992.319.036.958.071,1.065.071,2.981,0,4.721-.639,5.749-1.526a4.532,4.532,0,0,0,1.562-3.726c0-3.088-1.881-4.685-6.14-4.685a14.794,14.794,0,0,0-2.2.177C784.552,79.068,784.517,79.956,784.517,80.7Z" transform="translate(-717.291 -75.874)" fill="#1e5299"/>
        <path id="Path_169" data-name="Path 169" d="M878.276,76.406a1.939,1.939,0,0,1-1.952,1.916,1.909,1.909,0,0,1-1.916-1.916,1.934,1.934,0,1,1,3.868,0Zm-2.094,6.033a6.77,6.77,0,0,0,1.846-.213c-.213,3.9-.213,5.927-.213,9.334,0,2.094.107,4.543.249,7.844a5.634,5.634,0,0,0-1.739-.213,5.991,5.991,0,0,0-1.845.213c.142-3.088.248-6.389.248-9.05,0-3.372-.106-5.608-.284-8.127A6.49,6.49,0,0,0,876.183,82.439Z" transform="translate(-790.681 -74.454)" fill="#1e5299"/>
        <path id="Path_170" data-name="Path 170" d="M928.483,115.44c0,.745-.142,7.559-.142,7.631,0,2.982.106,3.549.106,3.727a6.145,6.145,0,0,0-1.81-.213,6.864,6.864,0,0,0-1.881.213c.249-3.017.32-6.992.32-9.228,0-4.188-1.171-6.034-4.117-6.034a4.541,4.541,0,0,0-4.295,2.626c-.355.816-.568,2.981-.568,6.743,0,2.2.142,4.082.284,5.892a8.262,8.262,0,0,0-1.881-.213,7.616,7.616,0,0,0-1.881.213c.248-3.194.355-5.217.355-9.618,0-2.13-.071-4.72-.178-7.7a8.566,8.566,0,0,0,1.774.213,7.942,7.942,0,0,0,1.739-.213l-.177,3.372a6.839,6.839,0,0,1,6.247-3.478C926.247,109.371,928.483,111.181,928.483,115.44Z" transform="translate(-820.657 -101.847)" fill="#1e5299"/>
        <path id="Path_171" data-name="Path 171" d="M1014.428,109.574c1.278,0,2.768-.106,3.23-.142a6.216,6.216,0,0,0-.107.888,9.19,9.19,0,0,0,.107.922c-.426-.036-1.668-.071-2.13-.071h-1.136a4.287,4.287,0,0,1,1.49,3.407c0,3.655-2.91,5.821-7.1,5.821-.5,0-2.2-.142-2.555-.142a1.584,1.584,0,0,0-1.526,1.7c0,1.207.674,1.881,4.011,1.881.851,0,1.881-.036,2.626-.036a7.338,7.338,0,0,1,4.792,1.313,4.345,4.345,0,0,1,1.491,3.513,7.522,7.522,0,0,1-3.478,6.034,10.511,10.511,0,0,1-5.891,1.491c-4.9,0-7.524-2.272-7.524-5.324,0-2.023,1.242-3.62,3.9-4.614-1.668-.461-2.626-1.384-2.626-2.946a3.736,3.736,0,0,1,2.875-3.478,4.964,4.964,0,0,1-3.442-4.969c0-3.513,2.839-5.785,6.956-5.785C1011.021,109.042,1011.27,109.574,1014.428,109.574ZM1009,134.7c3.514,0,5.679-1.917,5.679-4.472,0-2.52-2.094-3.833-5.785-3.833-3.514,0-5.5,1.491-5.5,4.082C1003.391,133,1005.556,134.7,1009,134.7Zm-.461-15.51c2.555,0,3.975-1.881,3.975-4.685,0-2.7-1.6-4.259-3.868-4.259-2.413,0-3.833,1.7-3.833,4.72C1004.811,117.631,1006.23,119.192,1008.537,119.192Z" transform="translate(-889.782 -101.589)" fill="#1e5299"/>
        <path id="Path_172" data-name="Path 172" d="M490.812,252.358a9.479,9.479,0,0,1-3.677-4.141,16.387,16.387,0,0,1,0-12.754,9.377,9.377,0,0,1,3.677-4.124,10.785,10.785,0,0,1,5.632-1.424,12.487,12.487,0,0,1,4.439.762,9.58,9.58,0,0,1,3.511,2.286l-.861,1.623A10.952,10.952,0,0,0,500.2,232.4a10.043,10.043,0,0,0-3.727-.663,7.763,7.763,0,0,0-6.278,2.65q-2.236,2.651-2.236,7.454,0,4.837,2.22,7.487a7.749,7.749,0,0,0,6.294,2.651,10.038,10.038,0,0,0,3.727-.663,10.937,10.937,0,0,0,3.329-2.186l.861,1.623a9.572,9.572,0,0,1-3.511,2.286,12.492,12.492,0,0,1-4.439.762A10.685,10.685,0,0,1,490.812,252.358Z" transform="translate(-485.843 -196.416)" fill="#1e5299"/>
        <path id="Path_173" data-name="Path 173" d="M585.33,279.726a6.887,6.887,0,0,1-2.6-2.915,10.924,10.924,0,0,1,0-8.812,6.893,6.893,0,0,1,2.6-2.916,7.859,7.859,0,0,1,7.769,0A6.756,6.756,0,0,1,595.7,268a11.11,11.11,0,0,1,0,8.812,6.751,6.751,0,0,1-2.6,2.915,7.859,7.859,0,0,1-7.769,0Zm7.8-2.653a9.144,9.144,0,0,0-.017-9.723,5.243,5.243,0,0,0-7.8,0,9.282,9.282,0,0,0-.033,9.723,4.724,4.724,0,0,0,3.909,1.69A4.821,4.821,0,0,0,593.132,277.073Z" transform="translate(-561.125 -223.202)" fill="#1e5299"/>
        <path id="Path_174" data-name="Path 174" d="M674.715,270.285v10.237h-2.021v-10.1a5.2,5.2,0,0,0-.961-3.478,3.856,3.856,0,0,0-3.048-1.094,5.139,5.139,0,0,0-3.826,1.458,5.317,5.317,0,0,0-1.441,3.909v9.309H661.4V264.455h1.988v2.75a5.366,5.366,0,0,1,2.2-2.335,6.671,6.671,0,0,1,3.329-.812Q674.715,264.057,674.715,270.285Z" transform="translate(-623.57 -223.202)" fill="#1e5299"/>
        <path id="Path_175" data-name="Path 175" d="M735.012,278.6l.762-1.557a8.489,8.489,0,0,0,2.584,1.507,9.1,9.1,0,0,0,2.982.447,5.4,5.4,0,0,0,3-.7,2.39,2.39,0,0,0,.348-3.661,4.735,4.735,0,0,0-2.22-.977l-2.716-.629a6.121,6.121,0,0,1-3.065-1.607,3.743,3.743,0,0,1-1.11-2.7,4.112,4.112,0,0,1,1.623-3.379,6.767,6.767,0,0,1,4.339-1.292,9.023,9.023,0,0,1,3.164.547,6.25,6.25,0,0,1,2.435,1.573l-.762,1.557a7.887,7.887,0,0,0-2.3-1.457,6.846,6.846,0,0,0-2.534-.464,4.854,4.854,0,0,0-2.849.729,2.552,2.552,0,0,0-.381,3.743,4.1,4.1,0,0,0,2,.994l2.75.663q4.372.994,4.373,4.307a3.865,3.865,0,0,1-1.673,3.28,7.5,7.5,0,0,1-4.522,1.225A9.014,9.014,0,0,1,735.012,278.6Z" transform="translate(-681.321 -223.202)" fill="#1e5299"/>
        <path id="Path_176" data-name="Path 176" d="M817.866,265.9V281.97h-1.988v-2.882a5.323,5.323,0,0,1-2.17,2.319,6.388,6.388,0,0,1-3.2.795,5.53,5.53,0,0,1-4.29-1.573,6.675,6.675,0,0,1-1.441-4.654V265.9H806.8v9.938a5.269,5.269,0,0,0,.944,3.462,3.682,3.682,0,0,0,2.965,1.11,4.914,4.914,0,0,0,3.727-1.475,5.445,5.445,0,0,0,1.408-3.925V265.9Z" transform="translate(-736.057 -224.65)" fill="#1e5299"/>
        <path id="Path_177" data-name="Path 177" d="M883.02,255.435V232.08h2.021v23.355Z" transform="translate(-797.437 -198.115)" fill="#1e5299"/>
        <path id="Path_178" data-name="Path 178" d="M912.137,262.287l-.1,1.689a11.526,11.526,0,0,1-1.557.1,5.384,5.384,0,0,1-4.108-1.474,5.627,5.627,0,0,1-1.392-4.025v-9.143H901.8V247.81h3.18v-4.969H907v4.969h4.7v1.623H907v8.878a4.361,4.361,0,0,0,.944,3.048,3.572,3.572,0,0,0,2.766,1.027A10.117,10.117,0,0,0,912.137,262.287Z" transform="translate(-812.171 -206.557)" fill="#1e5299"/>
        <path id="Path_179" data-name="Path 179" d="M960.862,234.684h2.826v2.72h-2.826Zm.377,22.794V241.411h2.021v16.067Z" transform="translate(-858.506 -200.158)" fill="#1e5299"/>
        <path id="Path_180" data-name="Path 180" d="M1003.905,270.285v10.237h-2.021v-10.1a5.193,5.193,0,0,0-.961-3.478,3.857,3.857,0,0,0-3.047-1.094,5.141,5.141,0,0,0-3.827,1.458,5.319,5.319,0,0,0-1.441,3.909v9.309h-2.021V264.455h1.987v2.75a5.371,5.371,0,0,1,2.2-2.335,6.672,6.672,0,0,1,3.33-.812Q1003.905,264.057,1003.905,270.285Z" transform="translate(-881.826 -223.202)" fill="#1e5299"/>
        <path id="Path_181" data-name="Path 181" d="M1080.761,264.455v15.139a7.375,7.375,0,0,1-1.74,5.317,6.833,6.833,0,0,1-5.151,1.806,11.153,11.153,0,0,1-6.957-2.22l.8-1.59a11.781,11.781,0,0,0,3,1.573,10.341,10.341,0,0,0,3.2.447,4.792,4.792,0,0,0,3.643-1.292,5.389,5.389,0,0,0,1.226-3.843v-3.147a5.278,5.278,0,0,1-2.136,2.5,6.6,6.6,0,0,1-3.5.878,7.109,7.109,0,0,1-3.76-.994,6.716,6.716,0,0,1-2.55-2.816,10.017,10.017,0,0,1,0-8.348,6.718,6.718,0,0,1,2.55-2.816,7.109,7.109,0,0,1,3.76-.994,6.64,6.64,0,0,1,3.446.845,5.305,5.305,0,0,1,2.153,2.468v-2.915Zm-3.429,12.125a8.008,8.008,0,0,0-.017-9.094,4.863,4.863,0,0,0-3.909-1.673,4.923,4.923,0,0,0-3.942,1.657,8.02,8.02,0,0,0,0,9.127,4.946,4.946,0,0,0,3.942,1.64A4.874,4.874,0,0,0,1077.332,276.58Z" transform="translate(-940.926 -223.202)" fill="#1e5299"/>
      </g>
      <g id="Group_33" data-name="Group 33">
        <path id="Path_182" data-name="Path 182" d="M84.835,22.769A45.447,45.447,0,1,0,68.141,84.835,45.447,45.447,0,0,0,84.835,22.769Zm-53.01.875A5.158,5.158,0,1,1,33.719,16.6,5.158,5.158,0,0,1,31.825,23.643ZM81.047,55.06a8.057,8.057,0,0,1-1.242,3.871A6.318,6.318,0,0,1,76.984,61.3a9,9,0,0,1-7.817-.622,6.4,6.4,0,0,1-1.408-1.217,4.036,4.036,0,0,1,.154.658,4.459,4.459,0,0,1-.632,2.918,2.977,2.977,0,0,1,2.559-.342l5.009,1.042L72.512,67.09l-6.045-1.564a1.621,1.621,0,0,0-1.619.546l-.792.842,4.488,4.05-2.682,2.653-9.12-8.081L55,70.067l9.418,4.827-4.077,1.8-7.89-3.932,1.94,5.777L50.867,79.95,45.455,66.443l3.525-1.412,2.327,5.8,2.756-7.083.59-.825,4.964-4.578a5.955,5.955,0,0,1,3.556-2.11,4.131,4.131,0,0,1,3.325,1.3c.072.067.14.136.206.205a8.133,8.133,0,0,1-.549-3.871,8.843,8.843,0,0,1,.652-2.715,6.358,6.358,0,0,1,1.326-2.081l2.584,1.388a6.346,6.346,0,0,0-1.548,3.566,3.352,3.352,0,0,0,.9,2.8,5.055,5.055,0,0,0,3.241,1.2,5.1,5.1,0,0,0,3.4-.672,3.337,3.337,0,0,0,1.338-2.619,6.338,6.338,0,0,0-.964-3.767l2.771-.96a6.335,6.335,0,0,1,.98,2.265A8.856,8.856,0,0,1,81.047,55.06Z" transform="translate(0 0)" fill="#4b1344"/>
        <path id="Path_183" data-name="Path 183" d="M279.409,277.035a3.111,3.111,0,0,0-1.53,1.04L276.07,280l2.466,2.318,1.809-1.925a3.184,3.184,0,0,0,.952-1.584,1.469,1.469,0,0,0-.558-1.275A1.521,1.521,0,0,0,279.409,277.035Z" transform="translate(-216.583 -217.324)" fill="#4b1344"/>
      </g>
    </g>
  </g>
</svg>
