<svg width="72" height="73" viewBox="0 0 72 73" fill="none" xmlns="http://www.w3.org/2000/svg">
<rect y="0.656433" width="72" height="72" rx="36" fill="#F4F5F7"/>
<g clip-path="url(#clip0_32_881)">
<path d="M42 34.6564H48L45 30.6564L42 34.6564ZM42 38.6564H48L45 42.6564L42 38.6564Z" fill="#D6B1FF"/>
<path d="M25 24.6564H31V48.6564H25C24.7348 48.6564 24.4804 48.5511 24.2929 48.3635C24.1054 48.176 24 47.9216 24 47.6564V25.6564C24 25.3912 24.1054 25.1369 24.2929 24.9493C24.4804 24.7618 24.7348 24.6564 25 24.6564Z" fill="#8C30F5"/>
<path d="M33 24.6564H39C39.2652 24.6564 39.5196 24.7618 39.7071 24.9493C39.8946 25.1369 40 25.3912 40 25.6564V47.6564C40 47.9216 39.8946 48.176 39.7071 48.3635C39.5196 48.5511 39.2652 48.6564 39 48.6564H33V24.6564Z" fill="#2EC5CE"/>
</g>
<defs>
<clipPath id="clip0_32_881">
<rect width="24" height="24" fill="white" transform="translate(24 24.6564)"/>
</clipPath>
</defs>
</svg>
