<svg width="72" height="73" viewBox="0 0 72 73" fill="none" xmlns="http://www.w3.org/2000/svg">
<rect y="0.656433" width="72" height="72" rx="36" fill="#F4F5F7"/>
<path d="M29 25.6564H26C25.7348 25.6564 25.4804 25.7618 25.2929 25.9493C25.1054 26.1369 25 26.3912 25 26.6564V46.6564C25 46.9216 25.1054 47.176 25.2929 47.3635C25.4804 47.5511 25.7348 47.6564 26 47.6564H29V25.6564Z" fill="#D6B1FF"/>
<path d="M31 47.6564H41V25.6564H31V47.6564ZM36 43.6564C35.7348 43.6564 35.4804 43.5511 35.2929 43.3635C35.1054 43.176 35 42.9216 35 42.6564C35 42.3912 35.1054 42.1369 35.2929 41.9493C35.4804 41.7618 35.7348 41.6564 36 41.6564C36.2652 41.6564 36.5196 41.7618 36.7071 41.9493C36.8946 42.1369 37 42.3912 37 42.6564C37 42.9216 36.8946 43.176 36.7071 43.3635C36.5196 43.5511 36.2652 43.6564 36 43.6564ZM36 29.6564C36.2652 29.6564 36.5196 29.7618 36.7071 29.9493C36.8946 30.1369 37 30.3912 37 30.6564C37 30.9216 36.8946 31.176 36.7071 31.3635C36.5196 31.5511 36.2652 31.6564 36 31.6564C35.7348 31.6564 35.4804 31.5511 35.2929 31.3635C35.1054 31.176 35 30.9216 35 30.6564C35 30.3912 35.1054 30.1369 35.2929 29.9493C35.4804 29.7618 35.7348 29.6564 36 29.6564ZM36 35.6564C36.2652 35.6564 36.5196 35.7618 36.7071 35.9493C36.8946 36.1369 37 36.3912 37 36.6564C37 36.9216 36.8946 37.176 36.7071 37.3635C36.5196 37.5511 36.2652 37.6564 36 37.6564C35.7348 37.6564 35.4804 37.5511 35.2929 37.3635C35.1054 37.176 35 36.9216 35 36.6564C35 36.3912 35.1054 36.1369 35.2929 35.9493C35.4804 35.7618 35.7348 35.6564 36 35.6564Z" fill="#8C30F5"/>
<path d="M46 25.6564H43V47.6564H46C46.2652 47.6564 46.5196 47.5511 46.7071 47.3635C46.8946 47.176 47 46.9216 47 46.6564V26.6564C47 26.3912 46.8946 26.1369 46.7071 25.9493C46.5196 25.7618 46.2652 25.6564 46 25.6564Z" fill="#2EC5CE"/>
</svg>
