<svg xmlns="http://www.w3.org/2000/svg" viewBox="0 0 32 32"><path d="M23.6 8.4c-1.4-.7-3-1.1-4.6-1.4h-.1l-.6 1.2c-1.7-.3-3.4-.3-5.1 0L12.6 7h-.1c-1.5.3-3 .8-4.5 1.4-2.9 4.4-3.7 8.6-3.3 12.8v.1c1.9 1.4 3.8 2.3 5.6 2.8h.1c.4-.6.8-1.2 1.1-1.9v-.1c-.6-.2-1.2-.5-1.7-.8v-.1l.3-.3h.1c3.7 1.7 7.6 1.7 11.3 0h.1l.3.3v.1c-.6.3-1.1.6-1.7.8 0 0-.1.1 0 .1.3.7.7 1.3 1.1 1.9h.1c1.8-.6 3.7-1.4 5.6-2.8v-.1c.4-4.8-.9-9-3.4-12.8zM12.1 18.6c-1.1 0-2-1-2-2.3s.9-2.3 2-2.3 2 1 2 2.3c0 1.3-.9 2.3-2 2.3zm7.4 0c-1.1 0-2-1-2-2.3s.9-2.3 2-2.3 2 1 2 2.3c0 1.3-.8 2.3-2 2.3z" fill="#fff"/></svg>
