<svg id="Layer_1" data-name="Layer 1" xmlns="http://www.w3.org/2000/svg" viewBox="0 0 210 210"><g id="Layer_2" data-name="Layer 2"><g id="Layer_1-2" data-name="Layer 1-2"><circle cx="104.77" cy="104.97" r="97.44" fill="#f76815"/><path d="M95.31,162.35l-4,17.66-7.63-1.72.6-2.64,3.73.84L89,172l-3.25-.73.62-2.73,3.25.74,1.79-7.81Z" fill="#fff"/><path d="M85.92,159.92l-6.45,16.92-3.74-1.42,6.44-16.91Z" fill="#fff"/><path d="M79.62,157.51l-9.18,15.62L68,171.7l1.22-9.4-4.42,7.52L62,168.15l9.17-15.64,2.34,1.37-1.56,10,4.76-8.1Z" fill="#fff"/><path d="M69.08,151.06,56.75,164.32l-3.36-3.12a9.31,9.31,0,0,1-2.3-2.95,3.4,3.4,0,0,1-.09-2.62,8.27,8.27,0,0,1,1.83-2.76l4.48-4.82A8.76,8.76,0,0,1,60,146a3.5,3.5,0,0,1,2.64-.12,8.66,8.66,0,0,1,3.09,2Zm-4.82-.7-.46-.42a2.43,2.43,0,0,0-1.15-.71,1.14,1.14,0,0,0-.91.25,7.82,7.82,0,0,0-1,.91l-5.38,5.79a5.12,5.12,0,0,0-.79,1,1,1,0,0,0-.1.88,2.75,2.75,0,0,0,.79,1l.45.41Z" fill="#fff"/><path d="M55.14,135.14l-6.45,3.64-7.63,8.27-1.86-3.29,4.11-4.32-5.75,1.48-1.78-3.16,11-2.33,6.44-3.64Z" fill="#fff"/><path d="M49.82,122.88a6.21,6.21,0,0,1,.32,3.28,4.07,4.07,0,0,1-1.43,2.26,9.16,9.16,0,0,1-2.88,1.48L39.43,132a8.94,8.94,0,0,1-3.2.5,4,4,0,0,1-2.45-1,6.23,6.23,0,0,1-1.67-2.84,6.34,6.34,0,0,1-.34-3.31,4,4,0,0,1,1.39-2.26A8.76,8.76,0,0,1,36,121.6l6.4-2.09a8.94,8.94,0,0,1,3.2-.5,4,4,0,0,1,2.49,1A6.36,6.36,0,0,1,49.82,122.88Zm-2.7.88a1.2,1.2,0,0,0-.58-.77,1.52,1.52,0,0,0-.89-.12,5,5,0,0,0-1,.23l-8.29,2.71a4.58,4.58,0,0,0-.94.4,1.51,1.51,0,0,0-.64.61,1.17,1.17,0,0,0,0,1,1.19,1.19,0,0,0,.57.73,1.53,1.53,0,0,0,.87.11,6.9,6.9,0,0,0,1-.23l8.3-2.71a6.26,6.26,0,0,0,.93-.38,1.61,1.61,0,0,0,.65-.59A1.18,1.18,0,0,0,47.12,123.76Z" fill="#fff"/><path d="M47.22,110.28a6.68,6.68,0,0,1-.39,3.31A3.67,3.67,0,0,1,45,115.4a9.5,9.5,0,0,1-3.15.76L29.4,117.3,29,113.36l13.05-1.19a10.11,10.11,0,0,0,1.1-.19,2,2,0,0,0,.88-.48,1.15,1.15,0,0,0,.24-1,1.13,1.13,0,0,0-.44-.91,1.78,1.78,0,0,0-1-.28,7,7,0,0,0-1.12,0l-13,1.2-.36-4,12.53-1a9.3,9.3,0,0,1,3.24.19,3.66,3.66,0,0,1,2.13,1.46A6.51,6.51,0,0,1,47.22,110.28Z" fill="#fff"/><path d="M46.54,102.6l-18-2.31.63-5a11.08,11.08,0,0,1,.81-3.1,3.8,3.8,0,0,1,1.69-1.89,4.92,4.92,0,0,1,3-.36,9.31,9.31,0,0,1,1.95.43,3.56,3.56,0,0,1,1.41.84,3.8,3.8,0,0,1,.88,1.5l9-1.34-.46,4.14-8.3.94L39,97.58l8,1Zm-9.82-5.3.14-1.11a2.48,2.48,0,0,0-.13-1.35,1.56,1.56,0,0,0-.78-.76,4.18,4.18,0,0,0-1.34-.37,3.35,3.35,0,0,0-1.85.19,1.74,1.74,0,0,0-.85,1.47l-.16,1.29Z" fill="#fff"/><path d="M50.39,83.93l-16.24-8,2.09-4.24a13.36,13.36,0,0,1,1.14-1.89,5,5,0,0,1,1.43-1.35,3.31,3.31,0,0,1,1.84-.5,5.47,5.47,0,0,1,2.4.67,4.59,4.59,0,0,1,1.51,1.11,3.07,3.07,0,0,1,.67,1.35,3.35,3.35,0,0,1-.09,1.54,3.49,3.49,0,0,1,1.39-1.28,3.38,3.38,0,0,1,1.8-.32,5.65,5.65,0,0,1,2.15.65,6.94,6.94,0,0,1,2,1.4,4.09,4.09,0,0,1,1,1.69,4.23,4.23,0,0,1,.1,2A8.1,8.1,0,0,1,52.83,79Zm-8-8.4.35-.71a2.77,2.77,0,0,0,.39-1.31,1.44,1.44,0,0,0-.45-.94,4.13,4.13,0,0,0-1.09-.72,2.48,2.48,0,0,0-1.18-.34,1.59,1.59,0,0,0-1,.36,2.83,2.83,0,0,0-.78,1l-.32.64Zm7.24,3.57.38-.76a2.13,2.13,0,0,0,.2-1.93,3.2,3.2,0,0,0-1.54-1.32,4.58,4.58,0,0,0-1.56-.53,1.6,1.6,0,0,0-1.12.27A2.91,2.91,0,0,0,45.12,76l-.36.74Z" fill="#fff"/><path d="M56.54,72.43,42.2,61.36l5-6.44,2.11,1.66-2.53,3.28,3.56,2.75,2-2.5L54.5,61.8l-1.93,2.5,4.29,3.31,2.55-3.31L61.56,66Z" fill="#fff"/><path d="M66.51,61.66A6,6,0,0,1,64,63.1a3.86,3.86,0,0,1-2.53-.24,8.75,8.75,0,0,1-2.67-2L61,58.2a8.88,8.88,0,0,0,1.41,1.25,2,2,0,0,0,1.09.41,1.25,1.25,0,0,0,.81-.35.81.81,0,0,0,.33-.86,2.2,2.2,0,0,0-.46-.8,3.18,3.18,0,0,0-1.66-1,8,8,0,0,0-2.12-.19H58.33a9.2,9.2,0,0,1-2.61-.32,5.05,5.05,0,0,1-2.36-1.57A4.51,4.51,0,0,1,52,51.23,5.4,5.4,0,0,1,54,47.85a4.89,4.89,0,0,1,2.07-1.19,3.36,3.36,0,0,1,1.86.06,5.14,5.14,0,0,1,1.59.83,11.37,11.37,0,0,1,1.26,1.14L58.48,51.3a10.49,10.49,0,0,0-1-1,1.88,1.88,0,0,0-.85-.47,1,1,0,0,0-1.09.9,1.15,1.15,0,0,0,0,.26,2,2,0,0,0,.44.87,2.64,2.64,0,0,0,1.45.9,9.36,9.36,0,0,0,1.83.15h2a10.15,10.15,0,0,1,3,.36A5.62,5.62,0,0,1,67,55.08a4.55,4.55,0,0,1,1.13,2.13,4.29,4.29,0,0,1-.13,2.3A5.06,5.06,0,0,1,66.51,61.66Z" fill="#fff"/><path d="M72.87,56.42,65,43.51l-2.33,1.4-1.55-2.54,8.08-4.92L70.74,40,68.43,41.4l7.88,12.92Z" fill="#fff"/><path d="M85.64,50,80.72,32.6l7.53-2.09L89,33.12l-3.68,1,1.24,4.4,3.2-.9.76,2.69-3.2.9L89.5,49Z" fill="#fff"/><path d="M95.08,47.68l-2.4-18,4-.53,2.39,18Z" fill="#fff"/><path d="M103.47,46.89l.2-15.14h-2.73v-3l9.46.12v3h-2.71L107.49,47Z" fill="#fff"/><path d="M122.17,49.86a6.18,6.18,0,0,1-2.54-1.41,3.92,3.92,0,0,1-1.1-2.29,8.66,8.66,0,0,1,.34-3.32l3.43.51a7.74,7.74,0,0,0-.35,1.86,2.06,2.06,0,0,0,.21,1.14,1.25,1.25,0,0,0,.71.54.8.8,0,0,0,.9-.17,2.08,2.08,0,0,0,.45-.79,3.25,3.25,0,0,0,0-2,8.24,8.24,0,0,0-.93-1.91l-1.1-1.76a8.69,8.69,0,0,1-1.08-2.41,5,5,0,0,1,.13-2.82,4.45,4.45,0,0,1,2.34-3,5.33,5.33,0,0,1,3.91-.07,4.84,4.84,0,0,1,2.09,1.15,3.42,3.42,0,0,1,.9,1.62,5.12,5.12,0,0,1,.11,1.79,12,12,0,0,1-.31,1.67l-3.42-.6a12.91,12.91,0,0,0,.31-1.37,1.89,1.89,0,0,0,0-1,1,1,0,0,0-1.34-.46.7.7,0,0,0-.21.14,1.86,1.86,0,0,0-.52.82,2.64,2.64,0,0,0,0,1.71,9.26,9.26,0,0,0,.81,1.64l1,1.71a9.94,9.94,0,0,1,1.24,2.76A5.66,5.66,0,0,1,128,46.8a4.83,4.83,0,0,1-1.23,2,4.38,4.38,0,0,1-2.06,1.09A5,5,0,0,1,122.17,49.86Z" fill="#fff"/><path d="M132.87,54.51a6.21,6.21,0,0,1-2.49-2.22,4.11,4.11,0,0,1-.46-2.66,9.21,9.21,0,0,1,1.11-3l3.15-5.72a9.51,9.51,0,0,1,2-2.59,4,4,0,0,1,2.49-1,6.08,6.08,0,0,1,3.21.92,6.17,6.17,0,0,1,2.43,2.1,3.61,3.61,0,0,1,.51,2.38,7.62,7.62,0,0,1-.9,2.62l-.76,1.37-3.43-1.89.88-1.59c.16-.3.31-.61.44-.92a1.45,1.45,0,0,0,.11-.87,1.11,1.11,0,0,0-.64-.73,1.22,1.22,0,0,0-1-.16,1.55,1.55,0,0,0-.73.56,6,6,0,0,0-.59.89l-4.11,7.46a6,6,0,0,0-.45,1,1.53,1.53,0,0,0,0,.9,1.25,1.25,0,0,0,.63.69,1.13,1.13,0,0,0,.93.15,1.72,1.72,0,0,0,.7-.58,8.25,8.25,0,0,0,.57-.88l.92-1.67L140.81,51l-.75,1.37a8,8,0,0,1-1.75,2.18,3.89,3.89,0,0,1-2.32.92A6.11,6.11,0,0,1,132.87,54.51Z" fill="#fff"/><path d="M139.31,58l12-13.54,3,2.66-4.88,5.48,2.09,1.86,4.88-5.48,3,2.68L147.31,65.15l-3-2.64,5.26-5.91-2.09-1.86-5.17,5.88Z" fill="#fff"/><path d="M151.82,71.43a6.21,6.21,0,0,1-1.29-3,4,4,0,0,1,.69-2.57,8.9,8.9,0,0,1,2.31-2.35l5.48-3.9a8.62,8.62,0,0,1,2.91-1.44,4,4,0,0,1,2.63.21A6.14,6.14,0,0,1,167,60.6a6.35,6.35,0,0,1,1.32,3.08,4,4,0,0,1-.66,2.57,9.14,9.14,0,0,1-2.34,2.26l-5.48,3.9a9,9,0,0,1-2.9,1.44,4,4,0,0,1-2.67-.2A6.29,6.29,0,0,1,151.82,71.43Zm2.31-1.64a1.3,1.3,0,0,0,.79.56,1.63,1.63,0,0,0,.87-.16,5.16,5.16,0,0,0,.88-.51l7.1-5.06a6.18,6.18,0,0,0,.78-.66,1.54,1.54,0,0,0,.42-.77,1.15,1.15,0,0,0-.27-.93,1.12,1.12,0,0,0-.76-.53,1.46,1.46,0,0,0-.87.15,5.22,5.22,0,0,0-.88.52l-7.11,5.11a5.89,5.89,0,0,0-.77.65,1.48,1.48,0,0,0-.45.76,1.21,1.21,0,0,0,.27.87Z" fill="#fff"/><path d="M158.06,82.63a6.25,6.25,0,0,1-.58-3.24A4,4,0,0,1,158.72,77a8.64,8.64,0,0,1,2.75-1.71l6.2-2.6a8.78,8.78,0,0,1,3.15-.77,4,4,0,0,1,2.52.79,6.14,6.14,0,0,1,1.9,2.69,6.4,6.4,0,0,1,.61,3.28,4,4,0,0,1-1.2,2.36,9.13,9.13,0,0,1-2.75,1.71l-6.21,2.6a9.22,9.22,0,0,1-3.15.77,4,4,0,0,1-2.56-.78A6.34,6.34,0,0,1,158.06,82.63Zm2.62-1.1a1.2,1.2,0,0,0,.65.73,1.64,1.64,0,0,0,.88,0,7.21,7.21,0,0,0,1-.31l8-3.37a7,7,0,0,0,.9-.48,1.57,1.57,0,0,0,.59-.66,1.2,1.2,0,0,0-.07-1,1.16,1.16,0,0,0-.62-.68,1.47,1.47,0,0,0-.88,0,5,5,0,0,0-1,.31l-8,3.37a6.42,6.42,0,0,0-.9.47,1.43,1.43,0,0,0-.6.64,1.15,1.15,0,0,0,.05,1Z" fill="#fff"/><path d="M161,89.88l17.75-3.61.8,3.92-15.1,3.07.82,4.08-2.65.53Z" fill="#fff"/><polygon points="173.49 106.45 175.66 109.33 179.12 108.28 179.19 111.89 182.6 113.07 180.53 116.04 182.6 119 179.19 120.18 179.12 123.79 175.66 122.74 173.49 125.62 171.31 122.74 167.85 123.79 167.79 120.18 164.37 119 166.44 116.04 164.37 113.07 167.79 111.89 167.85 108.28 171.31 109.33 173.49 106.45" fill="#fff"/><path d="M67.2,108.51C81.2,94.61,94.52,80,108,65.59c1-1.06-.61-2.65-1.6-1.59C92.92,78.42,79.63,93,65.61,106.9a1.12,1.12,0,0,0,.09,1.59,1.14,1.14,0,0,0,1.5,0Z" fill="#fff"/><path d="M65.12,109q19.89,19.2,40.26,37.9c1.07,1,2.66-.61,1.59-1.59q-20.41-18.66-40.25-37.9C65.72,106.39,64.08,108,65.12,109Z" fill="#fff"/><path d="M106.91,147c10.24-4.13,21.14-6.52,31.15-11.26,1.3-.62.16-2.56-1.14-1.94-9.82,4.65-20.55,7-30.61,11-1.32.53-.74,2.71.6,2.17Z" fill="#fff"/><path d="M106.67,65.6q19.22,18.72,39.08,36.77c1.07,1,2.67-.61,1.59-1.59q-19.86-18-39-36.77c-1-1-2.63.58-1.59,1.59Z" fill="#fff"/><path d="M139.14,134.82c3.14-10.81,7.14-21.38,9-32.52.24-1.42-1.93-2-2.17-.6-1.86,11.14-5.86,21.72-9,32.52a1.13,1.13,0,0,0,2.17.6Z" fill="#fff"/><path d="M86.06,100.58l4.37-5H88.84L99.36,106a1.15,1.15,0,0,0,1.6,0c2.09-2.07,4.11-4.2,6-6.42A1.16,1.16,0,0,0,107,98c-3.5-3.43-7.08-6.82-10.65-10.25v1.59c.68-.77,1.39-1.53,2.1-2.27s1.3-1.68,2.07-2l-.87.11c.55.11,1.18.87,1.59,1.22l1.45,1.24c1,.84,1.91,1.68,2.86,2.54,1.77,1.59,3.52,3.22,5.23,4.88a3.5,3.5,0,0,1,1.33,2.75c.06,1.26.46,3-.43,4-1.59,1.79-3.28,3.51-4.91,5.26-.87.92-1.69,1.93-2.62,2.8a2.92,2.92,0,0,1-2.06.7c-.88.09-1.73.35-2.61.47a3.06,3.06,0,0,1-2.85-1.28c-3.6-3.5-7.13-7.07-10.72-10.57-1-1-2.63.58-1.59,1.59,3.9,3.71,7.58,7.71,11.59,11.36,1.55,1.4,3.28,1.23,5.2.84.81-.16,1.66-.12,2.46-.3a4.8,4.8,0,0,0,2.53-1.6l5.4-5.78c.79-.79,1.55-1.61,2.26-2.47.83-1.1.74-2.25.69-3.56a15.53,15.53,0,0,0-.26-3.27,5.06,5.06,0,0,0-1.62-2.39q-2.82-2.76-5.75-5.38c-1.13-1-2.26-2-3.41-3-.86-.73-2-2.09-3.13-2.26s-1.79.86-2.48,1.57c-1,1-2,2.1-3,3.2a1.14,1.14,0,0,0,0,1.59c3.55,3.44,7.11,6.83,10.66,10.26V98c-1.94,2.22-4,4.35-6.06,6.42H101L90.43,94a1.12,1.12,0,0,0-1.59,0l-4.37,5c-.94,1.09.64,2.69,1.59,1.59Z" fill="#fff"/><path d="M128.62,131.51a72.36,72.36,0,0,0-.27-13,77.68,77.68,0,0,1-.64-13.11c.1-1.45-2.15-1.44-2.25,0a77.68,77.68,0,0,0,.64,13.11,72.36,72.36,0,0,1,.27,13C126.25,133,128.5,133,128.62,131.51Z" fill="#fff"/><path d="M127.12,104.11a6.78,6.78,0,0,1-1.64-9.44,6.91,6.91,0,0,1,1.7-1.67h-1.13a5.92,5.92,0,0,1,2.51,5,6.78,6.78,0,0,1-2.2,5.47c-1.09,1,.51,2.54,1.59,1.59a9,9,0,0,0,2.86-7.28,8.13,8.13,0,0,0-3.63-6.68,1,1,0,0,0-1.13,0,9,9,0,0,0-.07,15,1.14,1.14,0,0,0,1.54-.4,1.16,1.16,0,0,0-.4-1.54Z" fill="#fff"/><path d="M127.92,113.16a8,8,0,0,1,7.29-6.38l-1.08-.82c.67,1.77-.1,3.65-1.22,5.14s-2.82,2.81-4.72,2.51a1.13,1.13,0,0,0-.6,2.17c2.89.45,5.37-1.08,7.08-3.3,1.51-2,2.55-4.67,1.63-7.12a1.18,1.18,0,0,0-1.09-.85,10.3,10.3,0,0,0-9.46,8,1.13,1.13,0,0,0,2.12.79,1.8,1.8,0,0,0,0-.19Z" fill="#fff"/><path d="M128.21,113.86c-.58-1.64-.71-3.54-2-4.85a8.51,8.51,0,0,0-4.79-2.38,5.9,5.9,0,0,0-2.8.15,3.93,3.93,0,0,0-1.31.73,1.48,1.48,0,0,0-.25,2c.59.93,1.13,1.88,1.67,2.84a12.42,12.42,0,0,0,1.84,2.59c1.74,1.76,4.54,2.43,6.56.72a1.12,1.12,0,1,0-1.59-1.59h0a2,2,0,0,1-1.74.28,4,4,0,0,1-1.93-1.32,12.88,12.88,0,0,1-1.43-2.24c-.23-.43-.46-.86-.7-1.28-.14-.23-.28-.46-.43-.69l-.18-.27-.13-.18c-.08-.12-.06-.06,0,.18l-.15.57c-.18.27,0,.08.08,0l.15-.07a3.58,3.58,0,0,1,.64-.18h1.19a6.73,6.73,0,0,1,2.73,1,2,2,0,0,1,.3.2s.28.21.15.1c.17.14.34.29.49.44s.22.26.1.1a1.41,1.41,0,0,1,.18.29,4,4,0,0,1,.24.51c.36,1,.52,2,.87,3a1.16,1.16,0,0,0,1.38.78,1.13,1.13,0,0,0,.79-1.38Z" fill="#fff"/><path d="M108.58,126.51c8.74.15,17.43-.83,26.15-1a1.13,1.13,0,0,0,0-2.25c-8.72.19-17.41,1.17-26.15,1a1.13,1.13,0,0,0,0,2.25Z" fill="#fff"/><path d="M106.46,125.36a11,11,0,0,1-2.69,2,3.86,3.86,0,0,1-3.17.27A15.87,15.87,0,0,1,98,126.27a10.36,10.36,0,0,1-2.3-1.64l-.22,1.77c1.15-.68,2.27-1.42,3.47-2a9.36,9.36,0,0,1,1.75-.69,4.79,4.79,0,0,1,.84-.16H102a7.33,7.33,0,0,1,2.54,1,8.42,8.42,0,0,1,1.36.86,3,3,0,0,1,.63.65c.75,1.24,2.7.11,1.94-1.13a6.86,6.86,0,0,0-2.57-2.21,10.42,10.42,0,0,0-3.31-1.31c-3-.52-5.88,1.68-8.3,3.11A1.14,1.14,0,0,0,94,126.1a1.33,1.33,0,0,0,.14.19,12.49,12.49,0,0,0,2.83,2,14.91,14.91,0,0,0,3.49,1.66c2.89.77,5.65-1,7.65-2.92,1-1-.56-2.6-1.6-1.59Z" fill="#fff"/><path d="M115.86,123.72a13.69,13.69,0,0,1-4.15-3,5.36,5.36,0,0,1-1-1.83,8.65,8.65,0,0,1-.24-2.68l-1.16,1.14a8.94,8.94,0,0,1,4.77,1.94c1.29,1.07,2.72,2.75,2,4.46a1.12,1.12,0,1,0,1.94,1.13,5,5,0,0,0,.17-3.94,8.24,8.24,0,0,0-2.28-3.07,11.25,11.25,0,0,0-6.56-2.77,1.13,1.13,0,0,0-1.13,1.13,11.28,11.28,0,0,0,.3,3.22,7.68,7.68,0,0,0,1.43,2.67,14.77,14.77,0,0,0,4.77,3.55,1.17,1.17,0,0,0,1.54-.41A1.13,1.13,0,0,0,115.86,123.72Z" fill="#fff"/><path d="M116.64,124.2a6.12,6.12,0,0,0-5.83,2.73,11.84,11.84,0,0,0-1.54,2.84,6.55,6.55,0,0,0-.53,3.33,1.17,1.17,0,0,0,1.13,1.13,9.27,9.27,0,0,0,6.5-2.33,7.11,7.11,0,0,0,2.17-6.37,1.12,1.12,0,0,0-1.38-.78,1.15,1.15,0,0,0-.79,1.38c.06.36,0-.19,0,.18v1h0v.12a.58.58,0,0,1-.08.35,6,6,0,0,1-.22.68v.12c0,.11-.1.22-.16.33s-.22.38-.35.57l-.11.16-.23.27a4.17,4.17,0,0,1-.47.47,6.93,6.93,0,0,1-4.82,1.59l1.12,1.12a7,7,0,0,1,1.54-4.72,5.13,5.13,0,0,1,1.58-1.53,3,3,0,0,1,1-.42h.91a1.15,1.15,0,0,0,1.38-.79,1.13,1.13,0,0,0-.78-1.38Z" fill="#fff"/></g></g></svg>