<svg id="Layer_1" data-name="Layer 1" xmlns="http://www.w3.org/2000/svg" viewBox="0 0 210 210"><g id="Layer_2" data-name="Layer 2"><g id="Layer_1-2" data-name="Layer 1-2"><path d="M99.43,4.76c2.94-3.92,7.74-3.92,10.68,0L123.84,23a13.71,13.71,0,0,0,13.73,4.51l21.87-6.66c4.61-1.38,8.53,1.37,8.63,6.27l.49,22.75a13.54,13.54,0,0,0,8.53,11.77l21.57,7.45c4.61,1.57,6.08,6.18,3.33,10.1L188.85,97.92a13.83,13.83,0,0,0,0,14.51L202,131.16c2.75,4,1.28,8.53-3.33,10.1L177,148.71a13.75,13.75,0,0,0-8.53,11.67l-.39,22.85c-.1,4.81-3.93,7.65-8.63,6.28l-21.87-6.67a13.51,13.51,0,0,0-13.73,4.51l-13.73,18.24c-2.94,3.82-7.74,3.82-10.59,0L85.8,187.35a13.71,13.71,0,0,0-13.73-4.51L50.2,189.51c-4.71,1.37-8.63-1.38-8.73-6.28l-.39-22.85a13.49,13.49,0,0,0-8.53-11.67L11,141.26c-4.61-1.57-6.08-6.08-3.34-10.1l13.14-18.73a13.79,13.79,0,0,0,0-14.51L7.54,79.19c-2.74-4-1.27-8.53,3.34-10.1l21.57-7.45A13.44,13.44,0,0,0,41,49.87L41.37,27c.1-4.9,3.93-7.65,8.63-6.27l21.87,6.67A13.53,13.53,0,0,0,85.6,22.9Z" fill="#f76815"/><path d="M54,91.35a5.32,5.32,0,0,1-1.56,2.45,4,4,0,0,1-2.26.79A7.41,7.41,0,0,1,47.36,94L42,92a9.46,9.46,0,0,1-2.55-1.38,3.32,3.32,0,0,1-1.17-2.06,5,5,0,0,1,.39-2.94,5.29,5.29,0,0,1,1.47-2.35,3.12,3.12,0,0,1,2-.79,7,7,0,0,1,2.45.4l1.28.49-1.18,3.23-1.47-.59-.88-.29a1.08,1.08,0,0,0-.79,0,1.05,1.05,0,0,0-.59.69,1.47,1.47,0,0,0,0,.88,1.17,1.17,0,0,0,.59.59c.3.1.59.29.89.39l7.06,2.55c.29.1.68.2,1,.29a2.07,2.07,0,0,0,.78-.09c.29-.1.39-.4.49-.69a1.33,1.33,0,0,0,0-.88,1.35,1.35,0,0,0-.59-.49c-.29-.1-.59-.3-.88-.4L48.63,88l1.18-3.24,1.27.49a5.61,5.61,0,0,1,2.06,1.27,3.06,3.06,0,0,1,1.08,1.87A4.91,4.91,0,0,1,54,91.35Z" fill="#fff"/><path d="M56.28,85.37,42.55,77.13l1.86-3,11.67,7L58,77.92,60,79.09Z" fill="#fff"/><path d="M60.3,78.5,50.4,65.66l2.64-3L67,71.05,64.81,73.5,62,71.64,60.4,73.4l2.16,2.65ZM59,71.74l1.07-1.28-5.19-3.53Z" fill="#fff"/><path d="M68.24,70.17,58.14,57.72l2.75-2.26L71,67.91Z" fill="#fff"/><path d="M72.66,66.34,65.2,52.13l3.34-1.77,6,7.36L71.87,48.6l3.24-1.77L83,60.76,80.7,61.93l-5.4-9.22,3.43,10.2-2,1.08-6.86-8.43,4.9,9.51Z" fill="#fff"/><path d="M91.78,58.3,90.6,51.83,85.89,43.1l3.24-.58,2.35,4.7.39-5.1L95,41.54l-1.27,9.8,1.17,6.47Z" fill="#fff"/><path d="M103.64,57.42a5.79,5.79,0,0,1-2.84-.69,3.44,3.44,0,0,1-1.47-1.86A8.87,8.87,0,0,1,98.94,52l.09-6a9.31,9.31,0,0,1,.49-2.85,3.12,3.12,0,0,1,1.57-1.76,4.83,4.83,0,0,1,2.85-.59,5.79,5.79,0,0,1,2.84.69,3.6,3.6,0,0,1,1.47,1.76,6.92,6.92,0,0,1,.39,2.84l-.1,5.89a8.91,8.91,0,0,1-.49,2.84,3.47,3.47,0,0,1-1.56,1.77A5.1,5.1,0,0,1,103.64,57.42Zm0-2.55a1.15,1.15,0,0,0,.79-.29,2.68,2.68,0,0,0,.39-.69,2.65,2.65,0,0,0,.1-.88l.09-7.75a2.93,2.93,0,0,0-.09-.88,1.5,1.5,0,0,0-.3-.69,1.12,1.12,0,0,0-.78-.29,1.15,1.15,0,0,0-.79.29,1.73,1.73,0,0,0-.39.69,2.65,2.65,0,0,0-.1.88l-.09,7.65v.88a.88.88,0,0,0,.29.69c.29.39.59.49.88.39Z" fill="#fff"/><path d="M114.92,58.79a5.5,5.5,0,0,1-2.65-1.27,3.41,3.41,0,0,1-1-2.06,8.88,8.88,0,0,1,.2-2.84l2.45-10.79,3.43.78-2.65,11.28c-.1.3-.1.69-.19,1a1.47,1.47,0,0,0,.19.88c.2.3.39.49.69.49a1,1,0,0,0,.88-.09,1.81,1.81,0,0,0,.49-.69c.1-.29.2-.69.3-1l2.74-11.18,3.43.79L120.7,54.87a7.86,7.86,0,0,1-1.07,2.65,2.94,2.94,0,0,1-1.87,1.37A4,4,0,0,1,114.92,58.79Z" fill="#fff"/><path d="M121.49,60.46l7.06-14.41,3.92,2a7.45,7.45,0,0,1,2.35,1.57,3,3,0,0,1,1.08,2,4.17,4.17,0,0,1-.59,2.65c-.29.49-.58,1.07-.88,1.47a3.34,3.34,0,0,1-1.08,1,4,4,0,0,1-1.47.29l-1.47,7.94-3.33-1.57,1.57-7.15-.89-.49-3.13,6.47Zm7.25-6.77.89.4a2.66,2.66,0,0,0,1.17.29,1.75,1.75,0,0,0,.89-.39,3.58,3.58,0,0,0,.68-1,3.06,3.06,0,0,0,.4-1.57,1.72,1.72,0,0,0-1-1.18l-1-.49Z" fill="#fff"/><path d="M138.94,72a4.8,4.8,0,0,1-1.47-2.16,3,3,0,0,1,0-2.25A7.9,7.9,0,0,1,139,65.17l2.45,1.76a12.13,12.13,0,0,0-1,1.28,1.69,1.69,0,0,0-.29,1,.73.73,0,0,0,.39.68.75.75,0,0,0,.78.2,1.74,1.74,0,0,0,.69-.49,3,3,0,0,0,.79-1.57,6.44,6.44,0,0,0,0-1.86l-.2-1.77a9.27,9.27,0,0,1,.1-2.35,4.72,4.72,0,0,1,1.17-2.16,4,4,0,0,1,3-1.37A5,5,0,0,1,150.12,60a3.54,3.54,0,0,1,1.18,1.77,3.28,3.28,0,0,1,.1,1.66,4.77,4.77,0,0,1-.59,1.47l-.88,1.18-2.46-1.86a7.38,7.38,0,0,0,.79-1,2.09,2.09,0,0,0,.39-.79.89.89,0,0,0-.29-.68.76.76,0,0,0-.79-.2,1.36,1.36,0,0,0-.78.49,2.31,2.31,0,0,0-.69,1.37,4.69,4.69,0,0,0,0,1.67l.2,1.76a11.74,11.74,0,0,1-.1,2.65A5.05,5.05,0,0,1,144.83,72a5.65,5.65,0,0,1-1.77,1.18,3.79,3.79,0,0,1-2.06,0A4.42,4.42,0,0,1,138.94,72Z" fill="#fff"/><path d="M145.61,80a5.56,5.56,0,0,1-1.08-2.74,3.63,3.63,0,0,1,.69-2.26,7.81,7.81,0,0,1,2.06-2l4.7-3.23a9.11,9.11,0,0,1,2.55-1.28,3.3,3.3,0,0,1,2.36.2,5.31,5.31,0,0,1,2.16,2,5.24,5.24,0,0,1,1.07,2.65,2.92,2.92,0,0,1-.49,2.06A5.78,5.78,0,0,1,157.87,77l-1.18.79-2-2.85,1.28-.88a4.12,4.12,0,0,0,.68-.59,1,1,0,0,0,.39-.68.78.78,0,0,0-.19-.79c-.2-.29-.39-.49-.69-.49a1,1,0,0,0-.78.2,2.12,2.12,0,0,0-.79.49l-6.18,4.31c-.29.2-.49.39-.78.59a1.56,1.56,0,0,0-.39.69,1.07,1.07,0,0,0,.19.78c.1.3.4.39.69.49a1.2,1.2,0,0,0,.78-.19,2.25,2.25,0,0,0,.79-.49l1.37-1,2,2.84-1.17.78a6.72,6.72,0,0,1-2.26,1.08,3.3,3.3,0,0,1-2.16-.19A12.31,12.31,0,0,1,145.61,80Z" fill="#fff"/><path d="M149.34,85.27l14.8-6.08,1.38,3.24-6,2.45,1,2.25,6-2.45,1.37,3.24L153.06,94l-1.37-3.24,6.47-2.65-1-2.25-6.47,2.65Z" fill="#fff"/><path d="M154,100.76a5.11,5.11,0,0,1,.2-2.94,3.43,3.43,0,0,1,1.57-1.76,7,7,0,0,1,2.74-.89l5.89-1a7.14,7.14,0,0,1,2.84,0,3.66,3.66,0,0,1,2,1.18,7.26,7.26,0,0,1,1,5.69,3.25,3.25,0,0,1-1.47,1.76,6.79,6.79,0,0,1-2.74.88l-5.89,1a7.15,7.15,0,0,1-2.84,0,4,4,0,0,1-2.06-1.18A5,5,0,0,1,154,100.76Zm2.55-.39a1.23,1.23,0,0,0,.4.79,1.94,1.94,0,0,0,.78.19,2.65,2.65,0,0,0,.88-.1L166.2,100a2.86,2.86,0,0,0,.89-.2c.29-.1.49-.19.58-.39a.93.93,0,0,0,.1-.88.82.82,0,0,0-.39-.69,1.83,1.83,0,0,0-.78-.19,3,3,0,0,0-.89.09L158.06,99a3.16,3.16,0,0,0-.88.19,1.54,1.54,0,0,0-.68.4A2.62,2.62,0,0,0,156.59,100.37Z" fill="#fff"/><path d="M154.73,112.14a6,6,0,0,1,.78-2.85,3.31,3.31,0,0,1,1.87-1.37,6.9,6.9,0,0,1,2.84-.29l5.89.29a7.41,7.41,0,0,1,2.84.59,2.94,2.94,0,0,1,1.67,1.57,5.74,5.74,0,0,1,.49,2.84,6,6,0,0,1-.79,2.85,3.29,3.29,0,0,1-1.86,1.37,6.93,6.93,0,0,1-2.85.29l-5.88-.29a7.41,7.41,0,0,1-2.84-.59,3.41,3.41,0,0,1-1.77-1.57A6.92,6.92,0,0,1,154.73,112.14Zm2.45.1a1,1,0,0,0,.2.78,1.52,1.52,0,0,0,.68.39,2.71,2.71,0,0,0,.89.1l7.65.39h.88a.89.89,0,0,0,.68-.29,1.11,1.11,0,0,0,.3-.79,1,1,0,0,0-.2-.78,1.52,1.52,0,0,0-.68-.39,2.71,2.71,0,0,0-.89-.1l-7.64-.39h-.89a.89.89,0,0,0-.68.29A1.11,1.11,0,0,0,157.18,112.24Z" fill="#fff"/><path d="M154.24,119l15.59,3.73-.78,3.43L155.81,123l-.88,3.53-2.36-.59Z" fill="#fff"/><polygon points="159.24 137.63 159.73 140.87 162.87 141.56 161.4 144.4 163.56 146.85 160.61 148.22 161.01 151.46 157.77 150.97 156.2 153.72 153.95 151.46 150.91 152.73 150.51 149.5 147.28 148.91 148.85 145.97 146.59 143.62 149.53 142.14 149.24 138.91 152.38 139.5 154.04 136.65 156.3 139.01 159.24 137.63" fill="#fff"/><path d="M88.93,94.78c3.34-.78,6.77-1.37,10.2-2,1.86-.29,3.73-.59,5.59-.78,1.47-.2,3.82-.69,5.1,0s2.25,2.45,3.14,3.62c1,1.38,1.86,2.85,2.84,4.32,1.77,2.84,3.43,5.78,5.1,8.73.69,1.07,2.26-.1,1.57-1.18-1.86-3.14-3.63-6.28-5.59-9.41a50.6,50.6,0,0,0-3.24-4.81,14.68,14.68,0,0,0-2.25-2.65q1.32-3.09,2.65-6.17l11,5a1,1,0,0,0,1.27-.49,67,67,0,0,0,2.85-7.26,1,1,0,0,0-.49-1.28A125.5,125.5,0,0,0,117,75.27a1,1,0,0,0-1.18.39c-.1.1-.1.2-.2.29-2,4.61-4.11,9.22-6.07,13.93A20.8,20.8,0,0,0,106,90c-1.87.19-3.83.39-5.69.68-3.92.59-7.75,1.28-11.67,2.16C87.46,93.11,87.66,95.08,88.93,94.78ZM127,81.94a50.73,50.73,0,0,1-2.06,5.39l-10.1-4.61c.79-1.76,1.57-3.53,2.26-5.2C120.51,78.9,123.74,80.37,127,81.94Z" fill="#fff"/><path d="M116.88,157.64l.1-.1,13.53-30.3a.88.88,0,0,0,.1-.49.93.93,0,0,0-.59-1l-16.77-7.65a64.55,64.55,0,0,0,3.14-7.65c.49-1.37-.29-2.25-1-3.53a47.34,47.34,0,0,0-3.34-5.29,31.74,31.74,0,0,0-3.62-4.52c-1.28-1.17-2.85-1.17-4.61-1.07-4.22.19-8.34,1.37-12.46,2.15a.93.93,0,0,0-.78.59l-3.43,7.55L71,99h-.1a1,1,0,0,0-1.37.29c0,.1-.1.1-.1.2-4.61,10.1-9.22,20.2-13.73,30.4a1.05,1.05,0,0,0,0,.78,1.29,1.29,0,0,0,.49.69c19.91,8.63,39.62,17.45,59.13,26.87a.91.91,0,0,0,1.18-.4C116.88,157.74,116.88,157.64,116.88,157.64ZM107.56,99a21.51,21.51,0,0,1,3.24,4.21c1,1.48,2,3,2.84,4.61a7.09,7.09,0,0,1,1,1.77c.1.29-.09.39-.29.88-1.08,2.45-2,5-3.14,7.45v.1a1,1,0,0,0,.1,1.37c.1.1.1.1.2.1L128.16,127l-13,28.83c-7-3.33-13.92-6.57-21-9.8h0c2-4.71,4.12-9.22,5.69-14,.68-2.06,1.17-4.21.29-6.27a7.41,7.41,0,0,0-3.63-3.53c-3.63-2-7.45-.79-9.9,2.45a34.1,34.1,0,0,0-3.43,6.86c-1.18,2.65-2.26,5.4-3.44,8-7.15-3.23-14.41-6.37-21.67-9.51,4.22-9.61,8.63-19.22,13-28.73l16.27,7.45a1,1,0,0,0,1.28-.49c0-.09.1-.19.1-.29l3.43-7.75c3.33-.68,6.67-1.47,10.1-2C104.23,98,106.19,97.63,107.56,99ZM81.77,140.38c1.67-3.92,3.14-7.85,5-11.67s4.9-7.06,9.21-4.71c1.77,1,3.14,2.55,3,4.71a22.16,22.16,0,0,1-1.67,5.59c-1.37,3.73-3,7.35-4.51,11h0C89,143.61,85.4,142,81.77,140.38Z" fill="#fff"/><path d="M97.56,118.81a.64.64,0,0,0,.39.09c4.71,1.77,9.71.49,11.09-4.8,1.17-4.61-.79-9.51-5.4-11.38a8.41,8.41,0,0,0-11,4.61c-.1.4-.29.69-.39,1.08C91.19,112.92,93.74,116.65,97.56,118.81Zm5.4-14.22a7.29,7.29,0,0,1,4.51,8,5.81,5.81,0,0,1-2.55,4.51c-1.87,1.18-4.32.69-6.28-.1-.1,0-.2-.1-.29-.1-2.65-1.47-4.61-3.92-4.12-7.06a6.62,6.62,0,0,1,7.25-5.68A7.36,7.36,0,0,1,103,104.59Z" fill="#fff"/><path d="M102.07,115.47c.79,1,2.36-.19,1.57-1.17-.68-.79-1.27-1.67-2-2.36l-.29-.29a.09.09,0,0,0,.09-.1,5.23,5.23,0,0,1,.3-.69c.49-1,1-2.06,1.47-3a1,1,0,0,0-1.77-.78,34.2,34.2,0,0,0-1.76,3.82C98.94,112.63,100.9,114.1,102.07,115.47Z" fill="#fff"/><path d="M103.84,138a1,1,0,0,0,.29,1.37.1.1,0,0,1,.1.1c3.43,1.47,6.77,3.13,10.2,4.51a1,1,0,0,0,1.27-.49c.79-1.77,1.57-3.44,2.26-5.2.39-1.08.88-2.16,1.27-3.24a10.25,10.25,0,0,0,.89-2.64c.09-1.67-2.46-2.16-3.63-2.75L110,126.75c-.1,0-.2-.1-.3-.1a1,1,0,0,0-1.37.2l-.1.09c-1.57,3.63-2.94,7.26-4.41,10.89Zm10.59-7.26L117,132c.19.09,1.08.39,1.08.39.29-.1.29,0,.09.29a3.13,3.13,0,0,0-.29,1c-1,2.75-2.16,5.49-3.33,8.24-2.85-1.18-5.59-2.45-8.44-3.73,1.28-3.13,2.55-6.27,3.83-9.31Z" fill="#fff"/><path d="M83.15,118.71a10.85,10.85,0,0,0,.88-2.65c.1-1.67-2.45-2.16-3.63-2.75l-6.47-2.94c-.1,0-.2-.1-.29-.1a.93.93,0,0,0-1.28.1.31.31,0,0,0-.1.2c-1.57,3.63-2.94,7.26-4.41,10.88v.1a1,1,0,0,0,.29,1.37.1.1,0,0,1,.1.1c3.43,1.47,6.77,3.14,10.2,4.51a1,1,0,0,0,1.28-.49c.78-1.76,1.56-3.43,2.25-5.19C82.36,120.87,82.76,119.79,83.15,118.71Zm-13.34,3c1.28-3.14,2.55-6.18,3.83-9.32,1.56.69,3.13,1.37,4.6,2.06.89.39,1.67.79,2.55,1.18.2.1,1.08.29,1.08.39.3-.1.3,0,.1.29l-.39,1c-1,2.75-2.16,5.5-3.34,8.24C75.4,124.4,72.66,123,69.81,121.75Z" fill="#fff"/></g></g></svg>