<svg id="Layer_1" data-name="Layer 1" xmlns="http://www.w3.org/2000/svg" viewBox="0 0 201.05 210.79"><defs><style>.cls-1{fill:#65b8dd;}.cls-2{fill:#312f8a;}</style></defs><path class="cls-1" d="M779.35,149.46c3-4,7.86-4,10.85,0l14,18.61a13.86,13.86,0,0,0,14,4.56l22.31-6.8c4.74-1.44,8.69,1.43,8.78,6.38l.43,23.32a13.84,13.84,0,0,0,8.67,11.93l22,7.62c4.68,1.61,6.19,6.26,3.36,10.31l-13.36,19.12a13.85,13.85,0,0,0,0,14.76l13.36,19.11c2.83,4.06,1.32,8.7-3.36,10.32l-22,7.61a13.86,13.86,0,0,0-8.67,11.94l-.43,23.32c-.09,4.95-4,7.82-8.78,6.37l-22.31-6.79a13.84,13.84,0,0,0-14,4.56l-14,18.61c-3,3.95-7.87,3.95-10.85,0L765.3,335.71a13.86,13.86,0,0,0-14-4.56L729,337.94c-4.73,1.45-8.68-1.42-8.77-6.37l-.43-23.32a13.88,13.88,0,0,0-8.67-11.94L689,288.7c-4.68-1.62-6.19-6.26-3.35-10.32L699,259.27a13.89,13.89,0,0,0,0-14.76l-13.36-19.12c-2.84-4-1.33-8.7,3.35-10.31l22.05-7.62a13.85,13.85,0,0,0,8.67-11.93l.43-23.32c.09-5,4-7.82,8.77-6.38l22.31,6.8a13.88,13.88,0,0,0,14-4.56Z" transform="translate(-684.25 -146.49)"/><path class="cls-2" d="M733.62,305l-2.43-2.57,11.63-11,2.42,2.57Z" transform="translate(-684.25 -146.49)"/><path class="cls-2" d="M724.17,293.27l-3.43-6,2.07-1.18,1.68,2.93,3.49-2-1.46-2.56,2.15-1.22,1.46,2.55,6.17-3.53,1.75,3.07Z" transform="translate(-684.25 -146.49)"/><path class="cls-2" d="M729.2,279.74l-5.62,1.93c-3.11,1.07-5.33.56-6.5-2.84s.26-5.2,3.38-6.27l5.62-1.93c3.11-1.07,5.38-.55,6.55,2.86S732.32,278.67,729.2,279.74Zm-1.11-6-7.28,2.5c-.9.3-1.74.72-1.38,1.76s1.26.82,2.16.51l7.28-2.49c.86-.3,1.75-.69,1.39-1.73S729,273.46,728.09,273.76Z" transform="translate(-684.25 -146.49)"/><path class="cls-2" d="M725.5,267.7l-11,1.28-.41-3.47,11.49-1.34c1-.12,2.09-.36,2-1.48s-1.24-1.09-2.24-1l-11.49,1.34-.41-3.49,11-1.28c3.34-.39,5.28.46,5.71,4.11S728.83,267.32,725.5,267.7Z" transform="translate(-684.25 -146.49)"/><path class="cls-2" d="M713.41,254.17l.23-2.48,8-2.56-7.67-.7.27-2.91L730.13,247l-.22,2.38-8.55,2.51,8.25.76-.28,3Z" transform="translate(-684.25 -146.49)"/><path class="cls-2" d="M715.27,240l1.2-3.86c1.23-4,3-4.69,6.41-3.63l5.55,1.72c3.43,1.06,4.54,2.67,3.32,6.61l-1.21,3.9Zm14.14.11c.47-1.52-.16-1.82-1.53-2.25l-6.66-2.06c-1.34-.42-1.93-.44-2.39,1.05l-.16.51,10.58,3.28Z" transform="translate(-684.25 -146.49)"/><path class="cls-2" d="M723.74,219.54l2.25-3,8.52,4.12-6.34-7.06,2.17-2.93,13,9.28-1.49,2-8.73-6.09,7.45,7.82-1.33,1.79-9.79-4.78,8.48,6.56-1.52,2.05Z" transform="translate(-684.25 -146.49)"/><path class="cls-2" d="M742.1,212.33l-8.53-5.1,2.5-2.2,4.48,2.79-2.31-4.69,2.4-2.12,4,9.08L749,215l-2.55,2.25Z" transform="translate(-684.25 -146.49)"/><path class="cls-2" d="M750.15,194.92l3.8-1.71c2.51-1.13,4.91-1.52,6.36,1.73.8,1.76.4,3-.82,3.89,1.79-.54,3.24.28,4.17,2.35,1.36,3,.34,5-2.47,6.3l-4.48,2Zm6.48,4.09c1.46-.65,1.45-1.49.9-2.71a1.74,1.74,0,0,0-2.62-.92l-.56.25L756,199.3Zm3,6.48c1.42-.64,1.55-1.56.91-3-.73-1.64-1.49-2-2.9-1.4l-.66.3,2,4.38Z" transform="translate(-684.25 -146.49)"/><path class="cls-2" d="M763.68,189.54l7-1.65.55,2.34-3.55.84.91,3.86,2.71-.64.56,2.38-2.71.64,1.1,4.65,3.59-.85.55,2.33-7,1.66Z" transform="translate(-684.25 -146.49)"/><path class="cls-2" d="M775.32,198.42l3-.62c.15,2.06.66,2.81,1.55,2.76.73,0,.86-.66.82-1.22-.07-1.32-.78-2.07-1.92-2.93l-1.44-1.13a5.13,5.13,0,0,1-2.38-4c-.15-2.7,1.48-4.28,4.24-4.43,3.41-.19,4,2.45,4.21,4.32l-3,.54c-.12-1.42-.27-2.32-1.17-2.27-.65,0-.91.74-.88,1.3a3.27,3.27,0,0,0,1.68,2.53l1.39,1.09a6.06,6.06,0,0,1,2.74,4.66,3.94,3.94,0,0,1-3.95,4.25C777.18,203.39,775.64,202,775.32,198.42Z" transform="translate(-684.25 -146.49)"/><path class="cls-2" d="M789.1,189.84l-2.39-.29L787,187l8.28,1-.31,2.61-2.37-.29L791,203.53l-3.53-.42Z" transform="translate(-684.25 -146.49)"/><path class="cls-2" d="M805.85,190.8l6.41,2.59-.89,2.22-3.13-1.27-1.51,3.74,2.72,1.1-.92,2.29-2.73-1.11-2.66,6.6-3.28-1.33Z" transform="translate(-684.25 -146.49)"/><path class="cls-2" d="M815.76,195.25l3.06,1.76-8,13.87-3.06-1.77Z" transform="translate(-684.25 -146.49)"/><path class="cls-2" d="M822.34,202.53l-1.9-1.48,1.61-2.07,6.59,5.13L827,206.19l-1.89-1.47-8.22,10.54-2.8-2.19Z" transform="translate(-684.25 -146.49)"/><path class="cls-2" d="M827.13,218.4l2.15,2.16c-1.65,1.26-2,2.1-1.46,2.82s1,.35,1.46,0c1.07-.78,1.31-1.79,1.41-3.21l.16-1.83a5.13,5.13,0,0,1,2.08-4.2c2.18-1.6,4.39-1.1,6,1.13,2,2.75.16,4.73-1.31,5.89L835.54,219c1.13-.87,1.8-1.49,1.26-2.22a1.1,1.1,0,0,0-1.56,0c-1,.7-1.1,1.57-1.21,2.8l-.15,1.75a6.06,6.06,0,0,1-2.39,4.85,4,4,0,0,1-5.73-1C824,222.68,824.33,220.6,827.13,218.4Z" transform="translate(-684.25 -146.49)"/><path class="cls-2" d="M833.76,227.37l5.23-2.43c3-1.4,5.33-1.23,6.87,2.09s.23,5-2.24,6.12l-1.25.58-1.46-3.13,1.45-.68c.84-.39,1.72-.82,1.25-1.84s-1.43-.69-2.31-.28L834.48,231c-1,.46-1.69,1-1.25,1.93s1.38.63,2.25.22l1.52-.71,1.46,3.13-1.25.58c-2.47,1.16-4.75,1.08-6.26-2.16S830.83,228.74,833.76,227.37Z" transform="translate(-684.25 -146.49)"/><path class="cls-2" d="M849.31,236.3l.77,3.45-6.32,1.42.54,2.4,6.32-1.41.78,3.46-15.6,3.5-.78-3.46,6.82-1.53-.54-2.41-6.82,1.53-.77-3.45Z" transform="translate(-684.25 -146.49)"/><path class="cls-2" d="M841.07,251.13l5.94,0c3.3,0,5.24,1.18,5.25,4.77s-1.91,4.84-5.2,4.86l-5.94,0c-3.3,0-5.28-1.2-5.3-4.81S837.77,251.14,841.07,251.13Zm-.86,6,7.7,0c1,0,1.87-.12,1.87-1.23s-.94-1.18-1.88-1.17l-7.7,0c-.91,0-1.87.09-1.87,1.2S839.3,257.15,840.21,257.15Z" transform="translate(-684.25 -146.49)"/><path class="cls-2" d="M840.82,263.62l5.81,1.23c3.23.69,4.87,2.27,4.13,5.78s-2.9,4.33-6.12,3.65L838.83,273c-3.23-.68-4.91-2.29-4.16-5.82S837.6,262.94,840.82,263.62Zm-2.11,5.71,7.53,1.59c.92.2,1.85.28,2.08-.81s-.66-1.35-1.59-1.54L839.2,267c-.88-.19-1.85-.31-2.08.77S837.82,269.14,838.71,269.33Z" transform="translate(-684.25 -146.49)"/><path class="cls-2" d="M847.88,280.13l-1.37,3.26L834,278.12l-1.42,3.38-2.2-.92,2.79-6.65Z" transform="translate(-684.25 -146.49)"/><polygon class="cls-2" points="153.15 143.5 153.62 146.78 156.87 147.46 155.32 150.4 157.55 152.85 154.57 154.32 154.93 157.62 151.66 157.06 150.01 159.93 147.69 157.56 144.67 158.91 144.19 155.63 140.94 154.95 142.49 152.01 140.26 149.56 143.24 148.09 142.88 144.79 146.15 145.35 147.8 142.48 150.12 144.85 153.15 143.5"/><path class="cls-2" d="M782.27,237.64c13.58,3.59,26.55,9,39.86,13.41,1.38.45,2-1.72.6-2.17-13.31-4.4-26.29-9.82-39.86-13.41a1.13,1.13,0,0,0-.6,2.17Z" transform="translate(-684.25 -146.49)"/><path class="cls-2" d="M782.24,235.3c-13.37,4.49-26.56,9.54-40,13.76-1.38.43-.79,2.61.6,2.17,13.45-4.22,26.63-9.27,40-13.76,1.37-.46.78-2.63-.59-2.17Z" transform="translate(-684.25 -146.49)"/><path class="cls-2" d="M742.36,251.55l39.16,14.24c1.37.5,2-1.68.6-2.17L743,249.38c-1.37-.5-2,1.67-.6,2.17Z" transform="translate(-684.25 -146.49)"/><path class="cls-2" d="M782.75,265.74c13.43-4,26.38-9.42,39.44-14.51,1.33-.52.75-2.7-.6-2.17-13.05,5.09-26,10.47-39.44,14.51a1.13,1.13,0,0,0,.6,2.17Z" transform="translate(-684.25 -146.49)"/><path class="cls-2" d="M753.38,255.22c.3,4.64.46,9.3.49,14a1.13,1.13,0,0,0,2.25,0c0-4.65-.19-9.31-.49-14-.09-1.44-2.34-1.45-2.25,0Z" transform="translate(-684.25 -146.49)"/><path class="cls-2" d="M754.84,271a38.23,38.23,0,0,1,16.1,3.64c4.16,2.08,8.52,4.93,10.84,9.08a1.12,1.12,0,0,0,1.94-1.13c-2.5-4.48-7.15-7.64-11.64-9.89a40.93,40.93,0,0,0-17.24-3.95c-1.45-.05-1.45,2.2,0,2.25Z" transform="translate(-684.25 -146.49)"/><path class="cls-2" d="M783.53,283.8a25.41,25.41,0,0,1,3.21-3.1c1.12-1,2.26-2,3.44-2.88a24.58,24.58,0,0,1,7.65-4.17,1.12,1.12,0,0,0-.59-2.17,26.39,26.39,0,0,0-8.19,4.4c-1.24.95-2.44,1.95-3.61,3a25.81,25.81,0,0,0-3.5,3.35,1.16,1.16,0,0,0,0,1.59,1.14,1.14,0,0,0,1.59,0Z" transform="translate(-684.25 -146.49)"/><path class="cls-2" d="M782,251.38c9.55.68,18.83,3.26,28.34,4.31,1.44.16,1.42-2.09,0-2.25-9.51-1.05-18.78-3.63-28.34-4.31-1.45-.11-1.44,2.14,0,2.25Z" transform="translate(-684.25 -146.49)"/><path class="cls-2" d="M808.35,254.8c.07,3.83.19,7.66.14,11.49a1.13,1.13,0,0,0,2.25,0c0-3.83-.07-7.66-.14-11.49a1.13,1.13,0,0,0-2.25,0Z" transform="translate(-684.25 -146.49)"/><path class="cls-2" d="M809.87,267.93c.32,0-.22-.05.07,0l.26.05c.1,0,.39.06.46.14l-.13-.05.15.07.21.11.14.09.14.1,0,0,.15.14c.18.19,0,0,0,0l.23.37,0,.07,0-.06a.59.59,0,0,1,.06.14,3.18,3.18,0,0,1,.14.53l0,.08c0,.12,0,.1,0-.07,0,0,0,.19,0,.23s0,.31,0,.46-.06,0,0-.08a1.3,1.3,0,0,0,0,.21.83.83,0,0,1-.06.21s0,.08,0,.12c.07-.16.08-.19,0-.08l-.14.22c.16-.23,0,0,0,0s-.27.18-.05,0l-.14.1-.24.12c.26-.13,0,0-.07,0l-.3.08-.2,0c.13,0,.13,0,0,0a7.93,7.93,0,0,1-1.09,0l-.28,0c-.05,0-.35,0-.07,0a4.8,4.8,0,0,1-.63-.15s-.27-.12-.12,0-.1-.07-.11-.07l-.22-.14c.2.14,0,0,0-.05s-.14-.12-.16-.18c.1.25,0,0,0,0s-.12-.17-.11-.21c0,.14.06.16,0,0l0-.07a2.1,2.1,0,0,1-.06-.24l0-.08q0-.18,0,.06a1.15,1.15,0,0,1,0-.49v-.08c0-.13,0-.11,0,.05a1,1,0,0,1,0-.24c0-.05,0-.11,0-.16l.06-.15c0-.12,0-.11,0,0a2.16,2.16,0,0,1,.19-.42c0-.14-.16.33-.08.19s.09-.18.14-.27a1.53,1.53,0,0,0,.14-.21c-.13.27-.15.19-.07.1l.09-.1.25-.23c.14-.14-.24.15-.06.05l.18-.12.16-.09.1-.05-.12.06.41-.13a.73.73,0,0,0,.22,0h.08l.6,0A1.14,1.14,0,0,0,811,266.8a1.16,1.16,0,0,0-1.13-1.12,4.09,4.09,0,0,0-3.83,1.69c-.08.12-.15.24-.22.37a3.12,3.12,0,0,0-.15.36c0,.16.15-.34,0-.09a4.08,4.08,0,0,0-.29,2.91,3.43,3.43,0,0,0,1.86,2.23,6.31,6.31,0,0,0,3,.45,4.09,4.09,0,0,0,2.92-1.26,3.58,3.58,0,0,0,.77-2.6,4.42,4.42,0,0,0-1.14-2.78,4.83,4.83,0,0,0-3-1.28,1.12,1.12,0,0,0-1.12,1.12A1.16,1.16,0,0,0,809.87,267.93Z" transform="translate(-684.25 -146.49)"/><path class="cls-2" d="M808.79,273l0,12.32a1.13,1.13,0,0,0,2.25,0L811,273a1.13,1.13,0,0,0-2.25,0Z" transform="translate(-684.25 -146.49)"/><path class="cls-2" d="M806.07,271.79c-1.14,4.3-.44,8.76-1.18,13.11a1.13,1.13,0,0,0,2.17.6c.74-4.34.05-8.84,1.18-13.11a1.13,1.13,0,0,0-2.17-.6Z" transform="translate(-684.25 -146.49)"/><path class="cls-2" d="M811.66,272.48c.71,4.28.28,8.68,1.44,12.9a1.13,1.13,0,0,0,2.17-.6c-1.16-4.2-.73-8.62-1.44-12.89a1.13,1.13,0,0,0-1.38-.79,1.15,1.15,0,0,0-.79,1.38Z" transform="translate(-684.25 -146.49)"/></svg>