<svg width="225" height="225" fill="none" xmlns="http://www.w3.org/2000/svg"><g clip-path="url(#clip0)"><path d="M93.84 7.57c7.62-10.1 20.1-10.1 27.72 0l.28.37c7.62 10.1 23.76 15.34 35.86 11.65l.44-.13c12.1-3.69 22.19 3.64 22.42 16.29l.01.46c.23 12.65 10.21 26.37 22.16 30.5l.44.15c11.96 4.13 15.81 15.99 8.57 26.36l-.26.38c-7.25 10.37-7.25 27.34 0 37.71l.26.38c7.25 10.37 3.39 22.23-8.57 26.36l-.44.15c-11.96 4.13-21.93 17.86-22.16 30.5l-.01.46c-.23 12.65-10.32 19.98-22.42 16.29l-.44-.13c-12.1-3.69-28.24 1.56-35.86 11.65l-.28.37c-7.62 10.1-20.1 10.1-27.72 0l-.28-.37c-7.62-10.1-23.76-15.34-35.86-11.65l-.44.13c-12.1 3.69-22.19-3.64-22.42-16.29l-.01-.46c-.23-12.65-10.21-26.38-22.16-30.5l-.44-.15c-11.96-4.13-15.81-15.99-8.57-26.36l.26-.38c7.25-10.37 7.25-27.34 0-37.71l-.26-.38C-3.59 82.86.27 71 12.22 66.87l.44-.15c11.96-4.13 21.93-17.86 22.16-30.5l.01-.46c.23-12.65 10.32-19.98 22.42-16.29l.44.13c12.1 3.69 28.24-1.56 35.86-11.65l.29-.38z" fill="#303480"/><path d="M67.73 156.68l-11.51 10.48-4.71-5.17 1.73-1.58 2.39 2.63 2.86-2.6-1.82-2 1.76-1.6 1.82 2 3.44-3.13-2.42-2.66 1.72-1.56 4.74 5.19zM60.9 148.47l-11.56 10.8-1.59-2.47 7.97-7.14-9.72 4.42-1.69-2.62 14.62-6.05 1.97 3.06zM56.76 141.58l-14.29 6.17-2.77-6.42 2.15-.93 1.41 3.26 3.55-1.53-1.08-2.49 2.19-.94 1.07 2.49 4.27-1.84-1.42-3.3 2.14-.92 2.78 6.45zM53.41 133.64l-15.16 3.55-.98-4.17c-.24-1.02-.33-1.93-.29-2.74.05-.8.31-1.48.8-2.03.48-.55 1.25-.96 2.31-1.2a7.97 7.97 0 011.7-.24c.51-.01.97.07 1.39.26.42.19.8.5 1.16.94l6.85-3.8.81 3.46-6.4 3.26.22.95 6.79-1.59.8 3.35zm-9.5-1.3l-.22-.94c-.11-.47-.28-.82-.51-1.04a1.39 1.39 0 00-.86-.38c-.34-.03-.74 0-1.19.11-.65.15-1.12.39-1.43.71-.31.32-.39.8-.24 1.44l.25 1.08 4.2-.98zM51 120.47l-6.36.3-9.05 3.4-.15-3.24 4.84-1.71-4.98-1.09-.15-3.11 9.33 2.46 6.35-.3.17 3.29zM51.01 111.52l-12.93-1.43-.26 2.33-2.54-.28.89-8.08 2.54.28-.26 2.31 12.93 1.43-.37 3.44zM51.88 104.37l-14.93-4.42.98-3.3 6.04 1.79.68-2.3-6.04-1.79.98-3.32 14.93 4.42-.98 3.32-6.52-1.93-.68 2.3 6.52 1.93-.98 3.3zM55.6 93.26l-14.06-6.68 1.48-3.11 14.06 6.68-1.48 3.11zM58.12 87.96L45.2 79.27l1.35-2.01 8 1.53-6.22-4.18 1.59-2.36 12.92 8.68-1.3 1.93-8.48-1.85 6.7 4.5-1.64 2.45zM67.29 76.45c-.76.76-1.52 1.21-2.27 1.33-.76.12-1.52-.01-2.28-.39-.76-.39-1.52-.96-2.28-1.7L56.75 72c-.78-.78-1.36-1.55-1.73-2.32-.37-.77-.48-1.55-.31-2.35.17-.8.67-1.62 1.5-2.45.81-.82 1.59-1.33 2.33-1.52.74-.2 1.45-.16 2.13.12.68.28 1.34.74 1.99 1.38l.71.7L61 67.95l-.9-.89c-.24-.24-.47-.44-.7-.6-.23-.17-.46-.25-.7-.26-.24-.01-.48.12-.73.37-.26.26-.38.53-.36.78.02.26.12.51.3.75s.38.47.61.7l5.11 5.08c.25.24.5.45.76.61.26.16.53.24.79.24s.52-.12.76-.37c.25-.25.38-.52.38-.79s-.08-.54-.25-.81c-.16-.27-.37-.53-.62-.77l-1.29-1.29-.99 1-1.43-1.42 3.17-3.19 5.73 5.69-1.6 1.61-1.05-.77c.16.45.21.92.13 1.41-.08.45-.36.94-.83 1.42zM78.25 67.43l-3.14-5.53-7.12-6.54 2.82-1.6 3.72 3.55-1.28-4.93 2.71-1.54 2.02 9.44 3.14 5.53-2.87 1.62zM89.11 62.6c-1.1.38-2.04.49-2.82.33-.78-.16-1.43-.56-1.96-1.19-.53-.63-.97-1.45-1.32-2.45l-1.9-5.46c-.35-1.02-.51-1.93-.48-2.74.03-.81.3-1.52.81-2.12.51-.6 1.32-1.1 2.42-1.48 1.11-.39 2.06-.5 2.84-.34.78.16 1.43.54 1.96 1.16.53.62.96 1.44 1.32 2.45l1.9 5.47c.35 1 .51 1.92.48 2.74-.03.82-.3 1.54-.81 2.15-.51.59-1.32 1.09-2.44 1.48zm-.8-2.31c.34-.12.56-.29.66-.51.1-.22.12-.48.08-.76-.04-.28-.11-.56-.21-.84l-2.46-7.08c-.1-.29-.22-.56-.36-.8-.14-.24-.32-.42-.53-.54-.22-.11-.49-.11-.83 0-.32.11-.52.27-.62.5-.1.23-.13.47-.09.75.04.28.11.56.21.85l2.46 7.08c.1.28.21.54.35.79.13.25.31.44.52.55.21.13.48.13.82.01zM99.94 60c-1.18.16-2.13.1-2.85-.2-.72-.29-1.26-.8-1.63-1.5-.37-.71-.63-1.6-.78-2.68l-1.47-10.64 3.37-.46 1.54 11.16c.04.32.11.63.21.94.09.31.24.56.44.73.2.18.48.24.83.2.37-.05.62-.19.76-.42.14-.23.21-.5.21-.83 0-.32-.02-.64-.06-.96l-1.54-11.16 3.39-.47 1.47 10.64c.15 1.08.14 2.01-.03 2.79-.17.78-.56 1.41-1.17 1.89-.61.48-1.51.81-2.69.97zM111.8 59.22l2.25-15.41 2.4.35 2.08 7.88 1.08-7.42 2.81.41-2.25 15.41-2.3-.34-1.99-8.45-1.16 7.99-2.92-.42zM122.44 61.06l4.83-14.8 6.65 2.17-.73 2.23-3.38-1.1-1.2 3.67 2.58.84-.74 2.26-2.58-.84-1.44 4.42 3.42 1.12-.72 2.21-6.69-2.18zM130.6 63.92l7.03-13.89 6.24 3.16-1.06 2.09-3.17-1.61-1.74 3.45 2.42 1.22-1.08 2.13-2.42-1.22-2.1 4.15 3.21 1.62-1.05 2.08-6.28-3.18zM138.24 67.88l9.34-12.45 3.15 2.36c1.08.81 1.83 1.59 2.23 2.31.4.73.51 1.47.32 2.23s-.63 1.61-1.32 2.53l-3.39 4.52c-.7.93-1.39 1.6-2.08 2.01-.69.41-1.43.52-2.24.35-.81-.17-1.75-.66-2.83-1.47l-3.18-2.39zm4.18.16l.43.32c.42.32.77.48 1.05.5.28.01.53-.08.76-.29.23-.21.48-.5.76-.87l4.07-5.43c.28-.37.47-.69.58-.96.11-.27.12-.52.01-.76s-.37-.52-.78-.82l-.42-.31-6.46 8.62zM151.49 79.72l10.24-8.03-1.45-1.85 2.01-1.58 5.01 6.4-2.01 1.58-1.43-1.83-10.24 8.03-2.13-2.72zM157.73 89.44c-.55-1.03-.8-1.94-.76-2.73.04-.79.33-1.5.87-2.12.54-.62 1.28-1.18 2.22-1.68l5.1-2.72c.95-.51 1.83-.81 2.63-.9.8-.09 1.55.06 2.22.47.67.41 1.29 1.13 1.84 2.16.56 1.04.82 1.96.78 2.75-.03.79-.31 1.5-.84 2.12-.53.62-1.27 1.18-2.22 1.68l-5.1 2.72c-.94.5-1.82.8-2.63.9-.82.1-1.57-.05-2.25-.46-.68-.43-1.3-1.15-1.86-2.19zm2.16-1.15c.17.32.37.51.61.57.24.06.49.05.76-.04s.54-.2.8-.34l6.61-3.53c.27-.14.52-.3.74-.48.22-.17.37-.38.45-.61.08-.23.03-.51-.13-.82-.16-.29-.35-.47-.59-.54-.24-.06-.49-.05-.75.03-.27.08-.54.2-.81.34l-6.61 3.53c-.26.14-.5.29-.73.47-.23.17-.38.37-.47.6-.09.23-.05.5.12.82zM162.57 100.34l15.25-3.15.7 3.37-6.23 1.29 6.76 1.27.68 3.29-7.47-1.4-7.75 4.68-.71-3.43 6.28-3.6-.68-.23-6.14 1.27-.69-3.36zM164.55 110.98l15.57-.25.04 2.42-7.45 3.31 7.5-.12.04 2.84-15.57.25-.04-2.33 8.02-3.32-8.07.13-.04-2.93zM163.52 126.04c.2-1.15.57-2.02 1.09-2.62.52-.6 1.19-.97 2-1.13.81-.16 1.74-.14 2.78.05l5.7 1.01c1.06.19 1.94.49 2.63.91.69.42 1.18 1 1.46 1.74s.32 1.68.11 2.83c-.21 1.16-.57 2.04-1.08 2.65-.52.6-1.17.99-1.97 1.14-.8.15-1.72.14-2.78-.04l-5.7-1.01c-1.05-.18-1.92-.49-2.63-.91a3.42 3.42 0 01-1.49-1.76c-.29-.74-.33-1.7-.12-2.86zm2.4.43c-.06.35-.02.63.13.82.15.2.36.34.62.44.27.1.55.17.84.23l7.38 1.31c.3.05.59.08.87.08s.52-.07.73-.2c.21-.13.34-.38.4-.73.06-.33.01-.59-.13-.78-.15-.2-.35-.34-.62-.44-.26-.1-.54-.17-.85-.23l-7.38-1.31c-.29-.05-.58-.08-.86-.08-.29 0-.53.06-.73.18-.2.12-.33.36-.4.71zM161.98 133.81L177.1 138l-1.11 2.7-8.74-2.6 7.92 4.53-.87 2.11-8.78-2.29 7.98 4.3-1.1 2.67-13.69-7.65 1.14-2.77 9.2 2.35-8.22-4.73 1.15-2.81zM166.02 152.17l.51 3.5 3.46.73-1.64 3.13 2.37 2.63-3.18 1.56.38 3.52-3.49-.6-1.76 3.07-2.47-2.53-3.23 1.45-.51-3.51-3.46-.73 1.64-3.13-2.37-2.63 3.18-1.56-.38-3.52 3.49.6 1.76-3.07 2.47 2.53 3.23-1.44zM125.39 86.88a1.23 1.23 0 00-.6-.45c-.19-.14-.44-.22-.75-.2-14.63 1.18-29.27 2.2-43.84 3.96-.6.07-.96.48-1.1.95-.21.33-.28.76-.09 1.2 7.54 17.74 7.67 37.24 7.67 56.19 0 .97.93 1.34 1.64 1.11 15.61-.85 31.05-3.89 46.72-3.64.54.01.9-.28 1.06-.66.12-.17.2-.38.22-.64.56-10.16.14-20.41-1.38-30.48-1.41-9.46-3.77-19.5-9.55-27.34zm-36.26 60.28c-.02-18.52-.45-37.31-7.46-54.69 13.98-1.64 28.01-2.64 42.04-3.77 5.35 7.58 7.56 17.13 8.91 26.18 1.42 9.47 1.8 19.13 1.34 28.69-15.04-.1-29.87 2.71-44.83 3.59z" fill="#F2AAD4"/><path d="M93.84 109.06c2.24-.74 4.54-1.19 6.9-1.18.76 0 1.43-.79 1.18-1.54-.73-2.17-1.23-4.44-1.45-6.72-.08-.8-.71-1.37-1.54-1.18-2.68.62-5.38 1.03-8.13 1.22-.86.06-1.25.84-1.16 1.5-.01.16.01.33.09.52.88 2.17 1.29 4.5 2.17 6.66.28.68.96.89 1.53.78.13 0 .26-.01.41-.06zm-1.43-7.11c1.95-.19 3.89-.49 5.81-.88.21 1.5.51 2.98.91 4.43-1.8.13-3.57.49-5.29 1.01-.52-1.5-.91-3.05-1.43-4.56zM106.55 100.16c4.64-.55 9.32-.84 13.93-1.64 1.54-.27.89-2.62-.65-2.35-4.4.76-8.86 1.04-13.28 1.56-1.54.17-1.56 2.61 0 2.43zM122.43 101.67c-4.75.62-9.5 1.23-14.25 1.85-1.53.2-1.55 2.64 0 2.44 4.75-.62 9.5-1.23 14.25-1.85 1.53-.2 1.55-2.64 0-2.44zM95.73 124.01c.14.03.29.04.46.02 2.48-.35 4.96-.65 7.45-.92.41-.04.71-.25.91-.53.29-.27.46-.66.34-1.16-.51-2.18-.91-4.38-1.16-6.61-.11-.96-1.1-1.33-1.79-1.09-2.59.41-5.19.76-7.76 1.26-.36.07-.6.26-.74.5-.21.26-.32.6-.23 1.01.45 2.22.89 4.43 1.34 6.65.12.68.65.93 1.18.87zm5.74-7.76c.21 1.54.47 3.07.79 4.59-1.86.21-3.71.44-5.57.69-.29-1.46-.59-2.91-.88-4.37 1.88-.35 3.77-.62 5.66-.91zM110.83 115.72c4.43-.74 8.86-1.44 13.3-2.09 1.55-.23.89-2.58-.65-2.35-4.44.66-8.87 1.36-13.3 2.09-1.55.26-.89 2.61.65 2.35zM124.88 117.23c-4.69.34-9.35.93-13.98 1.76-1.54.28-.89 2.63.65 2.35 4.42-.79 8.86-1.35 13.34-1.67 1.55-.12 1.56-2.56-.01-2.44zM106 132.87c-.21-1.1-.14-2.3-.46-3.37-.12-.39-.44-.77-.85-.85-1.23-.25-2.68.09-3.92.24-1.43.18-2.85.38-4.27.61-.3.05-.51.17-.66.35-.3.27-.48.67-.38 1.16.44 2.22.85 4.45.97 6.71.01.13.04.25.08.36.08.52.46.94 1.14.85 2.73-.34 5.47-.56 8.2-.9.71-.09 1.48-.72 1.18-1.54-.42-1.18-.78-2.38-1.03-3.62zm-2.63-1.92c.12.84.13 1.75.28 2.56.15.77.36 1.52.59 2.27-1.82.2-3.65.39-5.47.6-.15-1.56-.4-3.12-.69-4.66.9-.14 1.8-.28 2.7-.39.75-.09 1.74-.36 2.59-.38zM113.18 130.35c4.15-1 8.36-1.1 12.57-1.64 1.53-.2 1.55-2.64 0-2.44-4.43.57-8.86.67-13.22 1.72-1.52.37-.88 2.73.65 2.36zM125.93 131.9c-4.15.38-8.24 1.04-12.35 1.71-1.54.25-.89 2.6.65 2.35 3.9-.63 7.77-1.26 11.7-1.62 1.55-.14 1.56-2.58 0-2.44z" fill="#F2AAD4"/></g><defs><clipPath id="clip0"><path fill="#fff" d="M0 0h215.4v224.92H0z"/></clipPath></defs></svg>