<svg version="1.1" xmlns="http://www.w3.org/2000/svg" x="0" y="0" viewBox="0 0 32 32" xml:space="preserve"><style>.st0{fill:#fff}</style><path class="st0" d="M21.8 6c.4.1.8.2 1.2.4.6.2 1.2.6 1.7 1 .7.7 1.3 1.4 1.6 2.3.2.5.3 1.1.3 1.7v9.7c0 1.3-.4 2.5-1.2 3.6-.8 1-1.8 1.7-3 2-.5.1-1 .2-1.5.2h-9.5c-1.4 0-2.6-.4-3.6-1.3-.9-.8-1.6-1.8-1.9-2.9-.1-.3-.1-.7-.1-1.1V11.2c0-.9.3-1.7.7-2.4.6-1 1.5-1.8 2.6-2.3.5-.2.9-.4 1.4-.5H21.8zM7.7 16.5v5c0 .6.2 1.1.5 1.6.4.6.8 1.1 1.5 1.5.5.3 1.1.5 1.6.5h9.9c.6 0 1.1-.2 1.6-.5.6-.3 1.1-.8 1.4-1.4.3-.5.5-1.1.5-1.7v-9.9c0-.2 0-.4-.1-.5-.2-.8-.6-1.6-1.2-2.1-.7-.6-1.5-1-2.4-1H10.9c-1 .1-1.8.5-2.4 1.3-.6.7-1 1.5-1 2.4.1 1.5.2 3.1.2 4.8z"/><path class="st0" d="M16.2 21.9c-3 0-5.4-2.4-5.4-5.5 0-3 2.4-5.4 5.4-5.4 3 0 5.4 2.4 5.4 5.5 0 3-2.4 5.4-5.4 5.4zm0-1.9c1.9.1 3.5-1.6 3.5-3.5S18.1 13 16.2 13s-3.5 1.6-3.5 3.5 1.6 3.5 3.5 3.5zM21.8 12.2c-.8 0-1.4-.6-1.4-1.4 0-.7.7-1.4 1.4-1.4.8 0 1.4.6 1.4 1.4 0 .8-.6 1.4-1.4 1.4z"/></svg>
