<svg xmlns="http://www.w3.org/2000/svg" viewBox="0 0 32 32"><path d="M16.1 13c-.2-1.1-.1-2.2.5-3.2.7-1.2 1.9-2 3.3-2.3 1.4-.3 2.6.1 3.6 1 .3.3.6.4 1 .2.5-.2 1.1-.4 1.6-.6.2-.1.5-.2.7-.3-.3 1-.9 1.7-1.6 2.4.1-.1.4 0 .4 0 .2 0 .4-.1.6-.1l1.2-.3c-.2.5-.5.8-.8 1.1-.3.3-.6.6-1 .9-.3.2-.4.5-.4.9 0 2-.5 3.9-1.4 5.7-1.9 3.8-5 6.1-9.1 6.9-3.2.6-6.2.1-9-1.6-.1 0-.1-.1-.3-.2 1.1-.1 2.3-.1 3.4-.4 1.1-.3 2.1-.8 3-1.4-1-.3-1.9-.6-2.7-1.2-.6-.5-1.1-1.2-1.2-2h1.2c.1 0 .4-.1.4-.1-1.2-.5-2.2-1.2-2.8-2.4-.3-.6-.5-1.3-.4-2.1.1 0 .4.1.7.2.3.1.5.1.9.2-1.8-1.8-2.3-3.7-1.2-6 1.5 1.7 3.4 3.2 5.6 3.9.6.2 1.2.4 1.8.5.6.1 1.3.3 2 .3z" fill="#fff"/></svg>
