<svg xmlns="http://www.w3.org/2000/svg" viewBox="0 0 154.85 131.81"><g id="Layer_2" data-name="Layer 2"><g id="Layer_1-2" data-name="Layer 1"><path d="M105.85,29A52.93,52.93,0,1,1,0,29" fill="#efa63a"/><path d="M149.38,80.52c-2.62-1.49-5.29-2.91-8-4.32.32-1.21,1.19-2.28.79-5.32-1-7.58-2.63-15-4.2-22.51-1-4.71-1.23-13.07-5.16-16.49-2.77-2.4-6.45-.93-8.1,2-1.84,3.3-1.76,7.84-1.12,12-1.17-1.46-2.33-2.94-3.45-4.44-2-2.66-3.68-5.51-6.11-7.8-2.93-2.75-7.92-5.08-10.51-.47-2.12,3.78.08,8.93,2.64,13.26-7-4.31-15.46-8-17,.08l-5.21-3.08a5.93,5.93,0,0,1-1.2-.48c-5.18-1.18-10.29-2.63-15.55-3.4a1.52,1.52,0,0,0-1.69,2.2c2.31,4,4,8.29,6.38,12.26l0,0a1.49,1.49,0,0,0,.61.86c3.69,2.59,7.53,4.8,11.43,7-1.32,3.36-1.43,7.43-1.55,10.84-.21,6.16-.14,12.33-.09,18.49q.16,19.55,1.34,39c.12,1.92,3.12,1.94,3,0q-1-17.55-1.3-35.13-.12-8.79,0-17.58a83.71,83.71,0,0,1,.41-9.37,25.68,25.68,0,0,1,.75-4.17c.68-2.24,3.46-9,7.51-.91,1.05,2.09.48,6.47.6,8.83.14,2.61.2,5.25.52,7.84.4,3.17,1.27,6.35,3.51,8.75,5.71,6.11,13.35,1.81,17.76-3.4a1.53,1.53,0,0,0,.37-.42l.07-.11.08-.1a1.46,1.46,0,0,0,.2-.33A14,14,0,0,1,118,83c5.09,3,10.24,5.84,15.45,8.57-3.92,6.62-9.67,11.31-14.28,17.38s-5.5,12.9-4.31,20.49c.29,1.9,3.19,1.1,2.89-.79-1.48-9.43,1.47-15.79,7.87-22.5,4-4.18,7.63-8.21,10.51-13.2.81.41,1.62.84,2.43,1.24,2.25,1.14,5.82,3.45,8.44,3.2,3.83-.36,7.43-6.26,7.82-9.72S152,82,149.38,80.52Zm-7.83,11.82c-.48-.22-1-.44-1.43-.68a33.57,33.57,0,0,1,5.62-10l1.26.72A65.64,65.64,0,0,0,141.55,92.34ZM127,36.28q4.17-3.68,4.94-.06a12.84,12.84,0,0,1,1,2.83c.54,1.88.86,3.85,1.26,5.76,1.2,5.75,2.5,11.49,3.57,17.27-2.33-2.93-5.2-5.58-7.5-8.22-.85-1-1.7-2-2.54-3C126.83,47.41,125,39.87,127,36.28ZM109.8,34.07c1.64.15,4.35,4.17,5.14,5.24,1.62,2.2,3.18,4.43,4.85,6.58,2.87,3.69,5.89,7.26,9,10.78,2,2.25,4.62,4.67,6.75,7.34l-.41-.25c-6.8-4.07-13.93-7.68-20.65-11.85-.56-.35-1.25-.82-2-1.35-1.47-2.25-2.87-4.54-4.11-6.92a28,28,0,0,1-1.57-3.49,9.74,9.74,0,0,1-.87-3.92S105.91,32.5,109.8,34.07Zm.2,18.24a1.4,1.4,0,0,0,.66.44c2.33,1.57,4.24,2.91,5.19,3.44,3.89,2.15,7.78,4.26,11.61,6.53,4.53,2.67,12.33,5.52,11.21,12-3-1.56-6-3.12-8.9-4.74C117,63,104.47,55.62,91.94,48.21,92.71,41.46,103,47.62,110,52.31Zm-30.26-3.2c-1.54-.21-3.43-.38-4.21.75a2.08,2.08,0,0,0-.26,1.56c.09.7.21,1.34.29,2l-1-.67a1.42,1.42,0,0,0-.08-.18c-1.07-1.8-2-3.67-2.92-5.55a1.14,1.14,0,0,0,.1-.19c.42-1,.91-2,1.43-3,2.32.53,4.63,1.11,7,1.67C79.93,46.67,79.84,47.89,79.74,49.11Zm34.55,34c-2.21,2.75-5.05,5.72-8.87,5.55-5.15-.22-6.92-5.32-7.4-9.53-.33-2.89-.34-5.82-.43-8.75q8.76,5.73,17.8,11.12C115,82,114.63,82.52,114.29,83.08ZM98,67a1.57,1.57,0,0,0-.54-.23c-.09-1.19-.21-2.39-.41-3.57C96,57,89.41,54,85.4,59.36c-2.27-1.29-4.52-2.59-6.73-4A17.08,17.08,0,0,0,78.39,52c.92,0,1.9.2,2.72.26a1.53,1.53,0,0,0,1.5-1.5L83,46.39c11.78,7,23.56,14,35.47,20.71q9,5.1,18.14,10c2.07,1.11,4.3,2.11,6.49,3.19a36.44,36.44,0,0,0-5.65,10c-2.18-1.16-4.33-2.37-6.48-3.54C119.67,80.59,108.66,74.06,98,67ZM150.13,90.9c-2.1,3.33-3.19,3.72-5.86,2.67a60.27,60.27,0,0,1,5.23-9.51C152.17,86.08,151.77,88.31,150.13,90.9Z" fill="#112f25"/><path d="M35.47,51.12A29.14,29.14,0,0,1,21.29,52c-5.38-1.09-8.23-4.1-9.71-9.36A15.67,15.67,0,0,1,22.84,22.83a19.28,19.28,0,0,1,21.22,9c4.31,7.8.36,18.72-9.34,19.22-1.92.1-1.93,3.1,0,3,9.66-.5,16.15-10.12,13.7-19.38C45.62,24.1,34.09,17.77,23.58,19.62,12.87,21.5,5.69,32,8.47,42.59,9.74,47.45,12.1,52,17,53.88c6.1,2.4,13.14,1.94,19.3.14,1.85-.54,1.06-3.44-.8-2.9Z" fill="#112f25"/><path d="M19.56,35.52,27,41.93a1.51,1.51,0,0,0,2.35-.31A119.9,119.9,0,0,1,58,2.52C59.39,1.23,57.27-.89,55.84.4A121.93,121.93,0,0,0,26.73,40.11l2.36-.31-7.41-6.4c-1.45-1.25-3.59.86-2.12,2.12Z" fill="#112f25"/><path d="M16.47,75Q33.08,86.45,50.63,96.36a1.5,1.5,0,0,0,1.51-2.59Q34.59,83.85,18,72.41c-1.59-1.1-3.09,1.5-1.51,2.59Z" fill="#112f25"/><path d="M43.75,70.36q-11.16,13-23.36,25c-1.38,1.36.75,3.48,2.12,2.12q12.19-12,23.36-25C47.13,71,45,68.9,43.75,70.36Z" fill="#112f25"/></g></g></svg>