<svg xmlns="http://www.w3.org/2000/svg" viewBox="0 0 143.9 120"><g id="Layer_2" data-name="Layer 2" transform="translate(0 25)"><path d="M143.3,2A58,58,0,0,1,27.21,2" fill="#eaa2cc"/><path d="M74.21,26.19c-2.9-2.39-5.42-1.81-8.33-.62C65,23,65.44,16,65.44,14.35c0,0,0,0,0-.08A1.48,1.48,0,0,0,64,12.52a140.51,140.51,0,0,0-14.8,0,1.5,1.5,0,0,0-1.28,2.24c1.92,3.18.89,8.25-3.07,8.93H44.8a5.52,5.52,0,0,1-3.17-.27,4.55,4.55,0,0,1-2.27-2.75,7.48,7.48,0,0,1,.71-6.21,1.51,1.51,0,0,0-1.29-2.24l-14.56.16a1.51,1.51,0,0,0-1.49,1.49v5.47a1.49,1.49,0,0,0,3,0v-4l11-.12C35.4,20.5,37.2,27,43.91,26.74c6-.27,9-6.26,7.53-11.36,3.66-.15,7.33-.06,11,.06-.17,3.89-1,10.7,1.81,13a1.59,1.59,0,0,0,1.81.23c2.77-1.2,6.08-1.37,7.74,1.56a6.15,6.15,0,0,1-1.5,7.79,5.63,5.63,0,0,1-7.11-.49,1.51,1.51,0,0,0-2.55,1,97.13,97.13,0,0,0,0,14.17c-11.89.24-23.79-.15-35.69,0a1.49,1.49,0,0,0,0,3c2.7,0,5.4,0,8.1,0a6.19,6.19,0,0,1-2.77,2.7c-1.89.93-3.77.65-5.81.84s-3.92.49-5.17,1.76c-2.32-3.53-5.06-6.77-7.68-10.11,3.28-3.39,1.83-8.24,3.26-12.52,1.76-5.28,5.43-8.17,8.56-12.18,1.07,1.77,1.47,3.44.43,5.32-.56,1-1.32,1.91-1.81,2.95C22.87,37.1,23.39,40.29,24,43c.52,2.19.59,4.47-1.16,6.14a6.84,6.84,0,0,1-1.05.81c-1.6,1-.11,3.61,1.5,2.57,7.34-4.71.38-12,4.11-17.88,2.87-4.51,2.53-7.65-.92-12a1.5,1.5,0,0,0-2.33.3c-2.72,4.07-6.72,6.53-8.75,11.12a29.05,29.05,0,0,0-2.09,6.07c-.53,2.65.2,6.07-1.55,8.37a1.65,1.65,0,0,0-2.3.09,1.75,1.75,0,0,0-.42.23A56.68,56.68,0,0,1,.73,54.38a1.45,1.45,0,0,0-.07,2.47c4.7,4.9,9,10.13,11.91,16.32a1.51,1.51,0,0,0,2.21,1.1c1.7-1,3-2.49,4.66-3.49a15.47,15.47,0,0,0,4.34-3.22,1.5,1.5,0,0,0,.33-1.28,1.61,1.61,0,0,0-.16-.71c-.29-.59-.6-1.16-.92-1.73a1.22,1.22,0,0,0,.1-.23c.61-1.88,4.81-1.45,6.32-1.48a9.2,9.2,0,0,0,3.62-.78c2.9-1.21,4-2.9,5.36-5.61,8.6.06,17.2.2,25.8,0a1.43,1.43,0,0,0,1.43-1.4,1.29,1.29,0,0,0,.06-.53,114.38,114.38,0,0,1-.28-12.42c4.71,2.2,11.06-.76,12.07-6.15A9.77,9.77,0,0,0,74.21,26.19ZM17.49,68.47a28.86,28.86,0,0,0-2.82,2.24A62.64,62.64,0,0,0,3.92,56a62.41,62.41,0,0,0,6.49-4.43c3.69,4.78,7.71,9.3,10.51,14.68A21.82,21.82,0,0,1,17.49,68.47Z" fill="#003125"/><path d="M143.23,55c-3.14-2.11-5.71-4.88-8.82-7a1.54,1.54,0,0,0-.34-.17,1.17,1.17,0,0,0-1.51.37l-.42.52c-1.59-3.56-1.32-8-2.66-11.74a40.57,40.57,0,0,0-5-8.79c-1.48-2.17-3.67-9.45-7.37-7.62-6.42,3.19.38,13.38-.41,17.73-.52,2.91-1.66,4.72-.76,7.68s3.24,5.39,5.41,7.52c1.36,1.34,3.47-.76,2.1-2.1-2.29-2.25-4.51-4.53-4.73-7.84-.16-2.33,1.07-4,1.28-6.27.22-2.42-.9-4.34-1.64-6.58a12,12,0,0,1-.91-4.33,4,4,0,0,1,.84-3c3,4.87,6.71,9.64,8.55,15.12,1.42,4.24.9,8.81,3.23,12.7-2.42,3-4.89,5.89-7.32,8.84-4.29-1.85-10.19-.26-12.52-4.82l6.68-.06a1.49,1.49,0,0,0,0-3l-35.21.33q-.28-5.91-.17-11.83c5.58,1.14,11.17-2.51,11.14-8.78A8.2,8.2,0,0,0,88.84,25,8.45,8.45,0,0,0,82,24.19c.13-2.92.19-5.85.15-8.77l12.24.08a1.48,1.48,0,0,0,.65-.14,1.33,1.33,0,0,0,.87-2.09C93.4,9.7,95,2.44,100.22,3c4.6.51,6.7,5.16,4,9a1.79,1.79,0,0,0-.18.33,1.5,1.5,0,0,0,1,2.56l13.16-.12c0,1.24.09,2.48.09,3.73a1.49,1.49,0,0,0,3,0c0-1.74-.17-3.47-.06-5.21A1.27,1.27,0,0,0,120,11.92a1.53,1.53,0,0,0-.54-.09l-11.81.11a9.09,9.09,0,0,0-.24-7.71C106,1.51,103.07.26,100.11,0c-6.48-.5-9.7,7-7.9,12.48l-11.57-.07A1.39,1.39,0,0,0,79.21,14a1.53,1.53,0,0,0,0,.38c.06,3.69,0,7.39-.2,11.08a1.87,1.87,0,0,0,0,.42,1.62,1.62,0,0,0,2.24,1.73c4.08-1.85,9.16.24,8.39,5.32-.7,4.59-5.1,6-9,4.43a1.17,1.17,0,0,0-1.35.24,1.37,1.37,0,0,0-.62,1.16c-.14,5.05-.1,10.09.2,15.13a1.41,1.41,0,0,0,.17.64,1.35,1.35,0,0,0,1.37,1l26.69-.25a9.19,9.19,0,0,0,4.82,5.53c2.84,1.29,6.09.64,9,1.67l-1.45,1.79a1.66,1.66,0,0,0,0,2,1.79,1.79,0,0,0,.52.47l8,6.62a2.11,2.11,0,0,0,.27.18,1.21,1.21,0,0,0,1.65.11A37.19,37.19,0,0,0,137.4,66c2.13-2.76,5-5.86,6.37-9.09a1.5,1.5,0,0,0,.11-.48A1.44,1.44,0,0,0,143.23,55Zm-7.49,8.36A37,37,0,0,1,129,70.42l-6.47-5.37c3.73-4.64,7.6-9.15,11.32-13.8,1,.82,2,1.74,3,2.63a37.48,37.48,0,0,0,3.73,2.89C139.45,59.07,137.22,61.36,135.74,63.33Z" fill="#003125"/></g></svg>