<svg xmlns="http://www.w3.org/2000/svg" viewBox="0 0 32 32"><path d="M17.9 24.4H14.5c-1.3 0-2.5-.1-3.8-.1-1-.1-1.9-.1-2.8-.3-1.2-.2-2-1-2.3-2.2-.3-1.1-.3-2.1-.4-3.2 0-.4 0-.8-.1-1.2v-1.8-.2c0-.6 0-1.2.1-1.8.1-.9.1-1.8.3-2.6.3-1.1 1-1.8 2-2.1.9-.2 1.9-.3 2.8-.3 1.3-.1 2.6-.1 3.9-.1h3.7c1 0 2 0 3 .1 1.1.1 2.2.1 3.3.3 1.2.2 2.1.9 2.4 2.1.4 1.3.4 2.6.3 4v3.9c0 .7-.1 1.3-.2 2-.1.6-.2 1.4-.5 1.9-.4.6-1 1.1-1.7 1.2-.9.2-1.9.3-2.9.3-1.3.1-2.6.1-3.9.1h.2zm-3.8-4.5c1.9-1.1 3.8-2.3 5.8-3.4-1.9-1.1-3.8-2.3-5.8-3.4v6.8z" fill="#fff"/></svg>
